Iansui.glyphspackage
{
glyphname = numbersign;
layers = (
{
hints = (
{
horizontal = 1;
place = (210,58);
type = Stem;
},
{
horizontal = 1;
place = (465,58);
type = Stem;
},
{
place = (213,67);
type = Stem;
},
{
place = (327,70);
type = Stem;
},
{
place = (425,67);
type = Stem;
},
{
place = (115,70);
type = Stem;
}
);
layerId = "481A290F-76EE-4968-957F-52614F4635C1";
shapes = (
{
closed = 1;
nodes = (
(327,-8,ls),
(327,-17,o),
(343,-22,o),
(359,-22,cs),
(377,-22,o),
(396,-16,o),
(397,-6,cs),
(399,14,o),
(400,32,o),
(403,57,cs),
(422,195,l),
(454,195,ls),
(484,195,o),
(502,195,o),
(532,194,cs),
(543,194,o),
(549,206,o),
(549,219,cs),
(549,236,o),
(540,256,o),
(527,256,cs),
(526,256,ls),
(498,254,o),
(475,253,o),
(455,253,cs),
(430,253,l),
(456,450,l),
(480,450,ls),
(496,450,o),
(528,450,o),
(558,449,cs),
(569,449,o),
(575,461,o),
(575,474,cs),
(575,491,o),
(566,511,o),
(553,511,cs),
(552,511,ls),
(524,509,o),
(499,508,o),
(481,508,cs),
(464,508,l),
(483,645,ls),
(484,651,o),
(488,666,o),
(492,678,c),
(492,681,ls),
(492,694,o),
(469,702,o),
(450,702,cs),
(437,702,o),
(425,699,o),
(425,690,cs),
(424,670,o),
(422,654,o),
(421,647,cs),
(402,508,l),
(252,508,l),
(263,583,o),
(271,645,o),
(271,645,c),
(272,653,o),
(277,668,o),
(280,678,c),
(280,681,ls),
(280,694,o),
(257,702,o),
(238,702,cs),
(225,702,o),
(213,699,o),
(213,690,cs),
(212,670,o),
(210,654,o),
(209,647,cs),
(190,508,l),
(161,508,ls),
(129,508,o),
(99,509,o),
(79,510,cs),
(67,510,o),
(63,499,o),
(63,486,cs),
(63,468,o),
(72,447,o),
(83,447,cs),
(84,447,ls),
(101,449,o),
(136,450,o),
(160,450,cs),
(182,450,l),
(155,253,l),
(135,253,ls),
(103,253,o),
(73,254,o),
(53,255,cs),
(41,255,o),
(37,244,o),
(37,231,cs),
(37,213,o),
(45,192,o),
(57,192,cs),
(58,192,ls),
(74,194,o),
(110,195,o),
(134,195,cs),
(147,195,l),
(129,59,ls),
(125,33,o),
(119,11,o),
(115,-6,c),
(115,-8,ls),
(115,-17,o),
(131,-22,o),
(147,-22,cs),
(165,-22,o),
(184,-16,o),
(185,-6,cs),
(187,14,o),
(188,33,o),
(191,57,cs),
(210,195,l),
(359,195,l),
(341,59,ls),
(338,36,o),
(331,11,o),
(327,-6,c)
);
},
{
closed = 1;
nodes = (
(367,253,l),
(217,253,l),
(217,253,o),
(231,352,o),
(244,450,c),
(394,450,l)
);
}
);
width = 600;
}
);
note = cid00004;
unicode = 35;
}
{
glyphname = dollar;
layers = (
{
hints = (
{
horizontal = 1;
place = (-15,62);
type = Stem;
},
{
place = (68,72);
type = Stem;
},
{
place = (270,66);
type = Stem;
},
{
place = (480,71);
type = Stem;
},
{
place = (268,71);
type = Stem;
}
);
layerId = "481A290F-76EE-4968-957F-52614F4635C1";
shapes = (
{
closed = 1;
nodes = (
(270,32,l),
(259,33,o),
(147,38,o),
(84,137,cs),
(81,142,o),
(77,144,o),
(73,144,cs),
(57,144,o),
(35,116,o),
(35,94,cs),
(35,87,o),
(37,81,o),
(41,77,cs),
(99,11,o),
(170,-26,o),
(270,-30,c),
(270,-51,o),
(268,-100,o),
(268,-113,cs),
(268,-128,o),
(298,-138,o),
(319,-138,cs),
(331,-138,o),
(339,-135,o),
(339,-129,cs),
(339,-110,o),
(337,-48,o),
(336,-29,c),
(473,-14,o),
(551,72,o),
(551,177,cs),
(551,284,o),
(488,352,o),
(361,385,cs),
(336,392,l),
(336,632,l),
(390,623,o),
(440,598,o),
(466,565,cs),
(476,554,o),
(483,547,o),
(490,547,cs),
(505,547,o),
(515,574,o),
(515,596,cs),
(515,648,o),
(401,688,o),
(337,695,c),
(337,710,o),
(338,724,o),
(338,732,cs),
(338,746,o),
(309,755,o),
(288,755,cs),
(276,755,o),
(267,752,o),
(267,746,cs),
(267,736,o),
(268,714,o),
(269,694,c),
(150,680,o),
(68,598,o),
(68,511,cs),
(68,423,o),
(128,381,o),
(227,355,cs),
(270,344,l)
);
},
{
closed = 1;
nodes = (
(343,324,ls),
(446,296,o),
(480,253,o),
(480,169,cs),
(480,101,o),
(424,47,o),
(336,34,c),
(336,326,l)
);
},
{
closed = 1;
nodes = (
(270,409,l),
(254,413,ls),
(165,437,o),
(140,456,o),
(140,509,cs),
(140,563,o),
(188,618,o),
(270,631,c)
);
}
);
width = 600;
}
);
note = cid00005;
unicode = 36;
}
{
glyphname = asterisk;
layers = (
{
hints = (
{
horizontal = 1;
place = (533,84);
type = Stem;
},
{
place = (225,47);
type = Stem;
},
{
place = (208,74);
type = Stem;
}
);
layerId = "481A290F-76EE-4968-957F-52614F4635C1";
shapes = (
{
closed = 1;
nodes = (
(389,543,ls),
(410,547,o),
(419,554,o),
(419,569,cs),
(419,590,o),
(407,618,o),
(388,618,cs),
(382,618,o),
(375,616,o),
(367,611,cs),
(345,598,o),
(304,578,o),
(272,563,c),
(274,597,o),
(278,632,o),
(281,661,cs),
(281,666,o),
(282,670,o),
(282,675,cs),
(282,688,o),
(277,699,o),
(249,699,cs),
(246,699,ls),
(214,699,o),
(208,687,o),
(208,676,cs),
(208,670,o),
(209,665,o),
(210,661,cs),
(215,633,o),
(221,593,o),
(225,560,c),
(193,571,o),
(157,585,o),
(134,595,cs),
(127,598,o),
(119,602,o),
(112,602,cs),
(92,602,o),
(84,572,o),
(84,552,cs),
(84,527,o),
(104,527,o),
(115,526,cs),
(140,525,o),
(176,522,o),
(209,518,c),
(185,487,o),
(157,455,o),
(143,439,cs),
(137,432,o),
(131,424,o),
(131,415,cs),
(131,398,o),
(159,376,o),
(179,376,cs),
(195,376,o),
(201,391,o),
(204,399,cs),
(212,420,o),
(231,459,o),
(251,493,c),
(267,460,o),
(286,424,o),
(296,402,cs),
(300,392,o),
(306,378,o),
(321,378,cs),
(336,378,o),
(370,399,o),
(370,418,cs),
(370,429,o),
(360,436,o),
(355,441,cs),
(336,460,o),
(309,493,o),
(287,522,c)
);
}
);
width = 500;
}
);
note = cid00011;
unicode = 42;
}
{
glyphname = five;
layers = (
{
hints = (
{
horizontal = 1;
place = (-19,64);
type = Stem;
},
{
horizontal = 1;
place = (382,60);
type = Stem;
},
{
horizontal = 1;
place = (625,63);
type = Stem;
},
{
place = (468,69);
type = Stem;
},
{
horizontal = 1;
place = (637,65);
type = Stem;
}
);
layerId = "481A290F-76EE-4968-957F-52614F4635C1";
shapes = (
{
closed = 1;
nodes = (
(278,30,ls),
(201,31,o),
(144,78,o),
(109,129,cs),
(106,134,o),
(102,136,o),
(98,136,cs),
(82,136,o),
(65,105,o),
(65,80,cs),
(65,72,o),
(67,64,o),
(72,59,cs),
(121,6,o),
(191,-34,o),
(278,-34,cs),
(460,-34,o),
(537,81,o),
(537,209,cs),
(537,346,o),
(433,425,o),
(322,427,cs),
(313,427,ls),
(251,427,o),
(202,407,o),
(165,378,c),
(203,602,l),
(415,618,ls),
(444,620,o),
(476,621,o),
(494,622,cs),
(503,622,o),
(506,629,o),
(506,638,cs),
(506,657,o),
(490,687,o),
(476,687,cs),
(474,687,ls),
(456,684,o),
(427,682,o),
(407,681,cs),
(199,666,l),
(186,672,o),
(171,677,o),
(159,677,cs),
(149,677,o),
(142,673,o),
(142,664,cs),
(142,652,o),
(142,635,o),
(140,621,cs),
(102,381,l),
(91,343,o),
(91,343,o),
(91,336,cs),
(91,309,o),
(113,288,o),
(129,288,cs),
(133,288,o),
(136,289,o),
(138,291,cs),
(183,332,o),
(225,367,o),
(309,367,cs),
(313,367,ls),
(400,366,o),
(468,309,o),
(468,208,cs),
(468,113,o),
(407,30,o),
(280,30,cs)
);
}
);
width = 600;
}
);
note = cid00022;
unicode = 53;
}
{
glyphname = six;
layers = (
{
hints = (
{
horizontal = 1;
place = (-17,61);
type = Stem;
},
{
horizontal = 1;
place = (376,60);
type = Stem;
},
{
place = (63,71);
type = Stem;
},
{
place = (470,71);
type = Stem;
}
);
layerId = "481A290F-76EE-4968-957F-52614F4635C1";
shapes = (
{
closed = 1;
nodes = (
(181,383,o),
(254,525,o),
(366,653,cs),
(371,658,o),
(376,666,o),
(376,673,cs),
(376,696,o),
(336,699,o),
(326,699,cs),
(313,699,o),
(300,696,o),
(294,686,cs),
(291,681,o),
(286,668,o),
(284,665,cs),
(137,443,o),
(63,312,o),
(63,180,cs),
(63,63,o),
(156,-32,o),
(301,-32,cs),
(462,-32,o),
(541,81,o),
(541,212,cs),
(541,332,o),
(440,421,o),
(320,421,cs),
(256,421,o),
(208,397,o),
(173,367,c)
);
},
{
closed = 1;
nodes = (
(195,29,o),
(134,92,o),
(134,182,cs),
(134,280,o),
(201,361,o),
(317,361,cs),
(410,361,o),
(470,290,o),
(470,209,cs),
(470,105,o),
(411,29,o),
(301,29,cs)
);
}
);
width = 600;
}
);
note = cid00023;
unicode = 54;
}
{
color = 4;
glyphname = seven;
layers = (
{
hints = (
{
horizontal = 1;
place = (606,66);
type = Stem;
},
{
place = (77,453);
type = Stem;
}
);
layerId = "481A290F-76EE-4968-957F-52614F4635C1";
shapes = (
{
closed = 1;
nodes = (
(442,620,l),
(361,458,o),
(178,41,o),
(178,0,cs),
(178,-6,o),
(180,-26,o),
(225,-26,cs),
(242,-26,o),
(252,-21,o),
(254,-10,c),
(321,236,o),
(492,569,o),
(504,592,cs),
(510,604,o),
(525,623,o),
(529,638,cs),
(529,639,o),
(530,641,o),
(530,642,cs),
(530,661,o),
(502,687,o),
(485,687,cs),
(482,687,ls),
(470,687,o),
(456,681,o),
(440,680,cs),
(136,658,ls),
(130,658,o),
(124,657,o),
(119,657,cs),
(103,657,o),
(94,659,o),
(83,659,cs),
(79,659,o),
(77,656,o),
(77,650,cs),
(77,645,o),
(89,591,o),
(127,591,cs),
(137,591,o),
(147,594,o),
(157,595,cs)
);
},
{
closed = 1;
nodes = (
(79,562,ls),
(79,527,o),
(77,489,o),
(77,473,cs),
(77,456,o),
(107,444,o),
(129,444,cs),
(140,444,o),
(149,448,o),
(149,455,cs),
(149,478,o),
(146,520,o),
(146,561,cs),
(146,614,l),
(137,656,l),
(135,657,o),
(105,669,o),
(88,669,cs),
(77,669,o),
(75,664,o),
(75,655,cs),
(75,650,o),
(76,643,o),
(77,631,cs),
(79,615,o),
(79,615,o),
(79,594,cs)
);
}
);
width = 600;
}
);
note = cid00024;
unicode = 55;
}
{
glyphname = equal;
layers = (
{
hints = (
{
horizontal = 1;
place = (127,58);
type = Stem;
},
{
horizontal = 1;
place = (315,58);
type = Stem;
},
{
place = (60,480);
type = Stem;
}
);
layerId = "481A290F-76EE-4968-957F-52614F4635C1";
shapes = (
{
closed = 1;
nodes = (
(516,361,ls),
(488,359,o),
(466,358,o),
(445,358,cs),
(158,358,ls),
(126,358,o),
(96,359,o),
(76,360,cs),
(64,360,o),
(60,349,o),
(60,336,cs),
(60,318,o),
(68,297,o),
(80,297,cs),
(81,297,ls),
(97,299,o),
(133,300,o),
(157,300,cs),
(444,300,ls),
(465,300,o),
(494,298,o),
(525,298,cs),
(536,298,o),
(540,309,o),
(540,321,cs),
(540,339,o),
(531,361,o),
(517,361,cs)
);
},
{
closed = 1;
nodes = (
(516,173,ls),
(488,171,o),
(466,170,o),
(445,170,cs),
(158,170,ls),
(126,170,o),
(96,171,o),
(76,172,cs),
(64,172,o),
(60,161,o),
(60,148,cs),
(60,130,o),
(68,109,o),
(80,109,cs),
(81,109,ls),
(97,111,o),
(133,112,o),
(157,112,cs),
(444,112,ls),
(465,112,o),
(494,110,o),
(525,110,cs),
(536,110,o),
(540,121,o),
(540,133,cs),
(540,151,o),
(531,173,o),
(517,173,cs)
);
}
);
width = 600;
}
);
note = cid00030;
unicode = 61;
}
{
glyphname = V;
layers = (
{
hints = (
{
horizontal = 1;
place = (-17,728);
type = Stem;
},
{
place = (11,598);
type = Stem;
}
);
layerId = "481A290F-76EE-4968-957F-52614F4635C1";
shapes = (
{
closed = 1;
nodes = (
(244,277,o),
(174,477,o),
(113,632,cs),
(107,648,o),
(100,669,o),
(96,684,cs),
(93,697,o),
(69,704,o),
(48,704,cs),
(29,704,o),
(11,699,o),
(11,688,cs),
(11,687,o),
(11,686,o),
(12,684,cs),
(61,585,o),
(190,237,o),
(255,46,cs),
(270,3,o),
(297,-17,o),
(318,-17,cs),
(331,-17,o),
(342,-9,o),
(344,6,cs),
(349,41,o),
(366,110,o),
(573,600,cs),
(581,618,o),
(597,649,o),
(607,665,cs),
(609,668,o),
(609,671,o),
(609,673,cs),
(609,692,o),
(575,711,o),
(552,711,cs),
(543,711,o),
(535,708,o),
(533,700,cs),
(526,675,o),
(513,639,o),
(505,620,cs),
(452,491,o),
(376,291,o),
(304,99,c)
);
}
);
width = 620;
}
);
note = cid00055;
unicode = 86;
}
{
glyphname = j;
layers = (
{
hints = (
{
horizontal = 1;
place = (-162,62);
type = Stem;
},
{
horizontal = 1;
place = (590,108);
type = Stem;
},
{
place = (124,99);
type = Stem;
},
{
place = (139,68);
type = Stem;
}
);
layerId = "481A290F-76EE-4968-957F-52614F4635C1";
shapes = (
{
closed = 1;
nodes = (
(223,665,o),
(198,698,o),
(174,698,cs),
(140,698,o),
(124,676,o),
(124,650,cs),
(124,622,o),
(148,590,o),
(174,590,cs),
(205,590,o),
(223,611,o),
(223,636,cs)
);
},
{
closed = 1;
nodes = (
(139,-31,ls),
(139,-72,o),
(126,-100,o),
(104,-100,cs),
(87,-100,o),
(69,-98,o),
(50,-75,cs),
(45,-69,o),
(39,-66,o),
(34,-66,cs),
(17,-66,o),
(1,-93,o),
(1,-112,cs),
(1,-137,o),
(43,-162,o),
(104,-162,cs),
(188,-162,o),
(207,-87,o),
(207,-30,cs),
(207,364,ls),
(207,388,o),
(209,441,o),
(209,457,cs),
(209,474,o),
(177,485,o),
(156,485,cs),
(144,485,o),
(136,482,o),
(136,475,cs),
(136,452,o),
(139,383,o),
(139,364,cs)
);
}
);
width = 301;
}
);
note = cid00075;
unicode = 106;
}
{
glyphname = m;
layers = (
{
anchors = (
{
name = bottom;
pos = (414,0);
},
{
name = top;
pos = (414,486);
}
);
hints = (
{
horizontal = 1;
place = (426,60);
type = Stem;
},
{
place = (91,66);
type = Stem;
},
{
place = (375,63);
type = Stem;
},
{
place = (658,66);
type = Stem;
},
{
place = (88,73);
type = Stem;
}
);
layerId = "481A290F-76EE-4968-957F-52614F4635C1";
shapes = (
{
closed = 1;
nodes = (
(658,105,ls),
(658,82,o),
(654,33,o),
(654,17,cs),
(654,0,o),
(686,-11,o),
(707,-11,cs),
(719,-11,o),
(727,-8,o),
(727,-1,cs),
(727,22,o),
(724,93,o),
(724,105,cs),
(724,297,ls),
(724,391,o),
(681,486,o),
(577,486,cs),
(519,486,o),
(458,454,o),
(424,393,c),
(412,442,o),
(376,486,o),
(301,486,cs),
(242,486,o),
(186,451,o),
(160,397,c),
(160,424,o),
(161,440,o),
(161,454,cs),
(161,471,o),
(129,482,o),
(108,482,cs),
(96,482,o),
(88,479,o),
(88,472,cs),
(88,449,o),
(91,375,o),
(91,356,cs),
(91,105,ls),
(91,91,o),
(89,33,o),
(89,17,cs),
(89,0,o),
(121,-11,o),
(142,-11,cs),
(154,-11,o),
(162,-8,o),
(162,-1,cs),
(162,22,o),
(157,64,o),
(157,105,cs),
(158,173,o),
(157,249,o),
(173,303,cs),
(203,403,o),
(259,426,o),
(301,426,cs),
(355,426,o),
(375,371,o),
(375,293,cs),
(375,105,ls),
(375,82,o),
(371,33,o),
(371,17,cs),
(371,0,o),
(402,-11,o),
(423,-11,cs),
(434,-11,o),
(443,-8,o),
(443,-1,cs),
(443,22,o),
(438,67,o),
(438,105,cs),
(438,268,ls),
(438,351,o),
(513,426,o),
(574,426,cs),
(633,426,o),
(658,373,o),
(658,293,cs)
);
}
);
width = 816;
}
);
note = cid00078;
unicode = 109;
}
{
glyphname = v;
layers = (
{
hints = (
{
horizontal = 1;
place = (-18,504);
type = Stem;
},
{
place = (29,436);
type = Stem;
}
);
layerId = "481A290F-76EE-4968-957F-52614F4635C1";
shapes = (
{
closed = 1;
nodes = (
(238,90,l),
(125,405,ls),
(117,426,o),
(111,452,o),
(107,467,cs),
(104,477,o),
(88,481,o),
(71,481,cs),
(51,481,o),
(29,475,o),
(29,463,cs),
(29,461,o),
(29,460,o),
(30,458,cs),
(42,433,o),
(53,411,o),
(61,389,cs),
(189,46,ls),
(200,20,o),
(200,12,o),
(211,1,cs),
(219,-8,o),
(234,-18,o),
(248,-18,cs),
(259,-18,o),
(268,-12,o),
(273,5,cs),
(279,25,o),
(287,46,o),
(295,65,cs),
(431,386,ls),
(438,403,o),
(453,433,o),
(463,451,cs),
(464,453,o),
(465,455,o),
(465,457,cs),
(465,473,o),
(433,486,o),
(411,486,cs),
(401,486,o),
(393,483,o),
(391,476,cs),
(384,451,o),
(377,427,o),
(368,405,cs)
);
}
);
width = 490;
}
);
note = cid00087;
unicode = 118;
}
{
glyphname = w;
layers = (
{
hints = (
{
horizontal = 1;
place = (-18,503);
type = Stem;
},
{
place = (25,680);
type = Stem;
},
{
place = (318,88);
type = Stem;
},
{
place = (632,73);
type = Stem;
}
);
layerId = "481A290F-76EE-4968-957F-52614F4635C1";
shapes = (
{
closed = 1;
nodes = (
(508,84,l),
(413,403,ls),
(409,416,o),
(408,430,o),
(406,445,cs),
(405,457,o),
(370,468,o),
(344,468,cs),
(330,468,o),
(319,464,o),
(318,456,cs),
(315,434,o),
(314,414,o),
(308,394,cs),
(200,84,l),
(114,408,ls),
(110,422,o),
(107,444,o),
(105,457,cs),
(103,471,o),
(80,478,o),
(60,478,cs),
(41,478,o),
(25,473,o),
(25,462,cs),
(25,461,o),
(25,459,o),
(26,458,c),
(34,438,o),
(43,414,o),
(48,399,cs),
(150,46,ls),
(158,21,o),
(157,12,o),
(168,1,cs),
(176,-8,o),
(195,-18,o),
(211,-18,cs),
(224,-18,o),
(236,-12,o),
(241,5,cs),
(247,26,o),
(251,42,o),
(259,65,cs),
(362,367,l),
(453,46,ls),
(458,28,o),
(458,12,o),
(469,1,cs),
(477,-8,o),
(497,-18,o),
(515,-18,cs),
(529,-18,o),
(541,-12,o),
(546,5,cs),
(552,27,o),
(559,49,o),
(564,65,cs),
(677,387,ls),
(683,404,o),
(695,433,o),
(704,454,cs),
(705,456,o),
(705,457,o),
(705,459,cs),
(705,473,o),
(676,485,o),
(654,485,cs),
(643,485,o),
(634,482,o),
(632,474,cs),
(627,450,o),
(621,424,o),
(615,406,cs)
);
}
);
width = 730;
}
);
note = cid00088;
unicode = 119;
}
{
glyphname = sterling;
layers = (
{
hints = (
{
horizontal = 1;
place = (-17,57);
type = Stem;
},
{
horizontal = 1;
place = (323,54);
type = Stem;
},
{
horizontal = 1;
place = (653,61);
type = Stem;
},
{
place = (170,70);
type = Stem;
},
{
horizontal = 1;
place = (315,56);
type = Stem;
},
{
horizontal = 1;
place = (-17,65);
type = Stem;
},
{
place = (187,67);
type = Stem;
},
{
horizontal = 1;
place = (15,60);
type = Stem;
}
);
layerId = "481A290F-76EE-4968-957F-52614F4635C1";
shapes = (
{
closed = 1;
nodes = (
(470,308,ls),
(497,308,o),
(526,308,o),
(543,307,cs),
(551,307,o),
(554,313,o),
(554,322,cs),
(554,341,o),
(540,370,o),
(523,370,cs),
(522,370,ls),
(507,369,o),
(469,366,o),
(439,365,cs),
(246,359,l),
(243,395,o),
(240,428,o),
(240,461,cs),
(240,544,o),
(272,638,o),
(367,638,cs),
(448,638,o),
(500,617,o),
(545,574,cs),
(548,571,o),
(553,569,o),
(558,569,cs),
(576,569,o),
(602,593,o),
(602,611,cs),
(602,616,o),
(600,621,o),
(596,624,cs),
(567,650,o),
(491,699,o),
(368,699,cs),
(253,699,o),
(170,604,o),
(170,463,cs),
(170,428,o),
(174,394,o),
(177,357,c),
(142,357,ls),
(111,357,o),
(73,358,o),
(61,358,cs),
(53,358,o),
(49,351,o),
(49,342,cs),
(49,324,o),
(64,295,o),
(80,295,cs),
(82,295,ls),
(101,297,o),
(135,299,o),
(165,300,cs),
(182,301,l),
(185,278,o),
(187,259,o),
(187,245,cs),
(187,184,o),
(179,125,o),
(153,75,cs),
(141,50,o),
(118,33,o),
(76,33,cs),
(67,33,ls),
(44,33,o),
(37,-11,o),
(37,-19,cs),
(37,-31,o),
(47,-32,o),
(68,-32,cs),
(115,-32,o),
(158,0,o),
(221,0,cs),
(339,0,o),
(448,-32,o),
(535,-32,cs),
(613,-32,o),
(672,22,o),
(672,42,cs),
(672,49,o),
(666,54,o),
(657,54,cs),
(650,54,o),
(642,52,o),
(633,47,cs),
(603,31,o),
(556,25,o),
(532,25,cs),
(468,25,o),
(296,60,o),
(226,60,cs),
(216,60,l),
(243,113,o),
(254,186,o),
(254,252,cs),
(254,266,o),
(253,283,o),
(251,302,c),
(440,308,l)
);
}
);
width = 713;
}
);
note = cid00103;
unicode = 163;
}
{
glyphname = copyright;
layers = (
{
hints = (
{
horizontal = 1;
place = (-7,53);
type = Stem;
},
{
horizontal = 1;
place = (121,56);
type = Stem;
},
{
horizontal = 1;
place = (504,57);
type = Stem;
},
{
horizontal = 1;
place = (626,53);
type = Stem;
},
{
place = (48,54);
type = Stem;
},
{
place = (197,66);
type = Stem;
},
{
place = (682,53);
type = Stem;
}
);
layerId = "481A290F-76EE-4968-957F-52614F4635C1";
shapes = (
{
closed = 1;
nodes = (
(735,510,o),
(580,664,o),
(391,664,cs),
(202,664,o),
(48,510,o),
(48,321,cs),
(48,132,o),
(202,-22,o),
(391,-22,cs),
(580,-22,o),
(735,132,o),
(735,321,cs)
);
},
{
closed = 1;
nodes = (
(682,161,o),
(552,31,o),
(392,31,cs),
(232,31,o),
(102,161,o),
(102,321,cs),
(102,481,o),
(232,611,o),
(392,611,cs),
(552,611,o),
(682,481,o),
(682,321,cs)
);
},
{
closed = 1;
nodes = (
(556,204,o),
(558,210,o),
(558,215,cs),
(558,222,o),
(553,226,o),
(546,226,cs),
(541,226,o),
(534,223,o),
(528,218,cs),
(479,178,o),
(433,162,o),
(369,162,cs),
(322,162,o),
(263,200,o),
(263,296,cs),
(263,405,o),
(347,489,o),
(427,489,cs),
(445,489,o),
(462,483,o),
(479,471,cs),
(492,462,o),
(497,447,o),
(506,431,cs),
(508,428,o),
(511,426,o),
(515,426,cs),
(529,426,o),
(553,451,o),
(553,470,cs),
(553,483,o),
(519,546,o),
(425,546,cs),
(315,546,o),
(197,433,o),
(197,291,cs),
(197,175,o),
(276,106,o),
(369,106,cs),
(456,106,o),
(507,131,o),
(551,197,cs)
);
}
);
width = 780;
}
);
note = cid00152;
unicode = 169;
}
{
glyphname = plusminus;
layers = (
{
hints = (
{
horizontal = 1;
place = (11,62);
type = Stem;
},
{
horizontal = 1;
place = (285,62);
type = Stem;
},
{
place = (267,62);
type = Stem;
}
);
layerId = "481A290F-76EE-4968-957F-52614F4635C1";
shapes = (
{
closed = 1;
nodes = (
(530,350,ls),
(502,348,o),
(481,347,o),
(460,347,cs),
(329,347,l),
(329,401,ls),
(329,425,o),
(330,460,o),
(332,476,cs),
(332,478,ls),
(332,492,o),
(310,501,o),
(291,501,cs),
(277,501,o),
(265,496,o),
(265,482,cs),
(266,462,o),
(267,432,o),
(267,400,cs),
(267,347,l),
(141,347,ls),
(109,347,o),
(79,348,o),
(59,349,cs),
(45,349,o),
(40,337,o),
(40,323,cs),
(40,304,o),
(49,282,o),
(63,282,cs),
(65,282,ls),
(81,284,o),
(116,285,o),
(140,285,cs),
(267,285,l),
(267,205,ls),
(267,189,o),
(266,163,o),
(264,135,cs),
(264,133,ls),
(264,117,o),
(284,109,o),
(302,109,cs),
(316,109,o),
(330,115,o),
(330,128,cs),
(330,159,o),
(329,187,o),
(329,206,cs),
(329,285,l),
(459,285,ls),
(480,285,o),
(509,283,o),
(540,283,cs),
(553,283,o),
(558,295,o),
(558,308,cs),
(558,327,o),
(547,350,o),
(531,350,cs)
);
},
{
closed = 1;
nodes = (
(530,76,ls),
(502,74,o),
(481,73,o),
(460,73,cs),
(141,73,ls),
(109,73,o),
(79,74,o),
(59,75,cs),
(45,75,o),
(40,63,o),
(40,49,cs),
(40,30,o),
(49,8,o),
(63,8,cs),
(65,8,ls),
(81,10,o),
(116,11,o),
(140,11,cs),
(459,11,ls),
(480,11,o),
(509,9,o),
(540,9,cs),
(553,9,o),
(558,21,o),
(558,34,cs),
(558,53,o),
(547,76,o),
(531,76,cs)
);
}
);
width = 600;
}
);
note = cid00156;
unicode = 177;
}
{
glyphname = threesuperior;
layers = (
{
hints = (
{
horizontal = 1;
place = (321,58);
type = Stem;
},
{
horizontal = 1;
place = (654,56);
type = Stem;
},
{
place = (260,59);
type = Stem;
},
{
place = (248,58);
type = Stem;
}
);
layerId = "481A290F-76EE-4968-957F-52614F4635C1";
shapes = (
{
closed = 1;
nodes = (
(286,542,o),
(306,573,o),
(306,606,cs),
(306,662,o),
(268,695,o),
(198,695,cs),
(126,695,o),
(73,648,o),
(73,628,cs),
(73,610,o),
(90,587,o),
(101,587,cs),
(109,587,o),
(117,594,o),
(124,602,cs),
(144,629,o),
(166,639,o),
(199,639,cs),
(232,639,o),
(248,629,o),
(248,604,cs),
(248,557,o),
(174,538,o),
(137,535,cs),
(128,534,o),
(125,527,o),
(125,518,cs),
(125,502,o),
(138,480,o),
(152,480,cs),
(154,480,o),
(155,481,o),
(157,481,c),
(169,485,o),
(188,488,o),
(200,488,cs),
(238,488,o),
(260,467,o),
(260,432,cs),
(260,390,o),
(234,364,o),
(178,364,cs),
(147,364,o),
(118,376,o),
(96,400,cs),
(91,405,o),
(86,407,o),
(82,407,cs),
(67,407,o),
(52,385,o),
(52,368,cs),
(52,344,o),
(117,306,o),
(178,306,cs),
(280,306,o),
(319,363,o),
(319,436,cs),
(319,477,o),
(292,512,o),
(257,525,c)
);
}
);
width = 380;
}
);
note = cid00158;
unicode = 179;
}
{
glyphname = micro;
layers = (
{
hints = (
{
horizontal = 1;
place = (-18,62);
type = Stem;
},
{
place = (92,67);
type = Stem;
},
{
place = (427,61);
type = Stem;
}
);
layerId = "481A290F-76EE-4968-957F-52614F4635C1";
shapes = (
{
closed = 1;
nodes = (
(92,-78,ls),
(92,-92,o),
(90,-150,o),
(90,-166,cs),
(90,-183,o),
(120,-194,o),
(141,-194,cs),
(152,-194,o),
(161,-191,o),
(161,-184,cs),
(161,-161,o),
(158,-90,o),
(158,-78,cs),
(158,16,l),
(176,-10,o),
(209,-33,o),
(248,-33,cs),
(332,-33,o),
(393,21,o),
(429,92,c),
(433,44,o),
(454,-28,o),
(484,-28,cs),
(506,-28,o),
(528,-1,o),
(528,14,cs),
(528,16,o),
(527,18,o),
(526,20,cs),
(488,81,o),
(488,200,o),
(488,222,cs),
(488,336,o),
(496,418,o),
(500,442,cs),
(500,444,ls),
(500,460,o),
(469,470,o),
(447,470,cs),
(436,470,o),
(427,467,o),
(427,460,cs),
(427,437,o),
(426,327,o),
(424,286,cs),
(416,133,o),
(338,29,o),
(248,29,cs),
(185,29,o),
(159,97,o),
(159,168,cs),
(159,353,ls),
(159,376,o),
(161,425,o),
(161,441,cs),
(161,458,o),
(130,469,o),
(108,469,cs),
(97,469,o),
(89,466,o),
(89,459,cs),
(89,436,o),
(92,365,o),
(92,353,cs)
);
}
);
width = 590;
}
);
note = cid00159;
unicode = 181;
}
{
glyphname = onequarter;
layers = (
{
hints = (
{
horizontal = 1;
place = (78,62);
type = Stem;
},
{
place = (145,59);
type = Stem;
},
{
place = (557,57);
type = Stem;
},
{
horizontal = 1;
place = (86,62);
type = Stem;
},
{
place = (555,30);
type = Stem;
}
);
layerId = "481A290F-76EE-4968-957F-52614F4635C1";
shapes = (
{
closed = 1;
nodes = (
(206,326,ls),
(204,355,o),
(204,394,o),
(204,416,cs),
(204,603,ls),
(204,626,o),
(208,647,o),
(208,660,cs),
(208,677,o),
(183,694,o),
(170,694,cs),
(158,694,o),
(142,669,o),
(135,663,cs),
(112,645,o),
(90,627,o),
(62,616,cs),
(56,613,o),
(53,609,o),
(53,605,cs),
(53,593,o),
(72,578,o),
(88,578,cs),
(90,578,o),
(92,578,o),
(94,579,c),
(112,582,o),
(126,590,o),
(145,602,c),
(145,411,ls),
(145,394,o),
(143,357,o),
(143,341,cs),
(143,340,ls),
(143,322,o),
(167,310,o),
(186,310,cs),
(197,310,o),
(206,315,o),
(206,325,cs)
);
},
{
closed = 1;
nodes = (
(133,61,ls),
(123,45,o),
(109,25,o),
(97,10,cs),
(94,6,o),
(93,2,o),
(93,-3,cs),
(93,-24,o),
(117,-50,o),
(133,-50,cs),
(139,-50,o),
(143,-47,o),
(146,-41,cs),
(156,-20,o),
(168,5,o),
(179,24,cs),
(522,594,ls),
(532,610,o),
(549,637,o),
(565,660,cs),
(566,662,o),
(567,664,o),
(567,667,cs),
(567,684,o),
(542,716,o),
(524,716,cs),
(518,716,o),
(513,712,o),
(509,703,cs),
(498,679,o),
(483,647,o),
(472,629,cs)
);
},
{
closed = 1;
nodes = (
(670,71,ls),
(679,71,o),
(683,80,o),
(683,92,cs),
(683,110,o),
(673,133,o),
(658,133,cs),
(653,133,o),
(627,131,o),
(614,130,c),
(614,214,ls),
(614,226,o),
(615,252,o),
(615,260,cs),
(615,273,o),
(593,281,o),
(577,281,cs),
(564,281,o),
(555,277,o),
(555,269,cs),
(555,256,o),
(557,225,o),
(557,214,cs),
(557,127,l),
(456,124,l),
(492,179,o),
(532,243,o),
(561,292,cs),
(565,299,o),
(573,310,o),
(581,321,cs),
(584,325,o),
(585,328,o),
(585,332,cs),
(585,351,o),
(561,372,o),
(545,372,cs),
(540,372,o),
(536,370,o),
(533,364,cs),
(512,318,o),
(456,223,o),
(400,143,cs),
(395,136,o),
(388,129,o),
(382,120,cs),
(378,114,o),
(378,108,o),
(378,102,cs),
(378,80,o),
(398,60,o),
(416,60,cs),
(418,60,l),
(426,62,o),
(432,63,o),
(436,63,cs),
(557,69,l),
(557,56,ls),
(557,49,o),
(556,9,o),
(556,1,cs),
(556,-15,o),
(577,-24,o),
(593,-24,cs),
(605,-24,o),
(616,-19,o),
(616,-9,cs),
(616,2,o),
(614,33,o),
(614,55,cs),
(614,71,l)
);
}
);
width = 730;
}
);
note = cid00161;
unicode = 188;
}
{
glyphname = Eth;
layers = (
{
hints = (
{
horizontal = 1;
place = (-8,48);
type = Stem;
},
{
horizontal = 1;
place = (306,60);
type = Stem;
},
{
horizontal = 1;
place = (651,61);
type = Stem;
},
{
place = (106,70);
type = Stem;
},
{
place = (602,71);
type = Stem;
},
{
horizontal = 1;
place = (299,63);
type = Stem;
}
);
layerId = "481A290F-76EE-4968-957F-52614F4635C1";
shapes = (
{
closed = 1;
nodes = (
(183,-8,ls),
(244,-7,o),
(306,-4,o),
(374,8,cs),
(520,34,o),
(673,140,o),
(673,357,cs),
(673,573,o),
(502,712,o),
(303,712,cs),
(234,712,o),
(112,697,o),
(73,681,cs),
(68,679,o),
(66,674,o),
(66,669,cs),
(66,654,o),
(87,630,o),
(106,626,c),
(106,362,l),
(41,362,ls),
(30,362,o),
(26,351,o),
(26,339,cs),
(26,321,o),
(35,299,o),
(46,299,cs),
(47,299,l),
(106,302,l),
(106,34,l),
(64,34,o),
(51,27,o),
(51,15,cs),
(51,6,o),
(61,-8,o),
(169,-8,cs)
);
},
{
closed = 1;
nodes = (
(410,306,ls),
(420,306,o),
(424,316,o),
(424,329,cs),
(424,347,o),
(415,369,o),
(404,369,cs),
(403,369,ls),
(377,368,o),
(354,366,o),
(331,366,cs),
(176,363,l),
(176,635,l),
(216,646,o),
(254,651,o),
(298,651,cs),
(445,651,o),
(602,544,o),
(602,358,cs),
(602,180,o),
(470,45,o),
(176,40,c),
(176,303,l),
(332,306,l)
);
}
);
width = 728;
}
);
note = cid00179;
unicode = 208;
}
{
glyphname = Ntilde;
layers = (
{
hints = (
{
horizontal = 1;
place = (759,57);
type = Stem;
},
{
place = (106,69);
type = Stem;
},
{
place = (566,69);
type = Stem;
},
{
horizontal = 1;
place = (810,57);
type = Stem;
}
);
layerId = "481A290F-76EE-4968-957F-52614F4635C1";
shapes = (
{
closed = 1;
nodes = (
(525,849,o),
(525,851,o),
(525,853,cs),
(525,864,o),
(517,870,o),
(510,870,cs),
(504,870,o),
(498,866,o),
(494,858,cs),
(479,827,o),
(459,816,o),
(431,816,cs),
(396,816,o),
(372,867,o),
(312,867,cs),
(251,867,o),
(216,800,o),
(216,773,cs),
(216,762,o),
(224,756,o),
(231,756,cs),
(237,756,o),
(243,760,o),
(247,768,cs),
(262,799,o),
(282,810,o),
(310,810,cs),
(344,810,o),
(369,759,o),
(429,759,cs),
(480,759,o),
(514,804,o),
(524,846,cs)
);
},
{
closed = 1;
nodes = (
(566,104,l),
(453,260,o),
(316,472,o),
(191,682,cs),
(184,693,o),
(180,705,o),
(168,707,cs),
(165,708,o),
(163,708,o),
(159,708,cs),
(139,708,o),
(106,698,o),
(100,683,c),
(99,682,o),
(99,680,o),
(99,678,cs),
(99,668,o),
(106,653,o),
(106,641,cs),
(106,106,ls),
(106,71,o),
(104,33,o),
(104,17,cs),
(104,0,o),
(136,-11,o),
(158,-11,cs),
(169,-11,o),
(178,-8,o),
(178,-1,cs),
(178,22,o),
(175,64,o),
(175,105,cs),
(175,579,l),
(275,409,o),
(421,189,o),
(537,26,cs),
(547,11,o),
(559,-13,o),
(580,-13,cs),
(604,-13,o),
(639,12,o),
(639,32,cs),
(639,44,o),
(635,75,o),
(635,87,cs),
(635,588,ls),
(635,623,o),
(637,661,o),
(637,677,cs),
(637,694,o),
(605,705,o),
(583,705,cs),
(571,705,o),
(562,702,o),
(562,695,cs),
(562,672,o),
(566,630,o),
(566,589,cs)
);
}
);
width = 738;
}
);
note = cid00180;
unicode = 209;
}
{
glyphname = agrave;
kernLeft = a;
kernRight = a;
layers = (
{
hints = (
{
horizontal = 1;
place = (-18,60);
type = Stem;
},
{
horizontal = 1;
place = (428,58);
type = Stem;
},
{
place = (56,68);
type = Stem;
},
{
place = (415,61);
type = Stem;
},
{
place = (413,76);
type = Stem;
}
);
layerId = "481A290F-76EE-4968-957F-52614F4635C1";
shapes = (
{
closed = 1;
nodes = (
(390,602,o),
(363,630,o),
(240,712,cs),
(238,713,o),
(236,713,o),
(234,713,cs),
(215,713,o),
(175,678,o),
(175,659,cs),
(175,654,o),
(177,651,o),
(182,649,cs),
(248,625,o),
(317,604,o),
(362,577,cs),
(366,575,o),
(369,574,o),
(373,574,cs),
(383,574,o),
(390,582,o),
(390,591,cs)
);
},
{
closed = 1;
nodes = (
(489,459,ls),
(489,475,o),
(457,485,o),
(434,485,cs),
(422,485,o),
(413,482,o),
(413,475,cs),
(413,420,l),
(390,466,o),
(350,486,o),
(303,486,cs),
(180,486,o),
(56,345,o),
(56,175,cs),
(56,49,o),
(120,-18,o),
(217,-18,cs),
(292,-18,o),
(365,24,o),
(415,118,c),
(420,63,o),
(438,-13,o),
(469,-13,cs),
(491,-13,o),
(513,14,o),
(513,29,cs),
(513,31,o),
(512,33,o),
(511,35,cs),
(476,89,o),
(476,164,o),
(476,193,cs),
(476,242,o),
(480,399,o),
(489,457,cs)
);
},
{
closed = 1;
nodes = (
(411,347,o),
(411,310,o),
(410,291,cs),
(403,143,o),
(311,42,o),
(216,42,cs),
(163,42,o),
(124,79,o),
(124,180,cs),
(124,322,o),
(221,428,o),
(303,428,cs),
(333,428,o),
(365,413,o),
(388,375,cs),
(390,372,o),
(392,371,o),
(395,371,cs),
(400,371,o),
(407,375,o),
(412,380,c)
);
}
);
width = 575;
}
);
note = cid00193;
unicode = 224;
}
{
glyphname = acircumflex;
kernLeft = a;
kernRight = a;
layers = (
{
hints = (
{
horizontal = 1;
place = (-18,60);
type = Stem;
},
{
horizontal = 1;
place = (428,58);
type = Stem;
},
{
place = (56,68);
type = Stem;
},
{
place = (415,61);
type = Stem;
},
{
place = (413,76);
type = Stem;
}
);
layerId = "481A290F-76EE-4968-957F-52614F4635C1";
shapes = (
{
closed = 1;
nodes = (
(338,627,o),
(386,598,o),
(419,570,cs),
(423,566,o),
(428,565,o),
(432,565,cs),
(442,565,o),
(450,572,o),
(450,581,cs),
(450,598,o),
(364,682,o),
(332,713,cs),
(324,721,o),
(305,725,o),
(288,725,cs),
(272,725,o),
(257,722,o),
(250,716,cs),
(202,671,o),
(131,594,o),
(131,581,cs),
(131,572,o),
(139,565,o),
(149,565,cs),
(153,565,o),
(158,566,o),
(162,570,cs),
(195,598,o),
(244,627,o),
(291,657,c)
);
},
{
closed = 1;
nodes = (
(489,459,ls),
(489,475,o),
(457,485,o),
(434,485,cs),
(422,485,o),
(413,482,o),
(413,475,cs),
(413,420,l),
(390,466,o),
(350,486,o),
(303,486,cs),
(180,486,o),
(56,345,o),
(56,175,cs),
(56,49,o),
(120,-18,o),
(217,-18,cs),
(292,-18,o),
(365,24,o),
(415,118,c),
(420,63,o),
(438,-13,o),
(469,-13,cs),
(491,-13,o),
(513,14,o),
(513,29,cs),
(513,31,o),
(512,33,o),
(511,35,cs),
(476,89,o),
(476,164,o),
(476,193,cs),
(476,242,o),
(480,399,o),
(489,457,cs)
);
},
{
closed = 1;
nodes = (
(411,347,o),
(411,310,o),
(410,291,cs),
(403,143,o),
(311,42,o),
(216,42,cs),
(163,42,o),
(124,79,o),
(124,180,cs),
(124,322,o),
(221,428,o),
(303,428,cs),
(333,428,o),
(365,413,o),
(388,375,cs),
(390,372,o),
(392,371,o),
(395,371,cs),
(400,371,o),
(407,375,o),
(412,380,c)
);
}
);
width = 575;
}
);
note = cid00195;
unicode = 226;
}
{
glyphname = adieresis;
kernLeft = a;
kernRight = a;
layers = (
{
hints = (
{
horizontal = 1;
place = (-18,60);
type = Stem;
},
{
horizontal = 1;
place = (428,58);
type = Stem;
},
{
horizontal = 1;
place = (592,109);
type = Stem;
},
{
place = (56,68);
type = Stem;
},
{
place = (146,101);
type = Stem;
},
{
place = (329,101);
type = Stem;
},
{
place = (415,61);
type = Stem;
},
{
place = (413,76);
type = Stem;
}
);
layerId = "481A290F-76EE-4968-957F-52614F4635C1";
shapes = (
{
closed = 1;
nodes = (
(412,592,o),
(430,611,o),
(430,639,cs),
(430,669,o),
(401,701,o),
(375,701,cs),
(346,701,o),
(329,682,o),
(329,653,cs),
(329,626,o),
(355,592,o),
(385,592,cs)
);
},
{
closed = 1;
nodes = (
(229,592,o),
(247,611,o),
(247,639,cs),
(247,669,o),
(218,701,o),
(192,701,cs),
(163,701,o),
(146,682,o),
(146,653,cs),
(146,626,o),
(172,592,o),
(202,592,cs)
);
},
{
closed = 1;
nodes = (
(489,459,ls),
(489,475,o),
(457,485,o),
(434,485,cs),
(422,485,o),
(413,482,o),
(413,475,cs),
(413,420,l),
(390,466,o),
(350,486,o),
(303,486,cs),
(180,486,o),
(56,345,o),
(56,175,cs),
(56,49,o),
(120,-18,o),
(217,-18,cs),
(292,-18,o),
(365,24,o),
(415,118,c),
(420,63,o),
(438,-13,o),
(469,-13,cs),
(491,-13,o),
(513,14,o),
(513,29,cs),
(513,31,o),
(512,33,o),
(511,35,cs),
(476,89,o),
(476,164,o),
(476,193,cs),
(476,242,o),
(480,399,o),
(489,457,cs)
);
},
{
closed = 1;
nodes = (
(411,347,o),
(411,310,o),
(410,291,cs),
(403,143,o),
(311,42,o),
(216,42,cs),
(163,42,o),
(124,79,o),
(124,180,cs),
(124,322,o),
(221,428,o),
(303,428,cs),
(333,428,o),
(365,413,o),
(388,375,cs),
(390,372,o),
(392,371,o),
(395,371,cs),
(400,371,o),
(407,375,o),
(412,380,c)
);
}
);
width = 575;
}
);
note = cid00197;
unicode = 228;
}
{
glyphname = otilde;
kernLeft = o;
kernRight = o;
layers = (
{
hints = (
{
horizontal = 1;
place = (-18,61);
type = Stem;
},
{
horizontal = 1;
place = (426,60);
type = Stem;
},
{
horizontal = 1;
place = (592,57);
type = Stem;
},
{
place = (56,67);
type = Stem;
},
{
place = (439,67);
type = Stem;
},
{
horizontal = 1;
place = (643,57);
type = Stem;
}
);
layerId = "481A290F-76EE-4968-957F-52614F4635C1";
shapes = (
{
closed = 1;
nodes = (
(452,682,o),
(452,684,o),
(452,686,cs),
(452,697,o),
(444,703,o),
(437,703,cs),
(431,703,o),
(425,699,o),
(421,691,cs),
(406,660,o),
(386,649,o),
(358,649,cs),
(323,649,o),
(299,700,o),
(239,700,cs),
(178,700,o),
(143,633,o),
(143,606,cs),
(143,595,o),
(151,589,o),
(158,589,cs),
(164,589,o),
(170,593,o),
(174,601,cs),
(189,632,o),
(209,643,o),
(237,643,cs),
(271,643,o),
(296,592,o),
(356,592,cs),
(407,592,o),
(441,637,o),
(451,679,cs)
);
},
{
closed = 1;
nodes = (
(190,450,o),
(184,454,o),
(177,454,cs),
(147,454,o),
(56,324,o),
(56,207,cs),
(56,68,o),
(133,-18,o),
(267,-18,cs),
(422,-18,o),
(506,117,o),
(506,245,cs),
(506,396,o),
(426,486,o),
(312,486,cs),
(256,486,o),
(220,465,o),
(194,445,c)
);
},
{
closed = 1;
nodes = (
(175,43,o),
(123,98,o),
(123,208,cs),
(123,312,o),
(200,426,o),
(306,426,cs),
(397,426,o),
(439,355,o),
(439,245,cs),
(439,130,o),
(364,43,o),
(267,43,cs)
);
}
);
width = 562;
}
);
note = cid00213;
unicode = 245;
}
{
glyphname = ugrave;
kernLeft = u;
kernRight = u;
layers = (
{
hints = (
{
horizontal = 1;
place = (-18,60);
type = Stem;
},
{
place = (92,68);
type = Stem;
},
{
place = (426,62);
type = Stem;
}
);
layerId = "481A290F-76EE-4968-957F-52614F4635C1";
shapes = (
{
closed = 1;
nodes = (
(397,602,o),
(370,630,o),
(247,712,cs),
(245,713,o),
(243,713,o),
(241,713,cs),
(222,713,o),
(182,678,o),
(182,659,cs),
(182,654,o),
(184,651,o),
(189,649,cs),
(255,625,o),
(324,604,o),
(369,577,cs),
(373,575,o),
(376,574,o),
(380,574,cs),
(390,574,o),
(397,582,o),
(397,591,cs)
);
},
{
closed = 1;
nodes = (
(500,459,ls),
(500,475,o),
(469,485,o),
(447,485,cs),
(435,485,o),
(426,482,o),
(426,475,cs),
(426,395,ls),
(426,359,o),
(426,322,o),
(425,301,cs),
(417,148,o),
(324,42,o),
(242,42,cs),
(188,42,o),
(160,97,o),
(160,175,cs),
(160,368,ls),
(160,391,o),
(162,440,o),
(162,456,cs),
(162,473,o),
(130,484,o),
(109,484,cs),
(97,484,o),
(89,481,o),
(89,474,cs),
(89,451,o),
(92,380,o),
(92,368,cs),
(92,171,ls),
(92,74,o),
(126,-18,o),
(242,-18,cs),
(324,-18,o),
(396,41,o),
(432,114,c),
(435,73,o),
(449,-13,o),
(483,-13,cs),
(505,-13,o),
(527,14,o),
(527,29,cs),
(527,31,o),
(527,33,o),
(526,35,cs),
(488,96,o),
(488,215,o),
(488,237,cs),
(488,351,o),
(496,433,o),
(500,457,cs)
);
}
);
width = 590;
}
);
note = cid00216;
unicode = 249;
}
{
glyphname = ucircumflex;
kernLeft = u;
kernRight = u;
layers = (
{
hints = (
{
horizontal = 1;
place = (-18,60);
type = Stem;
},
{
place = (92,68);
type = Stem;
},
{
place = (426,62);
type = Stem;
}
);
layerId = "481A290F-76EE-4968-957F-52614F4635C1";
shapes = (
{
closed = 1;
nodes = (
(345,627,o),
(393,598,o),
(426,570,cs),
(430,566,o),
(435,565,o),
(439,565,cs),
(449,565,o),
(457,572,o),
(457,581,cs),
(457,598,o),
(371,682,o),
(339,713,cs),
(331,721,o),
(312,725,o),
(295,725,cs),
(279,725,o),
(264,722,o),
(257,716,cs),
(209,671,o),
(138,594,o),
(138,581,cs),
(138,572,o),
(146,565,o),
(156,565,cs),
(160,565,o),
(165,566,o),
(169,570,cs),
(202,598,o),
(251,627,o),
(298,657,c)
);
},
{
closed = 1;
nodes = (
(500,459,ls),
(500,475,o),
(469,485,o),
(447,485,cs),
(435,485,o),
(426,482,o),
(426,475,cs),
(426,395,ls),
(426,359,o),
(426,322,o),
(425,301,cs),
(417,148,o),
(324,42,o),
(242,42,cs),
(188,42,o),
(160,97,o),
(160,175,cs),
(160,368,ls),
(160,391,o),
(162,440,o),
(162,456,cs),
(162,473,o),
(130,484,o),
(109,484,cs),
(97,484,o),
(89,481,o),
(89,474,cs),
(89,451,o),
(92,380,o),
(92,368,cs),
(92,171,ls),
(92,74,o),
(126,-18,o),
(242,-18,cs),
(324,-18,o),
(396,41,o),
(432,114,c),
(435,73,o),
(449,-13,o),
(483,-13,cs),
(505,-13,o),
(527,14,o),
(527,29,cs),
(527,31,o),
(527,33,o),
(526,35,cs),
(488,96,o),
(488,215,o),
(488,237,cs),
(488,351,o),
(496,433,o),
(500,457,cs)
);
}
);
width = 590;
}
);
note = cid00218;
unicode = 251;
}
{
glyphname = omacron;
kernLeft = o;
kernRight = o;
layers = (
{
hints = (
{
horizontal = 1;
place = (-18,61);
type = Stem;
},
{
horizontal = 1;
place = (426,60);
type = Stem;
},
{
horizontal = 1;
place = (617,62);
type = Stem;
},
{
place = (56,67);
type = Stem;
},
{
place = (439,67);
type = Stem;
}
);
layerId = "481A290F-76EE-4968-957F-52614F4635C1";
shapes = (
{
closed = 1;
nodes = (
(415,617,ls),
(428,617,o),
(434,633,o),
(434,648,cs),
(434,664,o),
(428,679,o),
(416,679,cs),
(188,679,ls),
(175,679,o),
(169,664,o),
(169,649,cs),
(169,633,o),
(175,617,o),
(187,617,cs)
);
},
{
closed = 1;
nodes = (
(190,450,o),
(184,454,o),
(177,454,cs),
(147,454,o),
(56,324,o),
(56,207,cs),
(56,68,o),
(133,-18,o),
(267,-18,cs),
(422,-18,o),
(506,117,o),
(506,245,cs),
(506,396,o),
(426,486,o),
(312,486,cs),
(256,486,o),
(220,465,o),
(194,445,c)
);
},
{
closed = 1;
nodes = (
(175,43,o),
(123,98,o),
(123,208,cs),
(123,312,o),
(200,426,o),
(306,426,cs),
(397,426,o),
(439,355,o),
(439,245,cs),
(439,130,o),
(364,43,o),
(267,43,cs)
);
}
);
width = 562;
}
);
note = cid09365;
unicode = 333;
}
{
glyphname = Scaron;
layers = (
{
hints = (
{
horizontal = 1;
place = (-18,63);
type = Stem;
},
{
horizontal = 1;
place = (650,63);
type = Stem;
},
{
place = (75,71);
type = Stem;
},
{
place = (489,71);
type = Stem;
}
);
layerId = "481A290F-76EE-4968-957F-52614F4635C1";
shapes = (
{
closed = 1;
nodes = (
(264,834,o),
(215,863,o),
(182,891,cs),
(178,895,o),
(173,896,o),
(169,896,cs),
(159,896,o),
(151,889,o),
(151,880,cs),
(151,867,o),
(222,790,o),
(270,745,cs),
(277,739,o),
(292,736,o),
(308,736,cs),
(325,736,o),
(344,740,o),
(352,748,cs),
(384,779,o),
(470,863,o),
(470,880,cs),
(470,889,o),
(462,896,o),
(452,896,cs),
(448,896,o),
(443,895,o),
(439,891,cs),
(406,863,o),
(358,834,o),
(311,804,c)
);
},
{
closed = 1;
nodes = (
(351,339,ls),
(442,315,o),
(489,269,o),
(489,184,cs),
(489,106,o),
(399,45,o),
(302,45,cs),
(259,45,o),
(156,49,o),
(93,152,cs),
(90,157,o),
(86,159,o),
(81,159,cs),
(64,159,o),
(42,130,o),
(42,107,cs),
(42,101,o),
(43,95,o),
(47,91,cs),
(109,20,o),
(189,-18,o),
(301,-18,cs),
(466,-18,o),
(560,75,o),
(560,192,cs),
(560,299,o),
(499,368,o),
(370,402,cs),
(261,430,ls),
(178,449,o),
(146,479,o),
(146,524,cs),
(146,587,o),
(220,650,o),
(317,650,cs),
(362,650,o),
(437,625,o),
(473,580,cs),
(479,573,o),
(489,561,o),
(499,561,cs),
(510,561,o),
(525,582,o),
(525,613,cs),
(525,654,o),
(425,713,o),
(314,713,cs),
(177,713,o),
(75,622,o),
(75,526,cs),
(75,437,o),
(136,392,o),
(234,370,cs)
);
}
);
width = 617;
}
);
note = cid00223;
unicode = 352;
}
{
glyphname = utilde;
kernLeft = u;
kernRight = u;
layers = (
{
hints = (
{
horizontal = 1;
place = (-18,60);
type = Stem;
},
{
horizontal = 1;
place = (591,57);
type = Stem;
},
{
place = (92,68);
type = Stem;
},
{
place = (426,62);
type = Stem;
},
{
horizontal = 1;
place = (642,57);
type = Stem;
}
);
layerId = "481A290F-76EE-4968-957F-52614F4635C1";
shapes = (
{
closed = 1;
nodes = (
(451,681,o),
(451,683,o),
(451,685,cs),
(451,696,o),
(443,702,o),
(436,702,cs),
(430,702,o),
(424,698,o),
(420,690,cs),
(405,659,o),
(385,648,o),
(357,648,cs),
(322,648,o),
(298,699,o),
(238,699,cs),
(177,699,o),
(142,632,o),
(142,605,cs),
(142,594,o),
(150,588,o),
(157,588,cs),
(163,588,o),
(169,592,o),
(173,600,cs),
(188,631,o),
(208,642,o),
(236,642,cs),
(270,642,o),
(295,591,o),
(355,591,cs),
(406,591,o),
(440,636,o),
(450,678,cs)
);
},
{
closed = 1;
nodes = (
(500,459,ls),
(500,475,o),
(469,485,o),
(447,485,cs),
(435,485,o),
(426,482,o),
(426,475,cs),
(426,395,ls),
(426,359,o),
(426,322,o),
(425,301,cs),
(417,148,o),
(324,42,o),
(242,42,cs),
(188,42,o),
(160,97,o),
(160,175,cs),
(160,368,ls),
(160,391,o),
(162,440,o),
(162,456,cs),
(162,473,o),
(130,484,o),
(109,484,cs),
(97,484,o),
(89,481,o),
(89,474,cs),
(89,451,o),
(92,380,o),
(92,368,cs),
(92,171,ls),
(92,74,o),
(126,-18,o),
(242,-18,cs),
(324,-18,o),
(396,41,o),
(432,114,c),
(435,73,o),
(449,-13,o),
(483,-13,cs),
(505,-13,o),
(527,14,o),
(527,29,cs),
(527,31,o),
(527,33,o),
(526,35,cs),
(488,96,o),
(488,215,o),
(488,237,cs),
(488,351,o),
(496,433,o),
(500,457,cs)
);
}
);
width = 590;
}
);
note = cid09417;
unicode = 361;
}
{
glyphname = uring;
layers = (
{
hints = (
{
horizontal = 1;
place = (-18,60);
type = Stem;
},
{
horizontal = 1;
place = (552,48);
type = Stem;
},
{
horizontal = 1;
place = (692,48);
type = Stem;
},
{
place = (92,68);
type = Stem;
},
{
place = (202,48);
type = Stem;
},
{
place = (342,48);
type = Stem;
},
{
place = (426,62);
type = Stem;
}
);
layerId = "481A290F-76EE-4968-957F-52614F4635C1";
shapes = (
{
closed = 1;
nodes = (
(390,697,o),
(347,740,o),
(296,740,cs),
(245,740,o),
(202,697,o),
(202,646,cs),
(202,595,o),
(245,552,o),
(296,552,cs),
(347,552,o),
(390,595,o),
(390,646,cs)
);
},
{
closed = 1;
nodes = (
(500,459,ls),
(500,475,o),
(469,485,o),
(447,485,cs),
(435,485,o),
(426,482,o),
(426,475,cs),
(426,395,ls),
(426,359,o),
(426,322,o),
(425,301,cs),
(417,148,o),
(324,42,o),
(242,42,cs),
(188,42,o),
(160,97,o),
(160,175,cs),
(160,368,ls),
(160,391,o),
(162,440,o),
(162,456,cs),
(162,473,o),
(130,484,o),
(109,484,cs),
(97,484,o),
(89,481,o),
(89,474,cs),
(89,451,o),
(92,380,o),
(92,368,cs),
(92,171,ls),
(92,74,o),
(126,-18,o),
(242,-18,cs),
(324,-18,o),
(396,41,o),
(432,114,c),
(435,73,o),
(449,-13,o),
(483,-13,cs),
(505,-13,o),
(527,14,o),
(527,29,cs),
(527,31,o),
(527,33,o),
(526,35,cs),
(488,96,o),
(488,215,o),
(488,237,cs),
(488,351,o),
(496,433,o),
(500,457,cs)
);
},
{
closed = 1;
nodes = (
(342,620,o),
(322,600,o),
(296,600,cs),
(270,600,o),
(250,620,o),
(250,646,cs),
(250,672,o),
(270,692,o),
(296,692,cs),
(322,692,o),
(342,672,o),
(342,646,cs)
);
}
);
width = 590;
}
);
note = cid09416;
unicode = 367;
}
{
color = 4;
glyphname = eopenreversedhook;
layers = (
{
color = 1;
layerId = "481A290F-76EE-4968-957F-52614F4635C1";
shapes = (
{
closed = 1;
nodes = (
(203,211,o),
(247,220,o),
(259,220,cs),
(341,220,o),
(386,181,o),
(386,129,cs),
(386,75,o),
(326,42,o),
(241,42,cs),
(176,42,o),
(135,50,o),
(88,78,cs),
(81,82,o),
(75,84,o),
(70,84,cs),
(59,84,o),
(53,77,o),
(53,67,cs),
(53,41,o),
(140,-18,o),
(241,-18,cs),
(378,-18,o),
(457,43,o),
(457,130,cs),
(457,204,o),
(394,249,o),
(341,258,c),
(392,271,o),
(437,310,o),
(437,366,cs),
(437,432,o),
(373,486,o),
(258,486,cs),
(201,486,o),
(86,451,o),
(86,413,cs),
(86,396,o),
(99,365,o),
(114,365,cs),
(123,365,o),
(132,373,o),
(139,379,cs),
(173,411,o),
(215,428,o),
(259,428,cs),
(326,428,o),
(366,407,o),
(366,365,cs),
(366,301,o),
(268,279,o),
(162,275,cs),
(154,275,o),
(151,267,o),
(151,257,cs),
(151,239,o),
(163,211,o),
(180,211,cs),
(182,211,ls)
);
},
{
closed = 1;
nodes = (
(387,378,l),
(418,388,o),
(446,397,o),
(481,398,c),
(474,372,o),
(461,309,o),
(461,271,cs),
(461,201,o),
(498,170,o),
(537,170,cs),
(596,170,o),
(624,230,o),
(624,240,cs),
(624,249,o),
(618,256,o),
(611,256,cs),
(605,256,o),
(598,252,o),
(590,243,cs),
(581,231,o),
(567,222,o),
(555,222,cs),
(540,222,o),
(527,237,o),
(527,279,cs),
(527,298,o),
(536,356,o),
(547,400,cs),
(549,409,o),
(551,416,o),
(551,423,cs),
(551,450,o),
(524,454,o),
(519,454,cs),
(485,454,o),
(422,443,o),
(349,419,c)
);
}
);
width = 640;
}
);
unicode = 605;
}
{
glyphname = esh;
layers = (
{
hints = (
{
horizontal = 1;
place = (-195,61);
type = Stem;
},
{
horizontal = 1;
place = (647,61);
type = Stem;
},
{
place = (181,68);
type = Stem;
}
);
layerId = "481A290F-76EE-4968-957F-52614F4635C1";
shapes = (
{
closed = 1;
nodes = (
(181,-72,ls),
(181,-114,o),
(158,-134,o),
(132,-134,cs),
(111,-134,o),
(82,-126,o),
(67,-98,cs),
(62,-90,o),
(57,-87,o),
(52,-87,cs),
(37,-87,o),
(21,-113,o),
(21,-133,cs),
(21,-154,o),
(58,-195,o),
(131,-195,cs),
(190,-195,o),
(249,-153,o),
(249,-76,cs),
(249,585,ls),
(249,627,o),
(272,647,o),
(298,647,cs),
(319,647,o),
(348,639,o),
(363,611,cs),
(368,603,o),
(373,600,o),
(378,600,cs),
(393,600,o),
(409,626,o),
(409,646,cs),
(409,667,o),
(372,708,o),
(299,708,cs),
(240,708,o),
(181,666,o),
(181,589,cs)
);
}
);
width = 430;
}
);
note = cid09442;
unicode = 643;
}
{
glyphname = circumflex;
layers = (
{
hints = (
{
horizontal = 1;
place = (565,160);
type = Stem;
},
{
place = (90,319);
type = Stem;
}
);
layerId = "481A290F-76EE-4968-957F-52614F4635C1";
shapes = (
{
closed = 1;
nodes = (
(297,612,o),
(345,583,o),
(378,555,cs),
(382,551,o),
(387,550,o),
(391,550,cs),
(401,550,o),
(409,557,o),
(409,566,cs),
(409,583,o),
(323,667,o),
(291,698,cs),
(283,706,o),
(264,710,o),
(247,710,cs),
(231,710,o),
(216,707,o),
(209,701,cs),
(161,656,o),
(90,579,o),
(90,566,cs),
(90,557,o),
(98,550,o),
(108,550,cs),
(112,550,o),
(117,551,o),
(121,555,cs),
(154,583,o),
(203,612,o),
(250,642,c)
);
}
);
width = 500;
}
);
note = cid00128;
unicode = (710,8963);
}
{
glyphname = firsttonechinese;
layers = (
{
layerId = "481A290F-76EE-4968-957F-52614F4635C1";
shapes = (
{
closed = 1;
nodes = (
(53,760,l),
(463,760,l),
(463,791,l),
(53,791,l)
);
}
);
width = 600;
}
);
unicode = 713;
}
{
glyphname = thirdtoneminnan;
layers = (
{
layerId = "481A290F-76EE-4968-957F-52614F4635C1";
shapes = (
{
closed = 1;
nodes = (
(106,540,l),
(106,530,ls),
(106,498,o),
(135,493,o),
(140,493,cs),
(148,493,o),
(154,497,o),
(171,498,cs),
(437,513,ls),
(448,514,o),
(455,518,o),
(455,526,cs),
(455,544,o),
(418,575,o),
(402,575,cs),
(398,575,o),
(395,574,o),
(392,573,cs),
(372,566,o),
(358,563,o),
(339,562,cs),
(166,552,l),
(163,810,ls),
(163,842,o),
(102,842,o),
(100,842,cs),
(92,842,o),
(87,840,o),
(87,835,cs),
(87,832,o),
(89,829,o),
(92,824,cs),
(101,811,o),
(103,799,o),
(103,782,c)
);
}
);
width = 600;
}
);
unicode = 746;
}
{
glyphname = gravecomb;
layers = (
{
anchors = (
{
name = _top;
pos = (-217,471);
}
);
layerId = "481A290F-76EE-4968-957F-52614F4635C1";
shapes = (
{
closed = 1;
nodes = (
(-110,587,o),
(-137,615,o),
(-260,697,cs),
(-262,698,o),
(-264,698,o),
(-266,698,cs),
(-285,698,o),
(-325,663,o),
(-325,644,cs),
(-325,639,o),
(-323,636,o),
(-318,634,cs),
(-252,610,o),
(-183,589,o),
(-138,562,cs),
(-134,560,o),
(-131,559,o),
(-127,559,cs),
(-117,559,o),
(-110,567,o),
(-110,576,cs)
);
}
);
width = 0;
}
);
unicode = 768;
}
{
color = 4;
glyphname = "lowernumeral-greek";
layers = (
{
color = 1;
layerId = "481A290F-76EE-4968-957F-52614F4635C1";
shapes = (
{
closed = 1;
nodes = (
(198,-21,l),
(199,-20,o),
(199,-18,o),
(199,-17,cs),
(199,-10,o),
(189,-3,o),
(180,-3,cs),
(174,-3,o),
(169,-5,o),
(166,-10,cs),
(25,-233,ls),
(24,-235,o),
(23,-238,o),
(23,-240,cs),
(23,-258,o),
(55,-273,o),
(80,-273,cs),
(91,-273,o),
(101,-270,o),
(104,-261,cs)
);
}
);
width = 200;
}
);
unicode = 885;
}
{
glyphname = Iota;
layers = (
{
hints = (
{
horizontal = 1;
place = (-10,715);
type = Stem;
},
{
place = (461,74);
type = Stem;
}
);
layerId = "481A290F-76EE-4968-957F-52614F4635C1";
shapes = (
{
closed = 1;
nodes = (
(461,107,ls),
(461,72,o),
(459,34,o),
(459,18,cs),
(459,1,o),
(493,-10,o),
(516,-10,cs),
(529,-10,o),
(538,-7,o),
(538,0,cs),
(538,23,o),
(535,65,o),
(535,106,cs),
(535,588,ls),
(535,623,o),
(537,661,o),
(537,677,cs),
(537,694,o),
(503,705,o),
(480,705,cs),
(467,705,o),
(458,702,o),
(458,695,cs),
(458,672,o),
(461,630,o),
(461,589,cs)
);
}
);
vertOrigin = 20;
width = 1000;
}
);
note = cid01019;
unicode = 921;
}
{
glyphname = Kappa;
layers = (
{
hints = (
{
horizontal = 1;
place = (-11,716);
type = Stem;
},
{
place = (289,70);
type = Stem;
}
);
layerId = "481A290F-76EE-4968-957F-52614F4635C1";
shapes = (
{
closed = 1;
nodes = (
(289,112,ls),
(289,73,o),
(287,33,o),
(287,17,cs),
(287,0,o),
(319,-11,o),
(341,-11,cs),
(353,-11,o),
(362,-8,o),
(362,-1,cs),
(362,22,o),
(359,66,o),
(359,111,cs),
(359,333,l),
(389,357,l),
(475,258,o),
(605,120,o),
(676,45,cs),
(692,28,o),
(702,15,o),
(710,4,cs),
(717,-6,o),
(729,-9,o),
(743,-9,cs),
(772,-9,o),
(805,6,o),
(805,20,cs),
(805,22,o),
(804,25,o),
(801,27,cs),
(672,133,o),
(441,396,o),
(439,398,c),
(527,469,o),
(608,538,o),
(669,594,cs),
(702,624,o),
(729,645,o),
(749,662,cs),
(752,664,o),
(753,667,o),
(753,670,cs),
(753,685,o),
(717,704,o),
(693,704,cs),
(686,704,o),
(680,703,o),
(677,699,cs),
(664,684,o),
(527,543,o),
(359,412,c),
(359,588,ls),
(359,623,o),
(361,661,o),
(361,677,cs),
(361,694,o),
(329,705,o),
(307,705,cs),
(295,705,o),
(286,702,o),
(286,695,cs),
(286,672,o),
(289,630,o),
(289,589,cs)
);
}
);
vertOrigin = 20;
width = 1000;
}
);
note = cid01020;
unicode = 922;
}
{
glyphname = Lambda;
layers = (
{
hints = (
{
horizontal = 1;
place = (-9,720);
type = Stem;
},
{
place = (149,692);
type = Stem;
}
);
layerId = "481A290F-76EE-4968-957F-52614F4635C1";
shapes = (
{
closed = 1;
nodes = (
(552,481,o),
(651,246,o),
(721,98,cs),
(732,74,o),
(749,27,o),
(757,3,cs),
(759,-5,o),
(773,-9,o),
(788,-9,cs),
(811,-9,o),
(841,0,o),
(841,16,cs),
(841,19,o),
(839,22,o),
(837,26,c),
(815,57,o),
(789,103,o),
(779,125,cs),
(701,289,o),
(608,499,o),
(550,653,cs),
(549,655,o),
(549,658,o),
(549,660,cs),
(549,667,o),
(552,674,o),
(552,680,cs),
(552,681,o),
(551,683,o),
(551,684,c),
(546,697,o),
(516,711,o),
(494,711,cs),
(486,711,o),
(479,710,o),
(475,705,cs),
(468,697,o),
(467,665,o),
(462,653,cs),
(404,509,o),
(199,94,o),
(153,23,cs),
(150,19,o),
(149,15,o),
(149,12,cs),
(149,-1,o),
(167,-7,o),
(186,-7,cs),
(206,-7,o),
(227,-1,o),
(231,10,cs),
(239,33,o),
(257,77,o),
(268,99,cs),
(341,243,o),
(453,479,o),
(506,601,c)
);
}
);
vertOrigin = 15;
width = 1000;
}
);
note = cid01021;
unicode = 923;
}
{
glyphname = Xi;
layers = (
{
hints = (
{
horizontal = 1;
place = (12,55);
type = Stem;
},
{
horizontal = 1;
place = (342,59);
type = Stem;
},
{
horizontal = 1;
place = (624,55);
type = Stem;
},
{
place = (231,539);
type = Stem;
}
);
layerId = "481A290F-76EE-4968-957F-52614F4635C1";
shapes = (
{
closed = 1;
nodes = (
(758,20,ls),
(767,20,o),
(770,27,o),
(770,36,cs),
(770,55,o),
(755,83,o),
(738,83,cs),
(723,83,o),
(678,77,o),
(655,76,cs),
(357,68,ls),
(338,68,o),
(317,67,o),
(297,67,cs),
(277,67,o),
(258,68,o),
(243,69,cs),
(241,69,ls),
(234,69,o),
(231,63,o),
(231,55,cs),
(231,35,o),
(247,2,o),
(265,2,cs),
(266,2,ls),
(293,4,o),
(327,7,o),
(358,8,cs),
(656,17,l)
);
},
{
closed = 1;
nodes = (
(742,632,ls),
(751,632,o),
(754,639,o),
(754,648,cs),
(754,667,o),
(739,695,o),
(722,695,cs),
(707,695,o),
(664,689,o),
(641,688,cs),
(373,680,ls),
(354,680,o),
(333,679,o),
(314,679,cs),
(294,679,o),
(276,680,o),
(261,681,cs),
(259,681,ls),
(252,681,o),
(249,675,o),
(249,667,cs),
(249,647,o),
(265,614,o),
(283,614,cs),
(284,614,ls),
(311,616,o),
(343,619,o),
(374,620,cs),
(642,629,l)
);
},
{
closed = 1;
nodes = (
(715,346,ls),
(724,346,o),
(727,352,o),
(727,361,cs),
(727,379,o),
(712,407,o),
(695,407,cs),
(680,407,o),
(636,402,o),
(612,402,cs),
(404,398,ls),
(386,398,o),
(365,397,o),
(344,397,cs),
(324,397,o),
(305,398,o),
(290,399,cs),
(288,399,ls),
(281,399,o),
(278,393,o),
(278,385,cs),
(278,366,o),
(294,334,o),
(312,334,cs),
(313,334,ls),
(339,336,o),
(374,339,o),
(405,340,cs),
(613,345,ls),
(632,346,o),
(664,346,o),
(689,346,cs)
);
}
);
vertOrigin = 20;
width = 1000;
}
);
note = cid01024;
unicode = 926;
}
{
glyphname = Pi;
layers = (
{
hints = (
{
horizontal = 1;
place = (633,52);
type = Stem;
},
{
place = (303,72);
type = Stem;
},
{
place = (626,72);
type = Stem;
},
{
horizontal = 1;
place = (644,68);
type = Stem;
},
{
horizontal = 1;
place = (616,69);
type = Stem;
}
);
layerId = "481A290F-76EE-4968-957F-52614F4635C1";
shapes = (
{
closed = 1;
nodes = (
(626,107,ls),
(626,72,o),
(624,34,o),
(624,18,cs),
(624,0,o),
(656,-11,o),
(678,-11,cs),
(691,-11,o),
(701,-8,o),
(701,0,cs),
(701,23,o),
(698,65,o),
(698,106,cs),
(698,643,l),
(705,643,o),
(713,644,o),
(720,644,cs),
(749,644,o),
(777,641,o),
(790,641,cs),
(799,641,o),
(802,649,o),
(802,659,cs),
(802,680,o),
(788,712,o),
(771,712,cs),
(769,712,ls),
(753,709,o),
(717,706,o),
(686,704,cs),
(314,686,ls),
(304,686,o),
(293,685,o),
(282,685,cs),
(251,685,o),
(221,687,o),
(211,687,cs),
(202,687,o),
(198,679,o),
(198,669,cs),
(198,648,o),
(214,616,o),
(231,616,cs),
(232,616,ls),
(245,617,o),
(272,622,o),
(303,625,c),
(303,107,ls),
(303,72,o),
(301,34,o),
(301,18,cs),
(301,0,o),
(333,-11,o),
(355,-11,cs),
(368,-11,o),
(378,-8,o),
(378,0,cs),
(378,23,o),
(375,65,o),
(375,106,cs),
(375,627,l),
(626,640,l)
);
}
);
vertOrigin = 20;
width = 1000;
}
);
note = cid01026;
unicode = 928;
}
{
glyphname = gamma;
layers = (
{
hints = (
{
horizontal = 1;
place = (411,74);
type = Stem;
},
{
place = (457,53);
type = Stem;
}
);
layerId = "481A290F-76EE-4968-957F-52614F4635C1";
shapes = (
{
closed = 1;
nodes = (
(510,101,l),
(510,118,ls),
(510,206,o),
(496,303,o),
(462,387,cs),
(429,468,o),
(367,485,o),
(291,485,cs),
(271,485,o),
(261,459,o),
(261,438,cs),
(261,423,o),
(266,410,o),
(275,410,cs),
(276,410,ls),
(286,411,o),
(295,411,o),
(303,411,cs),
(350,411,o),
(380,396,o),
(399,353,cs),
(437,273,o),
(457,155,o),
(457,63,cs),
(457,-17,o),
(443,-52,o),
(406,-128,cs),
(405,-130,o),
(405,-132,o),
(405,-134,cs),
(405,-152,o),
(432,-179,o),
(453,-179,cs),
(460,-179,o),
(466,-176,o),
(470,-166,cs),
(481,-136,o),
(494,-94,o),
(504,-72,cs),
(699,368,ls),
(708,387,o),
(725,423,o),
(736,442,c),
(737,445,o),
(738,447,o),
(738,450,cs),
(738,470,o),
(706,492,o),
(685,492,cs),
(678,492,o),
(672,490,o),
(670,483,cs),
(660,452,o),
(646,418,o),
(634,389,cs)
);
}
);
vertOrigin = 206;
width = 1000;
}
);
note = cid01037;
unicode = 947;
}
{
glyphname = omicron;
layers = (
{
hints = (
{
horizontal = 1;
place = (-18,61);
type = Stem;
},
{
horizontal = 1;
place = (426,60);
type = Stem;
},
{
place = (275,67);
type = Stem;
},
{
place = (658,67);
type = Stem;
}
);
layerId = "481A290F-76EE-4968-957F-52614F4635C1";
shapes = (
{
closed = 1;
nodes = (
(409,450,o),
(403,454,o),
(396,454,cs),
(366,454,o),
(275,324,o),
(275,207,cs),
(275,68,o),
(352,-18,o),
(486,-18,cs),
(641,-18,o),
(725,117,o),
(725,245,cs),
(725,396,o),
(645,486,o),
(531,486,cs),
(475,486,o),
(439,465,o),
(413,445,c)
);
},
{
closed = 1;
nodes = (
(394,43,o),
(342,98,o),
(342,208,cs),
(342,312,o),
(419,426,o),
(525,426,cs),
(616,426,o),
(658,355,o),
(658,245,cs),
(658,130,o),
(583,43,o),
(486,43,cs)
);
}
);
vertOrigin = 133;
width = 1000;
}
);
note = cid01049;
unicode = 959;
}
{
glyphname = upsilon;
layers = (
{
hints = (
{
horizontal = 1;
place = (-18,66);
type = Stem;
},
{
place = (301,70);
type = Stem;
},
{
place = (654,56);
type = Stem;
},
{
horizontal = 1;
place = (424,62);
type = Stem;
},
{
place = (360,68);
type = Stem;
}
);
layerId = "481A290F-76EE-4968-957F-52614F4635C1";
shapes = (
{
closed = 1;
nodes = (
(646,464,l),
(651,433,o),
(654,400,o),
(654,368,cs),
(654,54,o),
(480,48,o),
(453,48,cs),
(398,48,o),
(371,88,o),
(371,135,cs),
(371,196,o),
(403,290,o),
(422,365,cs),
(426,381,o),
(428,396,o),
(428,409,cs),
(428,461,o),
(399,486,o),
(354,486,cs),
(304,486,o),
(275,466,o),
(236,418,cs),
(231,412,o),
(229,406,o),
(229,400,cs),
(229,380,o),
(254,364,o),
(272,364,cs),
(279,364,o),
(285,367,o),
(288,372,cs),
(306,406,o),
(329,424,o),
(348,424,cs),
(356,424,o),
(360,421,o),
(360,409,cs),
(360,401,o),
(358,390,o),
(354,373,cs),
(338,310,o),
(301,206,o),
(301,134,cs),
(301,60,o),
(340,-18,o),
(459,-18,cs),
(628,-18,o),
(710,142,o),
(710,306,cs),
(710,356,o),
(703,411,o),
(686,472,cs),
(682,485,o),
(674,490,o),
(666,490,cs),
(656,490,o),
(646,481,o),
(646,468,cs)
);
}
);
vertOrigin = 132;
width = 1000;
}
);
note = cid01054;
unicode = 965;
}
{
glyphname = stigma;
layers = (
{
hints = (
{
horizontal = 1;
place = (-2,62);
type = Stem;
},
{
horizontal = 1;
place = (401,78);
type = Stem;
},
{
place = (285,60);
type = Stem;
},
{
place = (499,55);
type = Stem;
}
);
layerId = "481A290F-76EE-4968-957F-52614F4635C1";
shapes = (
{
closed = 1;
nodes = (
(681,396,ls),
(702,397,o),
(716,413,o),
(716,435,cs),
(716,453,o),
(716,470,o),
(692,473,cs),
(676,475,o),
(614,479,o),
(558,479,cs),
(506,479,o),
(451,476,o),
(417,466,cs),
(358,449,o),
(285,392,o),
(285,305,cs),
(285,168,o),
(456,146,o),
(490,100,cs),
(496,92,o),
(499,84,o),
(499,77,cs),
(499,67,o),
(487,60,o),
(477,60,cs),
(425,60,o),
(422,66,o),
(393,75,c),
(392,75,o),
(390,76,o),
(389,76,cs),
(380,76,o),
(376,64,o),
(376,50,cs),
(376,21,o),
(380,-2,o),
(460,-2,cs),
(536,-2,o),
(554,37,o),
(554,77,cs),
(554,190,o),
(345,185,o),
(345,291,cs),
(345,399,o),
(470,401,o),
(514,401,cs),
(565,401,o),
(623,396,o),
(672,396,cs)
);
}
);
vertOrigin = 105;
width = 1000;
}
);
note = cid12095;
unicode = 987;
}
{
glyphname = "Be-cy";
layers = (
{
hints = (
{
horizontal = 1;
place = (-12,55);
type = Stem;
},
{
horizontal = 1;
place = (358,62);
type = Stem;
},
{
horizontal = 1;
place = (633,62);
type = Stem;
},
{
place = (267,71);
type = Stem;
},
{
place = (689,71);
type = Stem;
}
);
layerId = "481A290F-76EE-4968-957F-52614F4635C1";
shapes = (
{
closed = 1;
nodes = (
(267,38,l),
(241,38,ls),
(228,37,o),
(221,30,o),
(221,23,cs),
(221,11,o),
(233,-6,o),
(359,-11,cs),
(372,-11,o),
(385,-12,o),
(398,-12,cs),
(444,-12,o),
(487,-9,o),
(541,0,cs),
(658,18,o),
(760,116,o),
(760,228,cs),
(760,365,o),
(648,420,o),
(486,420,cs),
(450,420,o),
(380,413,o),
(338,411,c),
(338,624,l),
(602,642,ls),
(621,643,o),
(643,643,o),
(663,643,cs),
(705,643,ls),
(714,643,o),
(718,650,o),
(718,660,cs),
(718,681,o),
(702,712,o),
(684,712,cs),
(672,712,o),
(631,706,o),
(601,704,cs),
(330,686,l),
(328,687,o),
(295,699,o),
(277,699,cs),
(272,699,o),
(263,698,o),
(263,685,cs),
(263,680,o),
(264,673,o),
(265,661,cs),
(267,645,o),
(267,625,o),
(267,604,cs)
);
},
{
closed = 1;
nodes = (
(338,43,l),
(338,346,l),
(392,352,o),
(463,358,o),
(507,358,cs),
(595,358,o),
(689,325,o),
(689,225,cs),
(689,151,o),
(627,80,o),
(526,58,cs),
(468,45,o),
(421,43,o),
(374,43,cs)
);
}
);
vertOrigin = 14;
width = 1000;
}
);
note = cid01060;
unicode = 1041;
}
{
glyphname = "De-cy";
layers = (
{
hints = (
{
horizontal = 1;
place = (11,63);
type = Stem;
},
{
horizontal = 1;
place = (635,61);
type = Stem;
},
{
place = (175,76);
type = Stem;
},
{
place = (325,72);
type = Stem;
},
{
place = (668,72);
type = Stem;
},
{
place = (760,77);
type = Stem;
}
);
layerId = "481A290F-76EE-4968-957F-52614F4635C1";
shapes = (
{
closed = 1;
nodes = (
(753,-99,ls),
(753,-116,o),
(788,-130,o),
(810,-130,cs),
(820,-130,o),
(827,-127,o),
(827,-120,cs),
(827,-99,o),
(827,-67,o),
(828,-38,cs),
(830,2,o),
(837,14,o),
(837,29,cs),
(837,45,o),
(812,77,o),
(794,77,cs),
(777,77,o),
(764,70,o),
(740,70,c),
(740,621,ls),
(740,635,o),
(750,657,o),
(750,668,cs),
(750,684,o),
(724,715,o),
(705,715,cs),
(683,715,o),
(660,706,o),
(632,704,cs),
(388,689,l),
(386,690,o),
(353,702,o),
(335,702,cs),
(330,702,o),
(321,701,o),
(321,688,cs),
(321,683,o),
(322,676,o),
(323,664,cs),
(325,648,o),
(325,628,o),
(325,607,cs),
(325,384,ls),
(325,254,o),
(302,157,o),
(252,61,c),
(239,61,l),
(232,63,o),
(202,75,o),
(185,75,cs),
(174,75,o),
(172,70,o),
(172,60,cs),
(172,55,o),
(173,48,o),
(174,37,cs),
(175,29,o),
(175,-5,o),
(175,-37,cs),
(175,-98,ls),
(175,-114,o),
(204,-124,o),
(227,-124,cs),
(240,-124,o),
(251,-120,o),
(251,-112,cs),
(249,-82,o),
(248,-26,o),
(247,-5,c),
(335,3,o),
(500,11,o),
(597,11,cs),
(661,11,o),
(719,9,o),
(760,6,c),
(760,-14,o),
(758,-57,o),
(753,-98,cs)
);
},
{
closed = 1;
nodes = (
(668,73,l),
(635,74,o),
(596,74,o),
(558,74,cs),
(495,74,o),
(415,71,o),
(333,66,c),
(376,155,o),
(397,257,o),
(397,385,cs),
(397,627,l),
(668,644,l)
);
}
);
vertOrigin = 15;
width = 1000;
}
);
note = cid01063;
unicode = 1044;
}
{
glyphname = "Che-cy";
layers = (
{
hints = (
{
horizontal = 1;
place = (211,66);
type = Stem;
},
{
place = (261,72);
type = Stem;
},
{
place = (664,72);
type = Stem;
}
);
layerId = "481A290F-76EE-4968-957F-52614F4635C1";
shapes = (
{
closed = 1;
nodes = (
(664,109,ls),
(664,85,o),
(662,36,o),
(662,20,cs),
(662,3,o),
(695,-8,o),
(718,-8,cs),
(730,-8,o),
(739,-5,o),
(739,2,cs),
(739,25,o),
(736,90,o),
(736,109,cs),
(736,592,ls),
(736,606,o),
(738,664,o),
(738,680,cs),
(738,697,o),
(705,708,o),
(682,708,cs),
(670,708,o),
(661,705,o),
(661,698,cs),
(661,680,o),
(665,651,o),
(665,619,cs),
(665,610,o),
(665,601,o),
(664,592,c),
(665,574,o),
(665,558,o),
(665,542,cs),
(665,461,o),
(657,277,o),
(453,277,cs),
(386,277,o),
(333,323,o),
(333,404,cs),
(333,592,ls),
(333,615,o),
(335,664,o),
(335,680,cs),
(335,697,o),
(302,708,o),
(279,708,cs),
(267,708,o),
(258,705,o),
(258,698,cs),
(258,675,o),
(261,604,o),
(261,592,cs),
(261,400,ls),
(261,309,o),
(325,211,o),
(453,211,cs),
(533,211,o),
(613,244,o),
(664,316,c)
);
}
);
vertOrigin = 15;
width = 1000;
}
);
note = cid01083;
unicode = 1063;
}
{
glyphname = "Iu-cy";
layers = (
{
hints = (
{
horizontal = 1;
place = (-18,65);
type = Stem;
},
{
horizontal = 1;
place = (344,64);
type = Stem;
},
{
horizontal = 1;
place = (648,65);
type = Stem;
},
{
place = (190,72);
type = Stem;
},
{
place = (380,72);
type = Stem;
},
{
place = (777,72);
type = Stem;
}
);
layerId = "481A290F-76EE-4968-957F-52614F4635C1";
shapes = (
{
closed = 1;
nodes = (
(190,106,ls),
(190,71,o),
(188,33,o),
(188,17,cs),
(188,0,o),
(221,-11,o),
(244,-11,cs),
(256,-11,o),
(265,-8,o),
(265,-1,cs),
(265,22,o),
(262,64,o),
(262,105,cs),
(262,343,l),
(380,346,l),
(380,119,o),
(457,-18,o),
(614,-18,cs),
(767,-18,o),
(849,158,o),
(849,354,cs),
(849,560,o),
(771,713,o),
(627,713,cs),
(581,713,o),
(537,689,o),
(504,650,c),
(499,654,o),
(491,658,o),
(482,658,cs),
(474,658,o),
(466,655,o),
(460,646,cs),
(418,586,o),
(391,502,o),
(383,410,c),
(262,407,l),
(262,588,ls),
(262,623,o),
(264,661,o),
(264,677,cs),
(264,694,o),
(231,705,o),
(208,705,cs),
(196,705,o),
(187,702,o),
(187,695,cs),
(187,672,o),
(190,630,o),
(190,589,cs)
);
},
{
closed = 1;
nodes = (
(483,47,o),
(452,184,o),
(452,339,cs),
(452,542,o),
(558,648,o),
(623,648,cs),
(736,648,o),
(777,508,o),
(777,360,cs),
(777,185,o),
(724,47,o),
(611,47,cs)
);
}
);
vertOrigin = 15;
width = 1000;
}
);
note = cid01090;
unicode = 1070;
}
{
glyphname = "em-cy";
layers = (
{
hints = (
{
horizontal = 1;
place = (-10,497);
type = Stem;
},
{
place = (271,66);
type = Stem;
},
{
place = (660,66);
type = Stem;
}
);
layerId = "481A290F-76EE-4968-957F-52614F4635C1";
shapes = (
{
closed = 1;
nodes = (
(660,106,ls),
(660,92,o),
(658,34,o),
(658,18,cs),
(658,1,o),
(687,-9,o),
(708,-9,cs),
(719,-9,o),
(728,-6,o),
(728,1,cs),
(728,24,o),
(726,85,o),
(726,106,cs),
(726,425,ls),
(726,437,o),
(729,446,o),
(729,456,cs),
(729,467,o),
(682,487,o),
(665,487,cs),
(647,487,o),
(639,469,o),
(633,456,cs),
(592,372,o),
(536,255,o),
(492,159,c),
(453,237,o),
(398,351,o),
(353,453,cs),
(349,461,o),
(348,473,o),
(338,478,cs),
(333,481,o),
(327,482,o),
(321,482,cs),
(299,482,o),
(272,468,o),
(269,456,c),
(269,454,o),
(268,452,o),
(268,450,cs),
(268,442,o),
(271,432,o),
(271,422,cs),
(271,106,ls),
(271,92,o),
(269,32,o),
(269,16,cs),
(269,0,o),
(296,-10,o),
(317,-10,cs),
(329,-10,o),
(339,-6,o),
(339,1,cs),
(339,24,o),
(337,94,o),
(337,106,cs),
(337,344,l),
(367,276,o),
(410,188,o),
(442,121,cs),
(446,113,o),
(451,97,o),
(455,85,cs),
(458,76,o),
(471,72,o),
(484,72,cs),
(506,72,o),
(531,81,o),
(531,96,cs),
(531,106,o),
(617,295,o),
(660,377,c)
);
}
);
vertOrigin = 129;
width = 1000;
}
);
note = cid01105;
unicode = 1084;
}
{
glyphname = alphaoxia;
layers = (
{
hints = (
{
horizontal = 1;
place = (-18,64);
type = Stem;
},
{
horizontal = 1;
place = (425,61);
type = Stem;
},
{
place = (50,69);
type = Stem;
},
{
place = (402,68);
type = Stem;
},
{
horizontal = 1;
place = (-14,60);
type = Stem;
}
);
layerId = "481A290F-76EE-4968-957F-52614F4635C1";
shapes = (
{
closed = 1;
nodes = (
(483,459,ls),
(483,475,o),
(451,485,o),
(428,485,cs),
(416,485,o),
(407,482,o),
(407,475,cs),
(407,467,o),
(406,448,o),
(405,422,c),
(376,466,o),
(328,486,o),
(272,486,cs),
(155,486,o),
(50,386,o),
(50,224,cs),
(50,98,o),
(107,-18,o),
(260,-18,cs),
(349,-18,o),
(397,43,o),
(414,72,c),
(419,12,o),
(449,-14,o),
(482,-14,cs),
(528,-14,o),
(565,39,o),
(565,62,cs),
(565,73,o),
(558,81,o),
(550,81,cs),
(544,81,o),
(537,77,o),
(530,67,cs),
(522,55,o),
(511,46,o),
(501,46,cs),
(485,46,o),
(471,66,o),
(471,122,cs),
(471,381,o),
(482,451,o),
(483,457,cs)
);
},
{
closed = 1;
nodes = (
(400,221,ls),
(395,106,o),
(341,46,o),
(260,46,cs),
(156,46,o),
(119,126,o),
(119,228,cs),
(119,362,o),
(207,425,o),
(273,425,cs),
(323,425,o),
(346,422,o),
(378,384,cs),
(381,381,o),
(385,380,o),
(389,380,cs),
(395,380,o),
(401,382,o),
(405,385,c)
);
},
{
closed = 1;
nodes = (
(407,651,o),
(409,654,o),
(409,659,cs),
(409,678,o),
(369,713,o),
(350,713,cs),
(348,713,o),
(346,713,o),
(344,712,cs),
(222,630,o),
(194,602,o),
(194,591,cs),
(194,582,o),
(201,574,o),
(211,574,cs),
(215,574,o),
(218,575,o),
(222,577,cs),
(267,604,o),
(336,625,o),
(402,649,cs)
);
}
);
width = 575;
}
);
note = cid09419;
unicode = 8049;
}
{
glyphname = epsilonvaria;
layers = (
{
hints = (
{
horizontal = 1;
place = (-18,60);
type = Stem;
},
{
horizontal = 1;
place = (211,64);
type = Stem;
},
{
horizontal = 1;
place = (428,58);
type = Stem;
},
{
place = (53,71);
type = Stem;
},
{
place = (73,71);
type = Stem;
}
);
layerId = "481A290F-76EE-4968-957F-52614F4635C1";
shapes = (
{
closed = 1;
nodes = (
(355,602,o),
(328,630,o),
(205,712,cs),
(203,713,o),
(201,713,o),
(199,713,cs),
(180,713,o),
(140,678,o),
(140,659,cs),
(140,654,o),
(142,651,o),
(147,649,cs),
(213,625,o),
(282,604,o),
(327,577,cs),
(331,575,o),
(334,574,o),
(338,574,cs),
(348,574,o),
(355,582,o),
(355,591,cs)
);
},
{
closed = 1;
nodes = (
(330,211,ls),
(347,211,o),
(359,239,o),
(359,257,cs),
(359,267,o),
(356,275,o),
(348,275,cs),
(242,279,o),
(144,301,o),
(144,365,cs),
(144,407,o),
(184,428,o),
(251,428,cs),
(295,428,o),
(337,411,o),
(371,379,cs),
(378,373,o),
(387,365,o),
(396,365,cs),
(411,365,o),
(424,396,o),
(424,413,cs),
(424,451,o),
(309,486,o),
(252,486,cs),
(137,486,o),
(73,432,o),
(73,366,cs),
(73,310,o),
(118,271,o),
(169,258,c),
(116,249,o),
(53,204,o),
(53,130,cs),
(53,43,o),
(132,-18,o),
(269,-18,cs),
(370,-18,o),
(457,41,o),
(457,67,cs),
(457,77,o),
(451,84,o),
(440,84,cs),
(435,84,o),
(429,82,o),
(422,78,cs),
(375,50,o),
(334,42,o),
(269,42,cs),
(184,42,o),
(124,75,o),
(124,129,cs),
(124,181,o),
(169,220,o),
(251,220,cs),
(263,220,o),
(307,214,o),
(328,211,cs)
);
}
);
width = 500;
}
);
note = cid09434;
unicode = 8050;
}
{
glyphname = hyphen.full.001;
layers = (
{
hints = (
{
horizontal = 1;
place = (350,61);
type = Stem;
},
{
place = (293,415);
type = Stem;
}
);
layerId = "481A290F-76EE-4968-957F-52614F4635C1";
shapes = (
{
closed = 1;
nodes = (
(685,335,ls),
(700,335,o),
(708,350,o),
(708,366,cs),
(708,381,o),
(700,396,o),
(685,396,cs),
(315,396,ls),
(300,396,o),
(293,381,o),
(293,366,cs),
(293,350,o),
(300,335,o),
(315,335,cs)
);
}
);
width = 1000;
}
);
note = cid00662;
unicode = 8208;
}
{
color = 4;
glyphname = emdash;
layers = (
{
layerId = "481A290F-76EE-4968-957F-52614F4635C1";
shapes = (
{
closed = 1;
nodes = (
(995,349,ls),
(1010,349,o),
(1018,364,o),
(1018,380,cs),
(1018,395,o),
(1010,410,o),
(995,410,cs),
(5,410,ls),
(-10,410,o),
(-18,395,o),
(-18,380,cs),
(-18,364,o),
(-10,349,o),
(5,349,cs)
);
}
);
width = 1000;
}
);
unicode = 8212;
}
{
glyphname = dblverticalbar;
layers = (
{
hints = (
{
horizontal = 1;
place = (-134,1028);
type = Stem;
},
{
place = (382,57);
type = Stem;
},
{
place = (561,57);
type = Stem;
}
);
layerId = "481A290F-76EE-4968-957F-52614F4635C1";
shapes = (
{
closed = 1;
nodes = (
(561,-130,ls),
(561,-143,o),
(575,-149,o),
(590,-149,cs),
(604,-149,o),
(618,-143,o),
(618,-130,cs),
(618,860,ls),
(618,873,o),
(604,879,o),
(590,879,cs),
(575,879,o),
(561,873,o),
(561,860,cs)
);
},
{
closed = 1;
nodes = (
(382,-130,ls),
(382,-143,o),
(396,-149,o),
(411,-149,cs),
(425,-149,o),
(439,-143,o),
(439,-130,cs),
(439,860,ls),
(439,873,o),
(425,879,o),
(411,879,cs),
(396,879,o),
(382,873,o),
(382,860,cs)
);
}
);
width = 1000;
}
);
note = cid00666;
unicode = 8214;
}
{
glyphname = daggerdbl;
layers = (
{
hints = (
{
horizontal = 1;
place = (176,60);
type = Stem;
},
{
horizontal = 1;
place = (515,60);
type = Stem;
},
{
place = (469,62);
type = Stem;
},
{
horizontal = 1;
place = (179,60);
type = Stem;
},
{
horizontal = 1;
place = (518,60);
type = Stem;
}
);
layerId = "481A290F-76EE-4968-957F-52614F4635C1";
shapes = (
{
closed = 1;
nodes = (
(466,-28,ls),
(466,-41,o),
(486,-49,o),
(505,-49,cs),
(519,-49,o),
(532,-44,o),
(532,-33,cs),
(532,-2,o),
(531,31,o),
(531,50,cs),
(531,163,l),
(584,164,ls),
(601,164,o),
(633,163,o),
(667,163,cs),
(678,163,o),
(684,175,o),
(684,189,cs),
(684,207,o),
(675,227,o),
(662,227,cs),
(661,227,ls),
(632,225,o),
(601,224,o),
(585,224,cs),
(531,223,l),
(531,502,l),
(584,503,ls),
(601,503,o),
(633,502,o),
(667,502,cs),
(678,502,o),
(684,514,o),
(684,528,cs),
(684,546,o),
(675,566,o),
(662,566,cs),
(661,566,ls),
(632,564,o),
(601,563,o),
(585,563,cs),
(531,562,l),
(531,658,ls),
(531,682,o),
(532,723,o),
(534,739,cs),
(534,740,ls),
(534,752,o),
(511,760,o),
(493,760,cs),
(479,760,o),
(467,756,o),
(467,744,cs),
(468,724,o),
(469,689,o),
(469,657,cs),
(469,561,l),
(418,560,ls),
(391,560,o),
(353,561,o),
(331,562,cs),
(319,562,o),
(315,551,o),
(315,538,cs),
(315,519,o),
(324,497,o),
(335,497,cs),
(336,497,ls),
(353,498,o),
(390,500,o),
(417,500,cs),
(469,501,l),
(469,222,l),
(418,221,ls),
(391,221,o),
(353,222,o),
(331,223,cs),
(319,223,o),
(315,212,o),
(315,199,cs),
(315,180,o),
(324,158,o),
(335,158,cs),
(336,158,ls),
(353,159,o),
(390,161,o),
(417,161,cs),
(469,162,l),
(469,49,ls),
(469,33,o),
(468,1,o),
(466,-27,cs)
);
}
);
width = 1000;
}
);
note = cid00777;
unicode = 8225;
}
{
glyphname = ellipsis;
layers = (
{
hints = (
{
horizontal = 1;
place = (326,108);
type = Stem;
},
{
place = (780,105);
type = Stem;
}
);
layerId = "481A290F-76EE-4968-957F-52614F4635C1";
shapes = (
{
closed = 1;
nodes = (
(885,400,o),
(858,434,o),
(833,434,cs),
(802,434,o),
(780,418,o),
(780,386,cs),
(780,360,o),
(805,326,o),
(833,326,cs),
(869,326,o),
(885,345,o),
(885,372,cs)
);
},
{
closed = 1;
nodes = (
(553,400,o),
(526,434,o),
(501,434,cs),
(470,434,o),
(448,418,o),
(448,386,cs),
(448,360,o),
(473,326,o),
(501,326,cs),
(537,326,o),
(553,345,o),
(553,372,cs)
);
},
{
closed = 1;
nodes = (
(221,400,o),
(194,434,o),
(169,434,cs),
(138,434,o),
(116,418,o),
(116,386,cs),
(116,360,o),
(141,326,o),
(169,326,cs),
(205,326,o),
(221,345,o),
(221,372,cs)
);
}
);
width = 1000;
}
);
note = cid00668;
unicode = 8230;
}
{
glyphname = guilsinglleft;
layers = (
{
hints = (
{
horizontal = 1;
place = (-15,507);
type = Stem;
},
{
place = (78,363);
type = Stem;
}
);
layerId = "481A290F-76EE-4968-957F-52614F4635C1";
shapes = (
{
closed = 1;
nodes = (
(373,83,ls),
(307,129,o),
(222,180,o),
(152,221,c),
(220,261,o),
(308,317,o),
(375,365,cs),
(392,377,o),
(410,389,o),
(431,402,cs),
(438,406,o),
(441,417,o),
(441,429,cs),
(441,451,o),
(432,477,o),
(420,477,cs),
(417,477,o),
(415,476,o),
(412,473,cs),
(364,425,o),
(206,321,o),
(129,274,cs),
(113,265,o),
(85,260,o),
(80,250,cs),
(78,246,o),
(78,241,o),
(78,236,cs),
(78,217,o),
(86,190,o),
(97,182,cs),
(105,177,o),
(121,176,o),
(129,171,cs),
(190,134,o),
(325,47,o),
(412,-27,cs),
(414,-29,o),
(416,-30,o),
(419,-30,cs),
(429,-30,o),
(435,-6,o),
(435,16,cs),
(435,29,o),
(433,42,o),
(426,47,cs)
);
}
);
width = 530;
}
);
note = cid00110;
unicode = 8249;
}
{
glyphname = exclamationquestion;
layers = (
{
hints = (
{
horizontal = 1;
place = (654,59);
type = Stem;
},
{
place = (262,62);
type = Stem;
},
{
place = (583,67);
type = Stem;
},
{
place = (779,73);
type = Stem;
},
{
horizontal = 1;
place = (-9,110);
type = Stem;
},
{
place = (243,105);
type = Stem;
},
{
place = (568,105);
type = Stem;
}
);
layerId = "481A290F-76EE-4968-957F-52614F4635C1";
shapes = (
{
closed = 1;
nodes = (
(660,170,o),
(659,171,o),
(659,173,c),
(653,194,o),
(650,210,o),
(650,228,cs),
(650,235,o),
(650,243,o),
(651,251,cs),
(664,362,o),
(852,386,o),
(852,559,cs),
(852,646,o),
(787,698,o),
(685,698,cs),
(569,698,o),
(485,652,o),
(422,542,cs),
(420,539,o),
(420,536,o),
(420,533,cs),
(420,513,o),
(447,491,o),
(467,491,cs),
(475,491,o),
(482,495,o),
(485,504,cs),
(519,620,o),
(638,639,o),
(686,639,cs),
(749,639,o),
(779,601,o),
(779,553,cs),
(779,414,o),
(606,391,o),
(587,260,cs),
(584,241,o),
(583,224,o),
(583,209,cs),
(583,178,o),
(583,153,o),
(631,153,cs),
(646,153,o),
(660,158,o),
(660,169,cs)
);
},
{
closed = 1;
nodes = (
(324,208,l),
(336,594,ls),
(337,623,o),
(340,644,o),
(342,665,cs),
(342,666,ls),
(342,683,o),
(307,697,o),
(283,697,cs),
(268,697,o),
(257,692,o),
(257,680,cs),
(257,678,ls),
(258,670,o),
(262,627,o),
(262,599,cs),
(268,212,ls),
(268,199,o),
(267,183,o),
(266,173,cs),
(266,172,ls),
(266,159,o),
(291,150,o),
(308,150,cs),
(317,150,o),
(324,153,o),
(324,158,cs)
);
},
{
closed = 1;
nodes = (
(673,53,o),
(646,86,o),
(621,86,cs),
(585,86,o),
(568,64,o),
(568,36,cs),
(568,7,o),
(593,-24,o),
(621,-24,cs),
(657,-24,o),
(673,-5,o),
(673,22,cs)
);
},
{
closed = 1;
nodes = (
(348,53,o),
(321,86,o),
(296,86,cs),
(260,86,o),
(243,64,o),
(243,36,cs),
(243,7,o),
(268,-24,o),
(296,-24,cs),
(332,-24,o),
(348,-5,o),
(348,22,cs)
);
}
);
width = 1000;
}
);
note = cid12112;
unicode = 8265;
}
{
glyphname = zerosuperior;
layers = (
{
hints = (
{
horizontal = 1;
place = (318,59);
type = Stem;
},
{
horizontal = 1;
place = (651,56);
type = Stem;
},
{
place = (59,58);
type = Stem;
},
{
place = (265,58);
type = Stem;
}
);
layerId = "481A290F-76EE-4968-957F-52614F4635C1";
shapes = (
{
closed = 1;
nodes = (
(132,660,o),
(127,663,o),
(121,663,cs),
(117,663,o),
(112,662,o),
(109,657,cs),
(79,617,o),
(59,554,o),
(59,493,cs),
(59,390,o),
(100,303,o),
(191,303,cs),
(276,303,o),
(323,397,o),
(323,501,cs),
(323,614,o),
(276,692,o),
(198,692,cs),
(173,692,o),
(147,674,o),
(133,657,c)
);
},
{
closed = 1;
nodes = (
(138,362,o),
(117,427,o),
(117,495,cs),
(117,585,o),
(168,636,o),
(195,636,cs),
(238,636,o),
(265,572,o),
(265,505,cs),
(265,427,o),
(236,362,o),
(189,362,cs)
);
}
);
width = 380;
}
);
note = cid09377;
unicode = 8304;
}
{
glyphname = ninesuperior;
layers = (
{
hints = (
{
horizontal = 1;
place = (455,55);
type = Stem;
},
{
horizontal = 1;
place = (650,56);
type = Stem;
},
{
place = (63,57);
type = Stem;
},
{
place = (194,64);
type = Stem;
}
);
layerId = "481A290F-76EE-4968-957F-52614F4635C1";
shapes = (
{
closed = 1;
nodes = (
(208,388,ls),
(205,375,o),
(199,351,o),
(195,331,cs),
(195,330,o),
(194,328,o),
(194,327,cs),
(194,314,o),
(210,307,o),
(226,307,cs),
(241,307,o),
(256,313,o),
(258,327,cs),
(259,338,o),
(262,366,o),
(264,378,cs),
(307,603,l),
(317,647,l),
(317,650,ls),
(317,666,o),
(293,680,o),
(276,680,cs),
(268,680,o),
(262,676,o),
(261,669,cs),
(261,668,o),
(259,660,o),
(259,660,c),
(247,677,o),
(224,691,o),
(197,691,cs),
(121,691,o),
(63,618,o),
(63,543,cs),
(63,478,o),
(108,440,o),
(157,440,cs),
(181,440,o),
(203,448,o),
(223,462,c)
);
},
{
closed = 1;
nodes = (
(225,518,o),
(197,495,o),
(161,495,cs),
(138,495,o),
(120,513,o),
(120,547,cs),
(120,586,o),
(152,635,o),
(198,635,cs),
(220,635,o),
(234,623,o),
(238,611,cs),
(241,604,o),
(246,602,o),
(250,601,c),
(248,585,o),
(243,552,o),
(238,544,cs)
);
}
);
width = 380;
}
);
note = cid09383;
unicode = 8313;
}
{
glyphname = euro;
layers = (
{
hints = (
{
horizontal = 1;
place = (-18,63);
type = Stem;
},
{
horizontal = 1;
place = (215,58);
type = Stem;
},
{
horizontal = 1;
place = (369,58);
type = Stem;
},
{
horizontal = 1;
place = (649,64);
type = Stem;
},
{
place = (95,71);
type = Stem;
},
{
horizontal = 1;
place = (212,63);
type = Stem;
}
);
layerId = "481A290F-76EE-4968-957F-52614F4635C1";
shapes = (
{
closed = 1;
nodes = (
(455,276,ls),
(433,275,o),
(405,273,o),
(384,273,cs),
(168,273,l),
(167,282,o),
(166,291,o),
(166,300,cs),
(166,323,o),
(169,348,o),
(173,369,c),
(469,369,ls),
(490,369,o),
(518,367,o),
(549,367,cs),
(560,367,o),
(565,378,o),
(565,391,cs),
(565,409,o),
(556,430,o),
(542,430,cs),
(541,430,ls),
(515,429,o),
(491,427,o),
(470,427,cs),
(186,427,l),
(228,563,o),
(333,649,o),
(448,649,cs),
(469,649,o),
(574,648,o),
(620,578,cs),
(624,572,o),
(629,569,o),
(635,569,cs),
(653,569,o),
(675,598,o),
(675,617,cs),
(675,622,o),
(674,625,o),
(672,628,cs),
(606,709,o),
(489,713,o),
(452,713,cs),
(290,713,o),
(159,595,o),
(113,427,c),
(99,427,ls),
(67,427,o),
(45,429,o),
(25,429,cs),
(14,429,o),
(9,419,o),
(9,406,cs),
(9,388,o),
(19,366,o),
(32,366,cs),
(48,366,o),
(74,369,o),
(101,369,c),
(96,337,o),
(95,306,o),
(95,273,c),
(68,273,o),
(41,275,o),
(25,275,cs),
(14,275,o),
(9,265,o),
(9,252,cs),
(9,234,o),
(19,212,o),
(32,212,cs),
(46,212,o),
(74,215,o),
(101,215,c),
(129,51,o),
(248,-18,o),
(401,-18,cs),
(605,-18,o),
(718,150,o),
(718,184,cs),
(718,194,o),
(712,200,o),
(704,200,cs),
(697,200,o),
(689,196,o),
(680,185,cs),
(617,102,o),
(498,45,o),
(407,45,cs),
(289,45,o),
(202,98,o),
(175,215,c),
(383,215,ls),
(404,215,o),
(432,213,o),
(463,213,cs),
(474,213,o),
(479,224,o),
(479,237,cs),
(479,255,o),
(470,276,o),
(456,276,cs)
);
}
);
width = 750;
}
);
note = cid09354;
unicode = 8364;
}
{
glyphname = telephone;
layers = (
{
hints = (
{
horizontal = 1;
place = (0,64);
type = Stem;
},
{
horizontal = 1;
place = (229,64);
type = Stem;
},
{
horizontal = 1;
place = (403,64);
type = Stem;
},
{
horizontal = 1;
place = (637,61);
type = Stem;
},
{
place = (162,68);
type = Stem;
},
{
place = (357,70);
type = Stem;
},
{
place = (679,70);
type = Stem;
},
{
horizontal = 1;
place = (622,71);
type = Stem;
}
);
layerId = "481A290F-76EE-4968-957F-52614F4635C1";
shapes = (
{
closed = 1;
nodes = (
(643,-5,ls),
(650,-5,o),
(653,1,o),
(653,10,cs),
(653,30,o),
(637,64,o),
(620,64,cs),
(510,64,ls),
(480,64,o),
(448,61,o),
(427,59,c),
(427,227,l),
(506,232,ls),
(533,234,o),
(579,236,o),
(600,236,cs),
(610,236,o),
(614,244,o),
(614,254,cs),
(614,274,o),
(598,304,o),
(582,304,cs),
(580,304,ls),
(558,301,o),
(527,297,o),
(505,296,cs),
(427,291,l),
(427,399,l),
(538,407,ls),
(570,409,o),
(607,409,o),
(627,409,cs),
(636,409,o),
(639,417,o),
(639,427,cs),
(639,448,o),
(625,480,o),
(608,480,cs),
(606,480,ls),
(588,477,o),
(562,473,o),
(537,471,cs),
(420,463,l),
(404,468,o),
(387,472,o),
(367,475,c),
(362,475,ls),
(354,475,o),
(352,471,o),
(352,464,cs),
(352,459,o),
(354,450,o),
(355,440,cs),
(357,426,o),
(357,400,o),
(357,381,cs),
(357,287,l),
(333,287,ls),
(324,287,o),
(321,282,o),
(321,274,cs),
(321,256,o),
(338,228,o),
(357,218,c),
(357,67,ls),
(357,51,o),
(350,46,o),
(350,37,cs),
(350,22,o),
(372,-10,o),
(390,-10,cs),
(393,-10,l),
(434,-2,o),
(477,0,o),
(513,0,cs),
(548,0,o),
(597,0,o),
(641,-5,cs)
);
},
{
closed = 1;
nodes = (
(162,108,ls),
(162,73,o),
(159,35,o),
(159,19,cs),
(159,1,o),
(189,-10,o),
(211,-10,cs),
(224,-10,o),
(233,-7,o),
(233,1,cs),
(233,24,o),
(230,66,o),
(230,107,cs),
(230,636,l),
(283,639,ls),
(300,640,o),
(319,640,o),
(335,640,cs),
(373,640,ls),
(382,640,o),
(385,648,o),
(385,658,cs),
(385,679,o),
(371,711,o),
(354,711,cs),
(352,711,ls),
(336,709,o),
(309,705,o),
(282,703,cs),
(109,694,ls),
(96,693,o),
(79,693,o),
(64,693,cs),
(24,693,ls),
(15,693,o),
(12,685,o),
(12,675,cs),
(12,654,o),
(26,622,o),
(43,622,cs),
(45,622,l),
(110,630,l),
(162,633,l)
);
},
{
closed = 1;
nodes = (
(969,-5,ls),
(977,-5,o),
(980,2,o),
(980,12,cs),
(980,33,o),
(965,65,o),
(948,65,cs),
(947,65,ls),
(925,64,o),
(877,64,o),
(841,64,cs),
(805,64,o),
(774,62,o),
(749,60,c),
(749,363,ls),
(749,398,o),
(751,436,o),
(751,453,cs),
(751,470,o),
(719,481,o),
(697,481,cs),
(685,481,o),
(676,478,o),
(676,471,cs),
(676,445,o),
(679,403,o),
(679,364,cs),
(679,70,ls),
(679,54,o),
(672,46,o),
(672,37,cs),
(672,22,o),
(694,-9,o),
(712,-9,cs),
(715,-9,l),
(753,-1,o),
(788,0,o),
(822,0,cs),
(842,0,ls),
(882,0,o),
(940,-2,o),
(968,-5,cs)
);
}
);
vertOrigin = 4;
width = 1000;
}
);
note = cid08055;
unicode = 8481;
}
{
glyphname = Ohm;
layers = (
{
hints = (
{
horizontal = 1;
place = (-2,52);
type = Stem;
},
{
horizontal = 1;
place = (646,65);
type = Stem;
},
{
place = (46,70);
type = Stem;
},
{
place = (622,70);
type = Stem;
}
);
layerId = "481A290F-76EE-4968-957F-52614F4635C1";
shapes = (
{
closed = 1;
nodes = (
(664,-30,ls),
(679,-30,o),
(695,1,o),
(695,21,cs),
(695,30,o),
(692,36,o),
(683,36,cs),
(660,35,o),
(637,35,o),
(614,35,cs),
(544,35,l),
(622,77,o),
(692,193,o),
(692,332,cs),
(692,545,o),
(569,696,o),
(371,696,cs),
(174,696,o),
(46,534,o),
(46,324,cs),
(46,196,o),
(107,82,o),
(206,35,c),
(153,35,ls),
(132,35,o),
(85,35,o),
(55,36,cs),
(46,36,o),
(43,30,o),
(43,21,cs),
(43,1,o),
(59,-30,o),
(74,-30,cs),
(75,-30,ls),
(100,-27,o),
(134,-22,o),
(167,-20,cs),
(176,-20,o),
(211,-17,o),
(236,-17,cs),
(249,-17,o),
(267,-22,o),
(279,-22,cs),
(291,-22,o),
(305,5,o),
(305,27,cs),
(305,39,o),
(301,50,o),
(290,53,cs),
(175,83,o),
(116,189,o),
(116,322,cs),
(116,490,o),
(216,631,o),
(371,631,cs),
(530,631,o),
(622,494,o),
(622,330,cs),
(622,192,o),
(556,81,o),
(448,53,cs),
(437,50,o),
(433,39,o),
(433,27,cs),
(433,5,o),
(447,-22,o),
(459,-22,cs),
(471,-22,o),
(489,-17,o),
(502,-17,cs),
(527,-17,o),
(562,-20,o),
(571,-20,cs),
(604,-22,o),
(638,-27,o),
(663,-30,cs)
);
}
);
width = 745;
}
);
note = cid09355;
unicode = 8486;
}
{
glyphname = alephsymbol.full;
layers = (
{
hints = (
{
horizontal = 1;
place = (-52,766);
type = Stem;
},
{
place = (258,89);
type = Stem;
},
{
place = (605,38);
type = Stem;
},
{
place = (203,92);
type = Stem;
}
);
layerId = "481A290F-76EE-4968-957F-52614F4635C1";
shapes = (
{
closed = 1;
nodes = (
(781,514,ls),
(794,514,o),
(806,531,o),
(806,552,cs),
(806,576,o),
(787,619,o),
(716,627,cs),
(682,631,o),
(655,628,o),
(633,642,cs),
(615,654,o),
(605,669,o),
(603,681,cs),
(601,691,o),
(597,699,o),
(592,699,cs),
(577,699,o),
(562,647,o),
(562,623,cs),
(562,610,o),
(565,598,o),
(571,590,cs),
(591,565,o),
(614,560,o),
(640,545,cs),
(650,540,o),
(660,533,o),
(660,520,cs),
(660,514,o),
(658,506,o),
(652,497,cs),
(630,464,o),
(617,432,o),
(608,372,cs),
(606,356,o),
(605,339,o),
(605,321,cs),
(605,304,o),
(606,286,o),
(606,267,c),
(335,520,o),
(311,543,o),
(267,608,cs),
(254,629,o),
(240,657,o),
(237,678,cs),
(235,692,o),
(232,699,o),
(228,699,cs),
(216,699,o),
(207,657,o),
(207,626,cs),
(207,585,o),
(211,547,o),
(373,393,c),
(299,335,o),
(203,261,o),
(203,193,cs),
(203,137,o),
(258,107,o),
(258,49,cs),
(258,5,o),
(235,-19,o),
(217,-42,cs),
(211,-50,o),
(208,-56,o),
(208,-61,cs),
(208,-65,o),
(210,-67,o),
(215,-67,cs),
(226,-67,o),
(347,-11,o),
(347,82,cs),
(347,135,o),
(295,165,o),
(295,221,cs),
(295,279,o),
(336,323,o),
(399,368,c),
(468,303,ls),
(618,166,o),
(752,40,o),
(763,-38,cs),
(764,-51,o),
(769,-57,o),
(774,-57,cs),
(785,-57,o),
(793,-23,o),
(793,16,cs),
(793,60,o),
(786,94,o),
(646,228,c),
(644,249,o),
(643,268,o),
(643,285,cs),
(643,433,o),
(713,517,o),
(750,517,cs),
(760,517,o),
(770,515,o),
(780,514,cs)
);
}
);
vertOrigin = 35;
width = 1000;
}
);
note = cid12089;
unicode = 8501;
}
{
glyphname = onetenth;
layers = (
{
hints = (
{
horizontal = 1;
place = (-65,59);
type = Stem;
},
{
horizontal = 1;
place = (330,58);
type = Stem;
},
{
place = (211,60);
type = Stem;
},
{
place = (600,55);
type = Stem;
},
{
place = (705,54);
type = Stem;
},
{
place = (926,54);
type = Stem;
}
);
layerId = "481A290F-76EE-4968-957F-52614F4635C1";
shapes = (
{
closed = 1;
nodes = (
(273,343,ls),
(271,372,o),
(271,411,o),
(271,433,cs),
(271,678,ls),
(271,701,o),
(275,722,o),
(275,735,cs),
(275,752,o),
(252,769,o),
(238,769,cs),
(225,769,o),
(208,744,o),
(200,738,cs),
(176,720,o),
(152,702,o),
(122,691,cs),
(115,688,o),
(112,684,o),
(112,680,cs),
(112,669,o),
(132,655,o),
(149,655,cs),
(152,655,o),
(154,655,o),
(156,656,c),
(175,659,o),
(191,667,o),
(211,679,c),
(211,428,ls),
(211,411,o),
(209,374,o),
(209,358,cs),
(209,357,ls),
(209,339,o),
(233,327,o),
(252,327,cs),
(263,327,o),
(273,332,o),
(273,342,cs)
);
},
{
closed = 1;
nodes = (
(841,690,ls),
(868,717,o),
(899,743,o),
(923,766,cs),
(927,769,o),
(928,774,o),
(928,780,cs),
(928,799,o),
(912,828,o),
(896,828,cs),
(892,828,o),
(888,826,o),
(884,821,cs),
(859,789,o),
(827,756,o),
(802,730,cs),
(111,35,ls),
(83,7,o),
(55,-19,o),
(29,-40,cs),
(25,-43,o),
(24,-48,o),
(24,-54,cs),
(24,-73,o),
(40,-102,o),
(56,-102,cs),
(60,-102,o),
(64,-100,o),
(68,-96,cs),
(93,-66,o),
(124,-31,o),
(150,-5,cs)
);
},
{
closed = 1;
nodes = (
(657,-55,ls),
(655,-26,o),
(655,13,o),
(655,35,cs),
(655,280,ls),
(655,303,o),
(659,324,o),
(659,337,cs),
(659,354,o),
(638,371,o),
(625,371,cs),
(613,371,o),
(597,346,o),
(590,340,cs),
(568,322,o),
(546,304,o),
(518,293,cs),
(512,290,o),
(509,286,o),
(509,282,cs),
(509,271,o),
(527,257,o),
(543,257,cs),
(546,257,o),
(548,257,o),
(549,258,c),
(567,261,o),
(582,269,o),
(600,281,c),
(600,30,ls),
(600,13,o),
(598,-24,o),
(598,-40,cs),
(598,-41,ls),
(598,-59,o),
(620,-71,o),
(638,-71,cs),
(648,-71,o),
(657,-66,o),
(657,-56,cs)
);
},
{
closed = 1;
nodes = (
(774,336,o),
(770,338,o),
(765,338,cs),
(740,338,o),
(705,234,o),
(705,139,cs),
(705,16,o),
(744,-80,o),
(842,-80,cs),
(935,-80,o),
(980,19,o),
(980,149,cs),
(980,283,o),
(937,373,o),
(849,373,cs),
(824,373,o),
(796,358,o),
(777,334,c)
);
},
{
closed = 1;
nodes = (
(779,-21,o),
(759,46,o),
(759,141,cs),
(759,250,o),
(806,315,o),
(847,315,cs),
(904,315,o),
(926,239,o),
(926,152,cs),
(926,47,o),
(895,-21,o),
(840,-21,cs)
);
}
);
width = 1000;
}
);
note = cid09806;
unicode = 8530;
}
{
color = 4;
glyphname = "Eleven-roman";
layers = (
{
hints = (
{
horizontal = 1;
place = (-10,717);
type = Stem;
},
{
place = (731,72);
type = Stem;
}
);
layerId = "481A290F-76EE-4968-957F-52614F4635C1";
shapes = (
{
closed = 1;
nodes = (
(520,70,ls),
(535,44,o),
(552,4,o),
(560,-15,cs),
(564,-22,o),
(572,-25,o),
(582,-25,cs),
(607,-25,o),
(641,-9,o),
(641,5,cs),
(641,7,o),
(640,8,o),
(639,10,c),
(619,36,o),
(592,79,o),
(577,105,cs),
(430,354,l),
(565,574,ls),
(579,596,o),
(599,632,o),
(612,648,c),
(613,650,o),
(614,652,o),
(614,654,cs),
(614,670,o),
(579,689,o),
(558,689,cs),
(551,689,o),
(545,687,o),
(543,682,cs),
(535,664,o),
(519,629,o),
(505,606,cs),
(391,420,l),
(280,608,ls),
(267,630,o),
(253,663,o),
(244,684,cs),
(242,690,o),
(234,692,o),
(224,692,cs),
(202,692,o),
(169,679,o),
(169,664,cs),
(169,661,o),
(170,659,o),
(172,656,cs),
(188,634,o),
(209,599,o),
(221,576,c),
(352,355,l),
(199,105,ls),
(184,80,o),
(159,45,o),
(133,10,cs),
(131,7,o),
(130,4,o),
(130,2,cs),
(130,-13,o),
(161,-25,o),
(185,-25,cs),
(198,-25,o),
(208,-22,o),
(211,-15,cs),
(224,12,o),
(243,49,o),
(256,70,cs),
(390,289,l)
);
},
{
closed = 1;
nodes = (
(731,132,ls),
(731,97,o),
(729,59,o),
(729,43,cs),
(729,26,o),
(762,15,o),
(785,15,cs),
(797,15,o),
(806,18,o),
(806,25,cs),
(806,48,o),
(803,90,o),
(803,131,cs),
(803,553,ls),
(803,588,o),
(805,626,o),
(805,642,cs),
(805,659,o),
(772,670,o),
(749,670,cs),
(737,670,o),
(728,667,o),
(728,660,cs),
(728,637,o),
(731,595,o),
(731,554,cs)
);
},
{
closed = 1;
nodes = (
(836,687,o),
(796,684,o),
(759,683,cs),
(731,682,o),
(679,681,o),
(659,681,cs),
(647,681,o),
(644,670,o),
(644,657,cs),
(645,639,o),
(667,623,o),
(679,624,cs),
(706,626,o),
(743,625,o),
(770,627,cs),
(796,629,o),
(836,629,o),
(867,630,cs),
(878,630,o),
(882,641,o),
(881,654,cs),
(881,672,o),
(864,687,o),
(853,687,cs)
);
},
{
closed = 1;
nodes = (
(841,58,o),
(799,55,o),
(759,53,cs),
(731,52,o),
(696,51,o),
(676,51,cs),
(664,51,o),
(661,40,o),
(661,27,cs),
(662,9,o),
(684,-7,o),
(696,-6,cs),
(723,-4,o),
(746,-4,o),
(773,-2,cs),
(799,0,o),
(841,0,o),
(872,1,cs),
(883,1,o),
(887,12,o),
(886,25,cs),
(886,43,o),
(869,58,o),
(858,58,cs)
);
}
);
vertOrigin = 20;
width = 1000;
}
);
note = cid08225;
unicode = 8554;
}
{
glyphname = "four-roman";
layers = (
{
hints = (
{
horizontal = 1;
place = (590,108);
type = Stem;
},
{
place = (241,99);
type = Stem;
},
{
place = (257,69);
type = Stem;
}
);
layerId = "481A290F-76EE-4968-957F-52614F4635C1";
shapes = (
{
closed = 1;
nodes = (
(340,665,o),
(315,698,o),
(291,698,cs),
(257,698,o),
(241,676,o),
(241,650,cs),
(241,622,o),
(265,590,o),
(291,590,cs),
(322,590,o),
(340,611,o),
(340,636,cs)
);
},
{
closed = 1;
nodes = (
(257,105,ls),
(257,91,o),
(255,33,o),
(255,17,cs),
(255,1,o),
(288,-10,o),
(310,-10,cs),
(321,-10,o),
(329,-7,o),
(329,-1,cs),
(329,22,o),
(326,93,o),
(326,105,cs),
(326,368,ls),
(326,392,o),
(328,441,o),
(328,457,cs),
(328,473,o),
(295,484,o),
(273,484,cs),
(262,484,o),
(254,481,o),
(254,475,cs),
(254,452,o),
(257,387,o),
(257,368,cs)
);
},
{
closed = 1;
nodes = (
(612,90,l),
(499,405,ls),
(491,426,o),
(485,452,o),
(481,467,cs),
(478,477,o),
(462,481,o),
(445,481,cs),
(425,481,o),
(403,475,o),
(403,463,cs),
(403,461,o),
(403,460,o),
(404,458,cs),
(416,433,o),
(427,411,o),
(435,389,cs),
(563,46,ls),
(574,20,o),
(574,12,o),
(585,1,cs),
(593,-8,o),
(608,-18,o),
(622,-18,cs),
(633,-18,o),
(642,-12,o),
(647,5,cs),
(653,25,o),
(661,46,o),
(669,65,cs),
(805,386,ls),
(812,403,o),
(827,433,o),
(837,451,cs),
(838,453,o),
(839,455,o),
(839,457,cs),
(839,473,o),
(807,486,o),
(785,486,cs),
(775,486,o),
(767,483,o),
(765,476,cs),
(758,451,o),
(751,427,o),
(742,405,cs)
);
}
);
vertOrigin = 4;
width = 1000;
}
);
note = cid08095;
unicode = 8563;
}
{
glyphname = "nine-roman";
layers = (
{
hints = (
{
horizontal = 1;
place = (590,108);
type = Stem;
},
{
place = (241,99);
type = Stem;
},
{
place = (257,69);
type = Stem;
}
);
layerId = "481A290F-76EE-4968-957F-52614F4635C1";
shapes = (
{
closed = 1;
nodes = (
(340,665,o),
(315,698,o),
(291,698,cs),
(257,698,o),
(241,676,o),
(241,650,cs),
(241,622,o),
(265,590,o),
(291,590,cs),
(322,590,o),
(340,611,o),
(340,636,cs)
);
},
{
closed = 1;
nodes = (
(257,105,ls),
(257,91,o),
(255,33,o),
(255,17,cs),
(255,1,o),
(288,-10,o),
(310,-10,cs),
(321,-10,o),
(329,-7,o),
(329,-1,cs),
(329,22,o),
(326,93,o),
(326,105,cs),
(326,368,ls),
(326,392,o),
(328,441,o),
(328,457,cs),
(328,473,o),
(295,484,o),
(273,484,cs),
(262,484,o),
(254,481,o),
(254,475,cs),
(254,452,o),
(257,387,o),
(257,368,cs)
);
},
{
closed = 1;
nodes = (
(709,58,ls),
(721,42,o),
(738,15,o),
(747,0,cs),
(751,-6,o),
(761,-9,o),
(773,-9,cs),
(796,-9,o),
(825,1,o),
(825,13,cs),
(825,15,o),
(825,17,o),
(823,19,cs),
(805,39,o),
(776,70,o),
(760,92,cs),
(648,245,l),
(758,396,ls),
(772,415,o),
(790,435,o),
(810,455,cs),
(812,457,o),
(813,458,o),
(813,460,cs),
(813,471,o),
(780,483,o),
(758,483,cs),
(749,483,o),
(743,482,o),
(740,477,cs),
(733,465,o),
(721,444,o),
(709,428,cs),
(612,295,l),
(518,424,ls),
(507,439,o),
(494,460,o),
(487,473,cs),
(485,477,o),
(478,479,o),
(469,479,cs),
(447,479,o),
(412,467,o),
(412,456,cs),
(412,454,o),
(413,453,o),
(415,451,cs),
(435,431,o),
(455,408,o),
(467,392,cs),
(574,244,l),
(461,90,ls),
(444,68,o),
(418,37,o),
(398,17,cs),
(396,15,o),
(395,13,o),
(395,10,cs),
(395,-1,o),
(423,-11,o),
(446,-11,cs),
(458,-11,o),
(468,-8,o),
(472,-2,cs),
(482,14,o),
(498,40,o),
(510,56,cs),
(611,194,l)
);
}
);
vertOrigin = 4;
width = 1000;
}
);
note = cid08100;
unicode = 8568;
}
{
glyphname = "eleven-roman";
layers = (
{
hints = (
{
horizontal = 1;
place = (590,108);
type = Stem;
},
{
place = (693,99);
type = Stem;
},
{
place = (709,69);
type = Stem;
}
);
layerId = "481A290F-76EE-4968-957F-52614F4635C1";
shapes = (
{
closed = 1;
nodes = (
(792,650,o),
(767,683,o),
(743,683,cs),
(709,683,o),
(693,661,o),
(693,635,cs),
(693,607,o),
(717,575,o),
(743,575,cs),
(774,575,o),
(792,596,o),
(792,621,cs)
);
},
{
closed = 1;
nodes = (
(709,90,ls),
(709,76,o),
(707,18,o),
(707,2,cs),
(707,-14,o),
(740,-25,o),
(762,-25,cs),
(773,-25,o),
(781,-22,o),
(781,-16,cs),
(781,7,o),
(778,78,o),
(778,90,cs),
(778,353,ls),
(778,377,o),
(780,426,o),
(780,442,cs),
(780,458,o),
(747,469,o),
(725,469,cs),
(714,469,o),
(706,466,o),
(706,460,cs),
(706,437,o),
(709,372,o),
(709,353,cs)
);
},
{
closed = 1;
nodes = (
(513,43,ls),
(525,27,o),
(542,0,o),
(551,-15,cs),
(555,-21,o),
(565,-24,o),
(577,-24,cs),
(600,-24,o),
(629,-14,o),
(629,-2,cs),
(629,0,o),
(629,2,o),
(627,4,cs),
(609,24,o),
(580,55,o),
(564,77,cs),
(452,230,l),
(562,381,ls),
(576,400,o),
(594,420,o),
(614,440,cs),
(616,442,o),
(617,443,o),
(617,445,cs),
(617,456,o),
(584,468,o),
(562,468,cs),
(553,468,o),
(547,467,o),
(544,462,cs),
(537,450,o),
(525,429,o),
(513,413,cs),
(416,280,l),
(322,409,ls),
(311,424,o),
(298,445,o),
(291,458,cs),
(289,462,o),
(282,464,o),
(273,464,cs),
(251,464,o),
(216,452,o),
(216,441,cs),
(216,439,o),
(217,438,o),
(219,436,cs),
(239,416,o),
(259,393,o),
(271,377,cs),
(378,229,l),
(265,75,ls),
(248,53,o),
(222,22,o),
(202,2,cs),
(200,0,o),
(199,-2,o),
(199,-5,cs),
(199,-16,o),
(227,-26,o),
(250,-26,cs),
(262,-26,o),
(272,-23,o),
(276,-17,cs),
(286,-1,o),
(302,25,o),
(314,41,cs),
(415,179,l)
);
}
);
vertOrigin = 20;
width = 1000;
}
);
note = cid08298;
unicode = 8570;
}
{
glyphname = downArrow;
layers = (
{
hints = (
{
horizontal = 1;
place = (-71,883);
type = Stem;
},
{
place = (471,58);
type = Stem;
}
);
layerId = "481A290F-76EE-4968-957F-52614F4635C1";
shapes = (
{
closed = 1;
nodes = (
(471,55,l),
(438,114,o),
(403,164,o),
(382,190,cs),
(378,195,o),
(372,197,o),
(366,197,cs),
(350,197,o),
(330,182,o),
(330,168,cs),
(330,165,o),
(331,161,o),
(333,158,cs),
(344,143,o),
(360,126,o),
(367,116,cs),
(402,67,o),
(446,8,o),
(475,-57,cs),
(479,-66,o),
(489,-71,o),
(500,-71,cs),
(511,-71,o),
(522,-66,o),
(526,-57,cs),
(556,8,o),
(598,67,o),
(633,116,cs),
(640,126,o),
(656,143,o),
(667,158,cs),
(669,161,o),
(670,165,o),
(670,168,cs),
(670,182,o),
(650,197,o),
(634,197,cs),
(628,197,o),
(622,195,o),
(618,190,cs),
(597,164,o),
(562,114,o),
(529,55,c),
(529,789,ls),
(529,804,o),
(514,812,o),
(499,812,cs),
(485,812,o),
(471,805,o),
(471,789,cs)
);
}
);
width = 1000;
}
);
note = cid00739;
unicode = 8595;
}
{
glyphname = leftAndRightArrow;
layers = (
{
hints = (
{
horizontal = 1;
place = (167,67);
type = Stem;
},
{
horizontal = 1;
place = (523,67);
type = Stem;
},
{
place = (56,889);
type = Stem;
}
);
layerId = "481A290F-76EE-4968-957F-52614F4635C1";
shapes = (
{
closed = 1;
nodes = (
(919,508,ls),
(932,508,o),
(939,525,o),
(939,542,cs),
(939,558,o),
(932,575,o),
(919,575,cs),
(203,575,l),
(313,645,o),
(334,659,o),
(334,676,cs),
(334,694,o),
(316,714,o),
(299,714,cs),
(294,714,o),
(290,713,o),
(285,709,cs),
(226,663,o),
(142,610,o),
(78,580,cs),
(64,573,o),
(56,557,o),
(56,541,cs),
(56,525,o),
(64,509,o),
(78,502,cs),
(143,472,o),
(226,420,o),
(286,373,cs),
(290,370,o),
(295,368,o),
(300,368,cs),
(317,368,o),
(334,388,o),
(334,406,cs),
(334,421,o),
(334,424,o),
(203,508,c)
);
},
{
closed = 1;
nodes = (
(798,152,l),
(667,68,o),
(667,65,o),
(667,50,cs),
(667,32,o),
(684,12,o),
(701,12,cs),
(706,12,o),
(711,14,o),
(715,17,cs),
(775,64,o),
(858,116,o),
(923,146,cs),
(938,153,o),
(945,169,o),
(945,185,cs),
(945,201,o),
(938,217,o),
(923,224,cs),
(859,254,o),
(775,307,o),
(716,353,cs),
(711,357,o),
(707,358,o),
(702,358,cs),
(685,358,o),
(667,338,o),
(667,320,cs),
(667,303,o),
(688,289,o),
(798,219,c),
(82,219,ls),
(69,219,o),
(63,202,o),
(63,186,cs),
(63,169,o),
(69,152,o),
(82,152,cs)
);
}
);
width = 1000;
}
);
note = cid08309;
unicode = 8646;
}
{
glyphname = rightOverLeftHarpoon;
layers = (
{
hints = (
{
horizontal = 1;
place = (177,58);
type = Stem;
},
{
horizontal = 1;
place = (530,58);
type = Stem;
},
{
place = (53,892);
type = Stem;
}
);
layerId = "481A290F-76EE-4968-957F-52614F4635C1";
shapes = (
{
closed = 1;
nodes = (
(921,162,ls),
(937,162,o),
(945,177,o),
(945,192,cs),
(945,206,o),
(938,220,o),
(924,220,cs),
(87,220,ls),
(66,220,o),
(55,209,o),
(55,196,cs),
(55,186,o),
(63,174,o),
(77,167,cs),
(169,120,o),
(215,84,o),
(292,24,cs),
(295,22,o),
(298,20,o),
(302,20,cs),
(317,20,o),
(335,42,o),
(335,59,cs),
(335,67,o),
(332,81,o),
(194,162,c)
);
},
{
closed = 1;
nodes = (
(911,515,ls),
(932,515,o),
(943,526,o),
(943,539,cs),
(943,549,o),
(935,561,o),
(921,568,cs),
(856,601,o),
(796,640,o),
(747,677,cs),
(706,711,ls),
(703,713,o),
(700,715,o),
(696,715,cs),
(681,715,o),
(663,693,o),
(663,676,cs),
(663,668,o),
(666,654,o),
(804,573,c),
(77,573,ls),
(61,573,o),
(53,558,o),
(53,543,cs),
(53,529,o),
(60,515,o),
(74,515,cs)
);
}
);
width = 1000;
}
);
note = cid12206;
unicode = 8652;
}
{
glyphname = rightDoubleArrow.full;
layers = (
{
hints = (
{
horizontal = 1;
place = (193,61);
type = Stem;
},
{
horizontal = 1;
place = (480,61);
type = Stem;
},
{
place = (73,865);
type = Stem;
}
);
layerId = "481A290F-76EE-4968-957F-52614F4635C1";
shapes = (
{
closed = 1;
nodes = (
(930,332,ls),
(935,337,o),
(938,344,o),
(938,351,cs),
(938,359,o),
(935,366,o),
(929,372,cs),
(622,679,ls),
(617,684,o),
(611,686,o),
(605,686,cs),
(588,686,o),
(572,670,o),
(572,654,cs),
(572,648,o),
(574,642,o),
(579,637,cs),
(689,526,l),
(94,526,ls),
(80,526,o),
(73,511,o),
(73,496,cs),
(73,481,o),
(80,465,o),
(94,465,cs),
(752,465,l),
(866,353,l),
(752,239,l),
(94,239,ls),
(80,239,o),
(73,224,o),
(73,209,cs),
(73,194,o),
(80,178,o),
(94,178,cs),
(689,178,l),
(579,68,ls),
(574,63,o),
(571,57,o),
(571,51,cs),
(571,35,o),
(588,19,o),
(605,19,cs),
(611,19,o),
(618,21,o),
(623,26,cs)
);
}
);
width = 1000;
}
);
note = cid00752;
unicode = 8658;
}
{
glyphname = gradient.full;
layers = (
{
hints = (
{
horizontal = 1;
place = (642,60);
type = Stem;
},
{
place = (193,622);
type = Stem;
}
);
layerId = "481A290F-76EE-4968-957F-52614F4635C1";
shapes = (
{
closed = 1;
nodes = (
(481,20,ls),
(485,11,o),
(493,6,o),
(500,6,cs),
(508,6,o),
(515,11,o),
(520,21,cs),
(810,643,ls),
(813,650,o),
(815,656,o),
(815,662,cs),
(815,677,o),
(803,687,o),
(784,687,cs),
(224,687,ls),
(205,687,o),
(193,677,o),
(193,662,cs),
(193,656,o),
(195,650,o),
(198,643,cs)
);
},
{
closed = 1;
nodes = (
(518,120,l),
(288,627,l),
(754,627,l)
);
}
);
width = 1000;
}
);
note = cid00760;
unicode = 8711;
}
{
glyphname = elementSmall.full;
layers = (
{
hints = (
{
horizontal = 1;
place = (-5,58);
type = Stem;
},
{
horizontal = 1;
place = (232,61);
type = Stem;
},
{
horizontal = 1;
place = (464,57);
type = Stem;
},
{
place = (276,80);
type = Stem;
}
);
layerId = "481A290F-76EE-4968-957F-52614F4635C1";
shapes = (
{
closed = 1;
nodes = (
(490,217,ls),
(505,217,o),
(577,216,o),
(600,216,cs),
(620,216,o),
(630,239,o),
(630,258,cs),
(630,270,o),
(625,281,o),
(616,281,cs),
(596,281,o),
(550,278,o),
(529,278,cs),
(356,278,l),
(365,399,o),
(447,449,o),
(527,449,cs),
(595,449,o),
(649,426,o),
(686,365,cs),
(687,363,o),
(689,363,o),
(692,363,cs),
(697,363,o),
(705,366,o),
(709,368,c),
(714,372,o),
(719,379,o),
(719,385,cs),
(719,395,o),
(661,506,o),
(527,506,cs),
(374,506,o),
(276,398,o),
(276,243,cs),
(276,241,ls),
(276,87,o),
(376,-20,o),
(528,-20,cs),
(650,-20,o),
(721,84,o),
(721,102,cs),
(721,108,o),
(716,114,o),
(711,118,c),
(707,120,o),
(700,122,o),
(694,122,cs),
(691,122,o),
(688,121,o),
(686,119,c),
(649,58,o),
(596,38,o),
(528,38,cs),
(446,38,o),
(365,92,o),
(356,217,c)
);
}
);
vertOrigin = 107;
width = 1000;
}
);
note = cid12091;
unicode = 8714;
}
{
glyphname = angle.full;
layers = (
{
hints = (
{
horizontal = 1;
place = (53,60);
type = Stem;
},
{
place = (179,677);
type = Stem;
}
);
layerId = "481A290F-76EE-4968-957F-52614F4635C1";
shapes = (
{
closed = 1;
nodes = (
(833,117,ls),
(805,115,o),
(763,113,o),
(743,113,cs),
(286,107,l),
(694,567,ls),
(722,599,o),
(749,625,o),
(770,649,cs),
(773,652,o),
(774,655,o),
(774,660,cs),
(774,677,o),
(752,704,o),
(732,704,cs),
(726,704,o),
(720,701,o),
(716,695,cs),
(694,663,o),
(665,629,o),
(638,598,cs),
(186,87,ls),
(181,82,o),
(179,76,o),
(179,70,cs),
(179,58,o),
(189,47,o),
(208,47,cs),
(742,53,ls),
(763,53,o),
(809,53,o),
(839,52,cs),
(850,52,o),
(856,64,o),
(856,78,cs),
(856,96,o),
(847,117,o),
(834,117,cs)
);
}
);
width = 1000;
}
);
note = cid00756;
unicode = 8736;
}
{
glyphname = parallel;
layers = (
{
layerId = "481A290F-76EE-4968-957F-52614F4635C1";
shapes = (
{
closed = 1;
nodes = (
(288,132,ls),
(282,115,o),
(271,91,o),
(260,71,cs),
(258,67,o),
(257,62,o),
(257,58,cs),
(257,38,o),
(279,20,o),
(296,20,cs),
(303,20,o),
(310,24,o),
(313,33,cs),
(321,59,o),
(330,83,o),
(339,109,cs),
(509,578,ls),
(518,602,o),
(528,623,o),
(537,643,c),
(538,644,o),
(538,646,o),
(538,647,cs),
(538,662,o),
(510,689,o),
(493,689,cs),
(487,689,o),
(482,685,o),
(480,676,cs),
(473,649,o),
(463,617,o),
(456,598,cs)
);
},
{
closed = 1;
nodes = (
(488,132,ls),
(482,115,o),
(471,91,o),
(460,71,cs),
(458,67,o),
(457,62,o),
(457,58,cs),
(457,38,o),
(479,20,o),
(496,20,cs),
(503,20,o),
(510,24,o),
(513,33,cs),
(521,59,o),
(530,83,o),
(539,109,cs),
(709,578,ls),
(718,602,o),
(728,623,o),
(737,643,c),
(738,644,o),
(738,646,o),
(738,647,cs),
(738,662,o),
(710,689,o),
(693,689,cs),
(687,689,o),
(682,685,o),
(680,676,cs),
(673,649,o),
(663,617,o),
(656,598,cs)
);
}
);
width = 1000;
}
);
unicode = 8741;
}
{
glyphname = reversedtilde.full;
layers = (
{
hints = (
{
horizontal = 1;
place = (163,63);
type = Stem;
},
{
horizontal = 1;
place = (510,63);
type = Stem;
},
{
place = (96,64);
type = Stem;
},
{
place = (840,64);
type = Stem;
}
);
layerId = "481A290F-76EE-4968-957F-52614F4635C1";
shapes = (
{
closed = 1;
nodes = (
(659,153,ls),
(785,153,o),
(904,249,o),
(904,383,cs),
(904,491,o),
(830,558,o),
(719,558,cs),
(626,558,o),
(554,512,o),
(502,409,cs),
(459,323,o),
(399,211,o),
(274,211,cs),
(196,211,o),
(160,252,o),
(160,323,cs),
(160,418,o),
(244,493,o),
(342,493,cs),
(354,493,o),
(365,492,o),
(376,490,cs),
(378,490,ls),
(386,490,o),
(390,500,o),
(390,512,cs),
(390,531,o),
(380,557,o),
(362,557,cs),
(173,557,o),
(96,420,o),
(96,323,cs),
(96,214,o),
(167,148,o),
(274,148,cs),
(374,148,o),
(457,206,o),
(505,287,cs),
(523,317,o),
(544,354,o),
(555,374,cs),
(597,456,o),
(635,495,o),
(719,495,cs),
(800,495,o),
(840,449,o),
(840,383,cs),
(840,285,o),
(772,208,o),
(646,189,cs),
(630,187,o),
(621,178,o),
(621,171,cs),
(621,162,o),
(631,154,o),
(651,153,cs)
);
}
);
width = 1000;
}
);
note = cid00766;
unicode = 8765;
}
{
glyphname = lessorequivalent.full;
layers = (
{
hints = (
{
horizontal = 1;
place = (25,64);
type = Stem;
},
{
place = (186,624);
type = Stem;
},
{
horizontal = 1;
place = (110,64);
type = Stem;
}
);
layerId = "481A290F-76EE-4968-957F-52614F4635C1";
shapes = (
{
closed = 1;
nodes = (
(390,493,o),
(607,561,o),
(705,596,cs),
(726,603,o),
(749,613,o),
(779,621,cs),
(785,623,o),
(788,632,o),
(788,643,cs),
(788,665,o),
(778,693,o),
(764,693,cs),
(762,693,o),
(760,692,o),
(758,691,cs),
(731,675,o),
(701,661,o),
(677,651,cs),
(598,619,o),
(339,536,o),
(249,510,cs),
(204,496,o),
(200,487,o),
(200,471,cs),
(200,453,o),
(207,430,o),
(219,423,cs),
(228,418,o),
(239,416,o),
(250,413,cs),
(261,410,o),
(642,299,o),
(761,232,cs),
(763,231,o),
(765,230,o),
(767,230,cs),
(780,230,o),
(786,253,o),
(786,274,cs),
(786,289,o),
(783,303,o),
(775,305,cs),
(739,317,o),
(710,328,o),
(690,335,cs),
(596,368,o),
(391,426,o),
(279,460,c)
);
},
{
closed = 1;
nodes = (
(810,114,o),
(805,119,o),
(798,119,cs),
(793,119,o),
(788,117,o),
(782,112,cs),
(753,88,o),
(708,74,o),
(660,74,cs),
(613,74,o),
(556,92,o),
(512,114,cs),
(457,141,o),
(394,159,o),
(337,159,cs),
(271,159,o),
(186,96,o),
(186,64,cs),
(186,56,o),
(190,50,o),
(198,50,cs),
(202,50,o),
(208,52,o),
(214,57,cs),
(243,81,o),
(288,95,o),
(336,95,cs),
(379,95,o),
(435,79,o),
(484,55,cs),
(541,27,o),
(607,10,o),
(659,10,cs),
(732,10,o),
(810,75,o),
(810,106,cs)
);
}
);
width = 1000;
}
);
note = cid12121;
unicode = 8818;
}
{
glyphname = subset.full;
layers = (
{
hints = (
{
horizontal = 1;
place = (76,62);
type = Stem;
},
{
horizontal = 1;
place = (594,62);
type = Stem;
},
{
place = (150,67);
type = Stem;
}
);
layerId = "481A290F-76EE-4968-957F-52614F4635C1";
shapes = (
{
closed = 1;
nodes = (
(820,61,ls),
(834,61,o),
(840,77,o),
(840,92,cs),
(840,108,o),
(834,123,o),
(820,123,cs),
(422,123,ls),
(292,123,o),
(217,238,o),
(217,353,cs),
(217,469,o),
(293,579,o),
(422,579,cs),
(820,579,ls),
(834,579,o),
(840,595,o),
(840,610,cs),
(840,626,o),
(834,641,o),
(820,641,cs),
(417,641,ls),
(260,641,o),
(150,507,o),
(150,353,cs),
(150,192,o),
(260,61,o),
(417,61,cs)
);
}
);
width = 1000;
}
);
note = cid00745;
unicode = 8834;
}
{
glyphname = parenrightupperhook;
layers = (
{
hints = (
{
horizontal = 1;
place = (-120,999);
type = Stem;
},
{
place = (460,84);
type = Stem;
}
);
layerId = "481A290F-76EE-4968-957F-52614F4635C1";
shapes = (
{
closed = 1;
nodes = (
(544,-135,l),
(544,286,o),
(326,663,o),
(45,856,cs),
(36,862,o),
(29,864,o),
(22,864,cs),
(11,864,o),
(3,856,o),
(3,846,cs),
(3,839,o),
(7,830,o),
(17,822,cs),
(268,614,o),
(460,256,o),
(460,-135,c)
);
}
);
width = 1000;
}
);
note = cid12145;
unicode = 9118;
}
{
glyphname = rightsquarebracketuppercorner;
layers = (
{
hints = (
{
horizontal = 1;
place = (602,56);
type = Stem;
},
{
place = (469,62);
type = Stem;
}
);
layerId = "481A290F-76EE-4968-957F-52614F4635C1";
shapes = (
{
closed = 1;
nodes = (
(531,-135,l),
(531,547,ls),
(531,563,o),
(534,601,o),
(534,610,cs),
(534,624,o),
(519,645,o),
(502,645,cs),
(498,645,l),
(490,643,o),
(437,643,o),
(374,643,cs),
(280,643,o),
(166,644,o),
(153,644,cs),
(125,644,o),
(83,646,o),
(70,646,cs),
(61,646,o),
(57,638,o),
(57,628,cs),
(57,610,o),
(69,585,o),
(85,585,cs),
(96,585,o),
(151,587,o),
(217,587,cs),
(469,587,l),
(469,-135,l)
);
}
);
width = 1000;
}
);
note = cid12153;
unicode = 9124;
}
{
glyphname = leftcurlybracketmiddlepiece;
layers = (
{
hints = (
{
horizontal = 1;
place = (-120,1000);
type = Stem;
},
{
place = (472,64);
type = Stem;
}
);
layerId = "481A290F-76EE-4968-957F-52614F4635C1";
shapes = (
{
closed = 1;
nodes = (
(530,-135,l),
(533,34,o),
(536,202,o),
(536,253,cs),
(536,306,o),
(514,378,o),
(465,393,c),
(526,427,o),
(536,474,o),
(536,529,cs),
(536,550,o),
(534,680,o),
(533,865,c),
(470,865,l),
(471,679,o),
(471,548,o),
(471,532,cs),
(471,458,o),
(453,428,o),
(395,428,cs),
(390,428,o),
(385,429,o),
(380,429,cs),
(379,429,ls),
(367,429,o),
(362,420,o),
(362,408,cs),
(362,390,o),
(374,368,o),
(392,367,cs),
(461,363,o),
(472,292,o),
(472,249,cs),
(472,211,o),
(471,31,o),
(468,-135,c)
);
}
);
width = 1000;
}
);
note = cid08179;
unicode = 9128;
}
{
glyphname = one_five.circled;
layers = (
{
hints = (
{
horizontal = 1;
place = (-112,49);
type = Stem;
},
{
horizontal = 1;
place = (76,50);
type = Stem;
},
{
horizontal = 1;
place = (393,48);
type = Stem;
},
{
horizontal = 1;
place = (587,50);
type = Stem;
},
{
horizontal = 1;
place = (798,49);
type = Stem;
},
{
place = (20,49);
type = Stem;
},
{
place = (273,50);
type = Stem;
},
{
place = (730,49);
type = Stem;
},
{
place = (931,49);
type = Stem;
}
);
layerId = "481A290F-76EE-4968-957F-52614F4635C1";
shapes = (
{
closed = 1;
nodes = (
(980,632,o),
(765,847,o),
(500,847,cs),
(235,847,o),
(20,632,o),
(20,367,cs),
(20,102,o),
(235,-112,o),
(500,-112,cs),
(765,-112,o),
(980,102,o),
(980,367,cs)
);
},
{
closed = 1;
nodes = (
(931,129,o),
(738,-63,o),
(500,-63,cs),
(262,-63,o),
(69,129,o),
(69,367,cs),
(69,605,o),
(262,798,o),
(500,798,cs),
(738,798,o),
(931,605,o),
(931,367,cs)
);
},
{
closed = 1;
nodes = (
(594,126,ls),
(539,126,o),
(498,164,o),
(473,205,cs),
(470,209,o),
(468,210,o),
(465,210,cs),
(454,210,o),
(441,185,o),
(441,166,cs),
(441,135,o),
(520,76,o),
(594,76,cs),
(725,76,o),
(779,167,o),
(779,268,cs),
(779,377,o),
(705,440,o),
(626,441,cs),
(618,441,ls),
(574,441,o),
(539,426,o),
(513,402,c),
(540,581,l),
(692,593,ls),
(713,595,o),
(736,596,o),
(748,596,cs),
(755,597,o),
(757,602,o),
(757,609,cs),
(757,625,o),
(746,648,o),
(735,648,cs),
(734,648,ls),
(721,645,o),
(701,644,o),
(687,643,cs),
(537,632,l),
(528,636,o),
(518,639,o),
(509,639,cs),
(502,639,o),
(496,637,o),
(496,630,cs),
(496,620,o),
(496,606,o),
(495,595,cs),
(468,405,l),
(460,381,o),
(460,369,o),
(460,369,c),
(460,348,o),
(476,331,o),
(488,331,cs),
(489,331,o),
(492,332,o),
(494,334,cs),
(501,341,o),
(510,351,o),
(514,354,cs),
(539,378,o),
(579,393,o),
(616,393,cs),
(619,393,ls),
(681,393,o),
(730,347,o),
(730,268,cs),
(730,193,o),
(687,126,o),
(596,126,cs)
);
},
{
closed = 1;
nodes = (
(273,171,ls),
(273,154,o),
(272,113,o),
(272,100,cs),
(272,87,o),
(295,78,o),
(310,78,cs),
(319,78,o),
(325,81,o),
(325,87,cs),
(324,108,o),
(323,154,o),
(323,175,cs),
(323,564,ls),
(323,586,o),
(328,607,o),
(328,620,cs),
(328,635,o),
(307,651,o),
(295,651,cs),
(284,651,o),
(269,627,o),
(263,623,c),
(242,605,o),
(210,584,o),
(177,569,c),
(170,567,o),
(169,563,o),
(169,560,cs),
(169,551,o),
(185,540,o),
(200,540,cs),
(201,540,o),
(203,541,o),
(205,541,c),
(227,547,o),
(253,555,o),
(273,568,c)
);
}
);
width = 1000;
}
);
note = cid07569;
unicode = 9326;
}
{
glyphname = one_six.circled;
layers = (
{
hints = (
{
horizontal = 1;
place = (-112,49);
type = Stem;
},
{
horizontal = 1;
place = (76,49);
type = Stem;
},
{
horizontal = 1;
place = (389,47);
type = Stem;
},
{
horizontal = 1;
place = (798,49);
type = Stem;
},
{
place = (20,49);
type = Stem;
},
{
place = (273,50);
type = Stem;
},
{
place = (441,51);
type = Stem;
},
{
place = (733,50);
type = Stem;
},
{
place = (931,49);
type = Stem;
}
);
layerId = "481A290F-76EE-4968-957F-52614F4635C1";
shapes = (
{
closed = 1;
nodes = (
(980,632,o),
(765,847,o),
(500,847,cs),
(235,847,o),
(20,632,o),
(20,367,cs),
(20,102,o),
(235,-112,o),
(500,-112,cs),
(765,-112,o),
(980,102,o),
(980,367,cs)
);
},
{
closed = 1;
nodes = (
(931,129,o),
(738,-63,o),
(500,-63,cs),
(262,-63,o),
(69,129,o),
(69,367,cs),
(69,605,o),
(262,798,o),
(500,798,cs),
(738,798,o),
(931,605,o),
(931,367,cs)
);
},
{
closed = 1;
nodes = (
(496,455,o),
(441,351,o),
(441,244,cs),
(441,151,o),
(507,76,o),
(612,76,cs),
(727,76,o),
(783,166,o),
(783,270,cs),
(783,365,o),
(711,436,o),
(625,436,cs),
(579,436,o),
(545,417,o),
(520,392,c),
(549,460,o),
(616,567,o),
(658,620,cs),
(661,624,o),
(666,630,o),
(666,635,cs),
(666,637,o),
(662,656,o),
(630,656,cs),
(620,656,o),
(610,654,o),
(607,646,cs),
(605,642,o),
(601,632,o),
(599,630,c)
);
},
{
closed = 1;
nodes = (
(273,171,ls),
(273,154,o),
(272,113,o),
(272,100,cs),
(272,87,o),
(295,78,o),
(310,78,cs),
(319,78,o),
(325,81,o),
(325,87,cs),
(324,108,o),
(323,154,o),
(323,175,cs),
(323,564,ls),
(323,587,o),
(328,607,o),
(328,620,cs),
(328,635,o),
(307,651,o),
(295,651,cs),
(284,651,o),
(269,627,o),
(263,623,c),
(242,605,o),
(210,584,o),
(177,569,c),
(170,567,o),
(169,563,o),
(169,560,cs),
(169,551,o),
(185,540,o),
(200,540,cs),
(201,540,o),
(203,541,o),
(205,541,c),
(227,547,o),
(253,555,o),
(273,568,c)
);
},
{
closed = 1;
nodes = (
(536,125,o),
(492,175,o),
(492,246,cs),
(492,324,o),
(540,389,o),
(623,389,cs),
(690,389,o),
(733,332,o),
(733,267,cs),
(733,185,o),
(691,125,o),
(612,125,cs)
);
}
);
width = 1000;
}
);
note = cid07570;
unicode = 9327;
}
{
glyphname = one_eight.circled;
layers = (
{
hints = (
{
horizontal = 1;
place = (-112,49);
type = Stem;
},
{
horizontal = 1;
place = (76,50);
type = Stem;
},
{
horizontal = 1;
place = (608,47);
type = Stem;
},
{
horizontal = 1;
place = (798,49);
type = Stem;
},
{
place = (20,49);
type = Stem;
},
{
place = (273,50);
type = Stem;
},
{
place = (439,51);
type = Stem;
},
{
place = (726,53);
type = Stem;
},
{
place = (931,49);
type = Stem;
},
{
place = (464,50);
type = Stem;
},
{
place = (748,32);
type = Stem;
}
);
layerId = "481A290F-76EE-4968-957F-52614F4635C1";
shapes = (
{
closed = 1;
nodes = (
(980,632,o),
(765,847,o),
(500,847,cs),
(235,847,o),
(20,632,o),
(20,367,cs),
(20,102,o),
(235,-112,o),
(500,-112,cs),
(765,-112,o),
(980,102,o),
(980,367,cs)
);
},
{
closed = 1;
nodes = (
(931,129,o),
(738,-63,o),
(500,-63,cs),
(262,-63,o),
(69,129,o),
(69,367,cs),
(69,605,o),
(262,798,o),
(500,798,cs),
(738,798,o),
(931,605,o),
(931,367,cs)
);
},
{
closed = 1;
nodes = (
(684,444,o),
(780,528,o),
(780,553,cs),
(780,561,o),
(775,566,o),
(769,566,cs),
(764,566,o),
(760,564,o),
(756,559,c),
(750,555,o),
(748,552,o),
(748,552,c),
(749,556,o),
(750,559,o),
(750,563,cs),
(750,583,o),
(702,655,o),
(613,655,cs),
(522,655,o),
(464,592,o),
(464,522,cs),
(464,471,o),
(494,435,o),
(556,399,c),
(489,351,o),
(439,295,o),
(439,227,cs),
(439,142,o),
(500,76,o),
(598,76,cs),
(710,76,o),
(779,137,o),
(779,234,cs),
(779,328,o),
(721,367,o),
(640,408,c)
);
},
{
closed = 1;
nodes = (
(273,171,ls),
(273,154,o),
(272,113,o),
(272,100,cs),
(272,87,o),
(295,78,o),
(310,78,cs),
(319,78,o),
(325,81,o),
(325,87,cs),
(324,108,o),
(323,154,o),
(323,175,cs),
(323,564,ls),
(323,586,o),
(328,607,o),
(328,620,cs),
(328,635,o),
(307,651,o),
(295,651,cs),
(284,651,o),
(269,627,o),
(263,623,c),
(242,605,o),
(210,584,o),
(177,569,c),
(170,567,o),
(169,563,o),
(169,560,cs),
(169,551,o),
(185,540,o),
(200,540,cs),
(201,540,o),
(203,541,o),
(205,541,c),
(227,547,o),
(253,555,o),
(273,568,c)
);
},
{
closed = 1;
nodes = (
(539,459,o),
(514,483,o),
(514,522,cs),
(514,568,o),
(552,608,o),
(614,608,cs),
(661,608,o),
(689,585,o),
(710,548,cs),
(715,540,o),
(720,537,o),
(726,537,cs),
(728,537,o),
(730,537,o),
(732,538,c),
(689,500,o),
(644,464,o),
(596,430,c)
);
},
{
closed = 1;
nodes = (
(675,337,o),
(726,311,o),
(726,232,cs),
(726,164,o),
(676,126,o),
(598,126,cs),
(522,126,o),
(490,176,o),
(490,229,cs),
(490,283,o),
(529,320,o),
(600,375,c)
);
}
);
width = 1000;
}
);
note = cid07572;
unicode = 9329;
}
{
glyphname = four.paren;
layers = (
{
hints = (
{
horizontal = 1;
place = (214,55);
type = Stem;
},
{
place = (9,67);
type = Stem;
},
{
place = (546,56);
type = Stem;
},
{
place = (923,67);
type = Stem;
},
{
horizontal = 1;
place = (203,53);
type = Stem;
}
);
layerId = "481A290F-76EE-4968-957F-52614F4635C1";
shapes = (
{
closed = 1;
nodes = (
(629,216,ls),
(661,216,o),
(693,214,o),
(705,214,cs),
(711,214,o),
(714,219,o),
(714,227,cs),
(714,243,o),
(702,269,o),
(688,269,cs),
(677,269,o),
(650,265,o),
(628,265,cs),
(602,264,l),
(602,424,ls),
(602,444,o),
(603,483,o),
(603,496,cs),
(603,510,o),
(577,519,o),
(559,519,cs),
(550,519,o),
(543,517,o),
(543,511,cs),
(543,492,o),
(546,440,o),
(546,424,cs),
(546,261,l),
(318,252,l),
(447,429,o),
(506,517,o),
(568,610,c),
(570,612,o),
(570,615,o),
(570,618,cs),
(570,636,o),
(544,662,o),
(529,662,cs),
(526,662,o),
(523,660,o),
(521,656,cs),
(508,619,o),
(479,550,o),
(284,290,cs),
(256,252,ls),
(252,246,o),
(250,241,o),
(250,235,cs),
(250,215,o),
(270,197,o),
(287,197,cs),
(289,197,o),
(291,198,o),
(293,198,c),
(304,201,o),
(317,203,o),
(323,203,c),
(323,203,o),
(525,212,o),
(545,212,cs),
(546,212,l),
(546,171,ls),
(546,159,o),
(544,112,o),
(544,99,cs),
(544,85,o),
(570,76,o),
(588,76,cs),
(597,76,o),
(605,79,o),
(605,85,cs),
(605,103,o),
(602,136,o),
(602,169,cs),
(602,215,l)
);
},
{
closed = 1;
nodes = (
(819,-81,o),
(990,103,o),
(990,367,cs),
(990,632,o),
(819,815,o),
(792,815,cs),
(783,815,o),
(778,809,o),
(778,800,cs),
(778,796,o),
(779,791,o),
(783,787,cs),
(881,670,o),
(923,509,o),
(923,367,cs),
(923,225,o),
(881,64,o),
(783,-53,cs),
(779,-57,o),
(778,-62,o),
(778,-66,cs),
(778,-75,o),
(783,-81,o),
(792,-81,cs)
);
},
{
closed = 1;
nodes = (
(216,-81,o),
(221,-75,o),
(221,-66,cs),
(221,-62,o),
(220,-57,o),
(216,-53,cs),
(118,64,o),
(76,225,o),
(76,367,cs),
(76,509,o),
(118,670,o),
(216,787,cs),
(220,791,o),
(221,796,o),
(221,800,cs),
(221,809,o),
(216,815,o),
(207,815,cs),
(181,815,o),
(9,632,o),
(9,367,cs),
(9,103,o),
(181,-81,o),
(207,-81,cs)
);
}
);
width = 1000;
}
);
note = cid08074;
unicode = 9335;
}
{
glyphname = six.paren;
layers = (
{
hints = (
{
horizontal = 1;
place = (68,49);
type = Stem;
},
{
horizontal = 1;
place = (387,48);
type = Stem;
},
{
place = (9,67);
type = Stem;
},
{
place = (288,57);
type = Stem;
},
{
place = (659,57);
type = Stem;
},
{
place = (923,67);
type = Stem;
}
);
layerId = "481A290F-76EE-4968-957F-52614F4635C1";
shapes = (
{
closed = 1;
nodes = (
(819,-81,o),
(990,103,o),
(990,367,cs),
(990,632,o),
(819,815,o),
(792,815,cs),
(783,815,o),
(778,809,o),
(778,800,cs),
(778,796,o),
(779,791,o),
(783,787,cs),
(881,670,o),
(923,509,o),
(923,367,cs),
(923,225,o),
(881,64,o),
(783,-53,cs),
(779,-57,o),
(778,-62,o),
(778,-66,cs),
(778,-75,o),
(783,-81,o),
(792,-81,cs)
);
},
{
closed = 1;
nodes = (
(216,-81,o),
(221,-75,o),
(221,-66,cs),
(221,-62,o),
(220,-57,o),
(216,-53,cs),
(118,64,o),
(76,225,o),
(76,367,cs),
(76,509,o),
(118,670,o),
(216,787,cs),
(220,791,o),
(221,796,o),
(221,800,cs),
(221,809,o),
(216,815,o),
(207,815,cs),
(181,815,o),
(9,632,o),
(9,367,cs),
(9,103,o),
(181,-81,o),
(207,-81,cs)
);
},
{
closed = 1;
nodes = (
(415,458,o),
(455,511,o),
(553,623,cs),
(557,627,o),
(561,633,o),
(561,639,cs),
(561,657,o),
(528,661,o),
(519,661,cs),
(509,661,o),
(498,658,o),
(494,650,cs),
(492,646,o),
(488,635,o),
(486,633,c),
(453,583,o),
(400,523,o),
(357,452,cs),
(313,379,o),
(288,309,o),
(288,240,cs),
(288,145,o),
(367,68,o),
(500,68,cs),
(638,68,o),
(716,143,o),
(716,266,cs),
(716,377,o),
(616,435,o),
(515,435,cs),
(464,435,o),
(408,410,o),
(379,386,c)
);
},
{
closed = 1;
nodes = (
(659,177,o),
(608,117,o),
(500,117,cs),
(400,117,o),
(345,169,o),
(345,242,cs),
(345,321,o),
(419,387,o),
(513,387,cs),
(597,387,o),
(659,331,o),
(659,264,cs)
);
}
);
width = 1000;
}
);
note = cid08076;
unicode = 9337;
}
{
glyphname = one_eight.paren;
layers = (
{
hints = (
{
horizontal = 1;
place = (70,51);
type = Stem;
},
{
horizontal = 1;
place = (613,48);
type = Stem;
},
{
place = (9,67);
type = Stem;
},
{
place = (276,59);
type = Stem;
},
{
place = (424,57);
type = Stem;
},
{
place = (751,58);
type = Stem;
},
{
place = (923,67);
type = Stem;
},
{
place = (451,57);
type = Stem;
},
{
place = (770,35);
type = Stem;
}
);
layerId = "481A290F-76EE-4968-957F-52614F4635C1";
shapes = (
{
closed = 1;
nodes = (
(649,408,l),
(698,441,o),
(805,516,o),
(805,559,cs),
(805,567,o),
(801,573,o),
(796,573,cs),
(793,573,o),
(790,571,o),
(786,568,cs),
(770,554,l),
(772,558,o),
(773,563,o),
(773,567,cs),
(773,590,o),
(719,661,o),
(620,661,cs),
(517,661,o),
(451,597,o),
(451,525,cs),
(451,472,o),
(484,437,o),
(553,401,c),
(479,351,o),
(424,294,o),
(424,224,cs),
(424,137,o),
(492,70,o),
(603,70,cs),
(729,70,o),
(809,133,o),
(809,233,cs),
(809,318,o),
(752,365,o),
(655,406,cs)
);
},
{
closed = 1;
nodes = (
(819,-81,o),
(990,103,o),
(990,367,cs),
(990,632,o),
(819,815,o),
(792,815,cs),
(783,815,o),
(778,809,o),
(778,800,cs),
(778,796,o),
(779,791,o),
(783,787,cs),
(881,670,o),
(923,509,o),
(923,367,cs),
(923,225,o),
(881,64,o),
(783,-53,cs),
(779,-57,o),
(778,-62,o),
(778,-66,cs),
(778,-75,o),
(783,-81,o),
(792,-81,cs)
);
},
{
closed = 1;
nodes = (
(216,-81,o),
(221,-75,o),
(221,-66,cs),
(221,-62,o),
(220,-57,o),
(216,-53,cs),
(118,64,o),
(76,225,o),
(76,367,cs),
(76,509,o),
(118,670,o),
(216,787,cs),
(220,791,o),
(221,796,o),
(221,800,cs),
(221,809,o),
(216,815,o),
(207,815,cs),
(181,815,o),
(9,632,o),
(9,367,cs),
(9,103,o),
(181,-81,o),
(207,-81,cs)
);
},
{
closed = 1;
nodes = (
(623,369,ls),
(718,329,o),
(751,292,o),
(751,230,cs),
(751,161,o),
(691,121,o),
(603,121,cs),
(517,121,o),
(481,172,o),
(481,227,cs),
(481,281,o),
(524,320,o),
(604,377,c)
);
},
{
closed = 1;
nodes = (
(276,167,ls),
(276,150,o),
(275,108,o),
(275,95,cs),
(275,81,o),
(302,72,o),
(320,72,cs),
(330,72,o),
(337,75,o),
(337,81,cs),
(336,103,o),
(335,150,o),
(335,171,cs),
(335,568,ls),
(335,591,o),
(340,612,o),
(340,625,cs),
(340,641,o),
(314,657,o),
(301,657,cs),
(288,657,o),
(271,633,o),
(265,628,cs),
(241,610,o),
(205,588,o),
(167,573,cs),
(160,571,o),
(158,567,o),
(158,564,cs),
(158,555,o),
(177,544,o),
(193,544,cs),
(195,544,o),
(197,545,o),
(199,545,c),
(224,551,o),
(253,559,o),
(276,572,c)
);
},
{
closed = 1;
nodes = (
(534,460,o),
(508,484,o),
(508,525,cs),
(508,572,o),
(552,613,o),
(621,613,cs),
(674,613,o),
(705,589,o),
(728,553,cs),
(734,544,o),
(741,540,o),
(748,540,cs),
(750,540,o),
(752,540,o),
(754,541,c),
(704,499,o),
(653,466,o),
(598,430,c)
);
}
);
width = 1000;
}
);
note = cid08088;
unicode = 9349;
}
{
glyphname = one_period;
layers = (
{
hints = (
{
horizontal = 1;
place = (-14,124);
type = Stem;
},
{
place = (475,73);
type = Stem;
},
{
place = (828,115);
type = Stem;
}
);
layerId = "481A290F-76EE-4968-957F-52614F4635C1";
shapes = (
{
closed = 1;
nodes = (
(475,90,ls),
(475,69,o),
(473,18,o),
(473,2,cs),
(473,-15,o),
(506,-26,o),
(529,-26,cs),
(541,-26,o),
(550,-23,o),
(550,-16,cs),
(549,11,o),
(548,69,o),
(548,96,cs),
(548,585,ls),
(548,614,o),
(554,640,o),
(554,656,cs),
(554,676,o),
(521,695,o),
(505,695,cs),
(490,695,o),
(469,666,o),
(461,660,cs),
(431,637,o),
(387,610,o),
(340,592,cs),
(332,589,o),
(329,585,o),
(329,580,cs),
(329,569,o),
(353,556,o),
(372,556,cs),
(375,556,o),
(378,556,o),
(380,557,c),
(411,564,o),
(446,574,o),
(475,591,c)
);
},
{
closed = 1;
nodes = (
(943,61,o),
(912,95,o),
(885,95,cs),
(853,95,o),
(828,70,o),
(828,40,cs),
(828,6,o),
(856,-29,o),
(885,-29,cs),
(913,-29,o),
(943,-3,o),
(943,26,cs)
);
}
);
width = 1000;
}
);
note = cid08062;
unicode = 9352;
}
{
glyphname = c.paren;
layers = (
{
hints = (
{
horizontal = 1;
place = (155,49);
type = Stem;
},
{
horizontal = 1;
place = (533,51);
type = Stem;
},
{
place = (9,67);
type = Stem;
},
{
place = (297,58);
type = Stem;
},
{
place = (923,67);
type = Stem;
}
);
layerId = "481A290F-76EE-4968-957F-52614F4635C1";
shapes = (
{
closed = 1;
nodes = (
(594,250,o),
(534,204,o),
(462,204,cs),
(412,204,o),
(355,251,o),
(355,340,cs),
(355,446,o),
(446,533,o),
(517,533,cs),
(534,533,o),
(552,527,o),
(568,516,cs),
(581,508,o),
(587,493,o),
(595,476,cs),
(597,473,o),
(599,472,o),
(602,472,cs),
(615,472,o),
(638,494,o),
(638,512,cs),
(638,516,o),
(613,584,o),
(515,584,cs),
(410,584,o),
(297,471,o),
(297,335,cs),
(297,219,o),
(372,155,o),
(462,155,cs),
(597,155,o),
(663,275,o),
(663,292,cs),
(663,298,o),
(659,302,o),
(654,302,cs),
(649,302,o),
(642,298,o),
(634,289,cs)
);
},
{
closed = 1;
nodes = (
(819,-81,o),
(990,103,o),
(990,367,cs),
(990,632,o),
(819,815,o),
(792,815,cs),
(783,815,o),
(778,809,o),
(778,800,cs),
(778,796,o),
(779,791,o),
(783,787,cs),
(881,670,o),
(923,509,o),
(923,367,cs),
(923,225,o),
(881,64,o),
(783,-53,cs),
(779,-57,o),
(778,-62,o),
(778,-66,cs),
(778,-75,o),
(783,-81,o),
(792,-81,cs)
);
},
{
closed = 1;
nodes = (
(216,-81,o),
(221,-75,o),
(221,-66,cs),
(221,-62,o),
(220,-57,o),
(216,-53,cs),
(118,64,o),
(76,225,o),
(76,367,cs),
(76,509,o),
(118,670,o),
(216,787,cs),
(220,791,o),
(221,796,o),
(221,800,cs),
(221,809,o),
(216,815,o),
(207,815,cs),
(181,815,o),
(9,632,o),
(9,367,cs),
(9,103,o),
(181,-81,o),
(207,-81,cs)
);
}
);
width = 1000;
}
);
note = cid08114;
unicode = 9374;
}
{
glyphname = h.paren;
layers = (
{
hints = (
{
horizontal = 1;
place = (435,53);
type = Stem;
},
{
place = (9,67);
type = Stem;
},
{
place = (329,56);
type = Stem;
},
{
place = (616,57);
type = Stem;
},
{
place = (923,67);
type = Stem;
}
);
layerId = "481A290F-76EE-4968-957F-52614F4635C1";
shapes = (
{
closed = 1;
nodes = (
(615,89,ls),
(615,75,o),
(640,66,o),
(659,66,cs),
(668,66,o),
(675,68,o),
(675,74,cs),
(675,94,o),
(673,154,o),
(673,165,cs),
(673,328,ls),
(673,397,o),
(656,488,o),
(547,488,cs),
(485,488,o),
(422,454,o),
(385,395,c),
(385,568,ls),
(385,589,o),
(387,639,o),
(387,652,cs),
(387,667,o),
(361,676,o),
(343,676,cs),
(334,676,o),
(327,674,o),
(327,668,cs),
(327,648,o),
(329,593,o),
(329,577,cs),
(329,173,ls),
(329,161,o),
(327,103,o),
(327,90,cs),
(327,75,o),
(354,66,o),
(372,66,cs),
(381,66,o),
(388,68,o),
(388,74,cs),
(387,96,o),
(385,123,o),
(385,151,cs),
(385,165,ls),
(386,204,o),
(386,277,o),
(399,319,cs),
(424,404,o),
(488,435,o),
(547,435,cs),
(603,435,o),
(616,391,o),
(616,324,cs),
(616,173,ls),
(616,153,o),
(616,103,o),
(615,90,cs)
);
},
{
closed = 1;
nodes = (
(819,-81,o),
(990,103,o),
(990,367,cs),
(990,632,o),
(819,815,o),
(792,815,cs),
(783,815,o),
(778,809,o),
(778,800,cs),
(778,796,o),
(779,791,o),
(783,787,cs),
(881,670,o),
(923,509,o),
(923,367,cs),
(923,225,o),
(881,64,o),
(783,-53,cs),
(779,-57,o),
(778,-62,o),
(778,-66,cs),
(778,-75,o),
(783,-81,o),
(792,-81,cs)
);
},
{
closed = 1;
nodes = (
(216,-81,o),
(221,-75,o),
(221,-66,cs),
(221,-62,o),
(220,-57,o),
(216,-53,cs),
(118,64,o),
(76,225,o),
(76,367,cs),
(76,509,o),
(118,670,o),
(216,787,cs),
(220,791,o),
(221,796,o),
(221,800,cs),
(221,809,o),
(216,815,o),
(207,815,cs),
(181,815,o),
(9,632,o),
(9,367,cs),
(9,103,o),
(181,-81,o),
(207,-81,cs)
);
}
);
width = 1000;
}
);
note = cid08119;
unicode = 9379;
}
{
glyphname = i.paren;
layers = (
{
hints = (
{
horizontal = 1;
place = (577,92);
type = Stem;
},
{
place = (9,67);
type = Stem;
},
{
place = (457,84);
type = Stem;
},
{
place = (923,67);
type = Stem;
},
{
place = (470,59);
type = Stem;
}
);
layerId = "481A290F-76EE-4968-957F-52614F4635C1";
shapes = (
{
closed = 1;
nodes = (
(541,641,o),
(520,669,o),
(499,669,cs),
(470,669,o),
(457,650,o),
(457,628,cs),
(457,604,o),
(477,577,o),
(499,577,cs),
(525,577,o),
(541,595,o),
(541,616,cs)
);
},
{
closed = 1;
nodes = (
(819,-81,o),
(990,103,o),
(990,367,cs),
(990,632,o),
(819,815,o),
(792,815,cs),
(783,815,o),
(778,809,o),
(778,800,cs),
(778,796,o),
(779,791,o),
(783,787,cs),
(881,670,o),
(923,509,o),
(923,367,cs),
(923,225,o),
(881,64,o),
(783,-53,cs),
(779,-57,o),
(778,-62,o),
(778,-66,cs),
(778,-75,o),
(783,-81,o),
(792,-81,cs)
);
},
{
closed = 1;
nodes = (
(216,-81,o),
(221,-75,o),
(221,-66,cs),
(221,-62,o),
(220,-57,o),
(216,-53,cs),
(118,64,o),
(76,225,o),
(76,367,cs),
(76,509,o),
(118,670,o),
(216,787,cs),
(220,791,o),
(221,796,o),
(221,800,cs),
(221,809,o),
(216,815,o),
(207,815,cs),
(181,815,o),
(9,632,o),
(9,367,cs),
(9,103,o),
(181,-81,o),
(207,-81,cs)
);
},
{
closed = 1;
nodes = (
(470,165,ls),
(470,153,o),
(469,103,o),
(469,90,cs),
(469,76,o),
(497,66,o),
(515,66,cs),
(524,66,o),
(531,69,o),
(531,74,cs),
(531,94,o),
(529,154,o),
(529,165,cs),
(529,388,ls),
(529,408,o),
(531,450,o),
(531,464,cs),
(531,477,o),
(503,487,o),
(484,487,cs),
(475,487,o),
(468,484,o),
(468,479,cs),
(468,459,o),
(470,404,o),
(470,388,cs)
);
}
);
width = 1000;
}
);
note = cid08120;
unicode = 9380;
}
{
glyphname = l.paren;
layers = (
{
hints = (
{
horizontal = 1;
place = (-81,896);
type = Stem;
},
{
place = (9,67);
type = Stem;
},
{
place = (470,59);
type = Stem;
},
{
place = (923,67);
type = Stem;
}
);
layerId = "481A290F-76EE-4968-957F-52614F4635C1";
shapes = (
{
closed = 1;
nodes = (
(470,165,ls),
(470,153,o),
(469,103,o),
(469,90,cs),
(469,75,o),
(496,66,o),
(515,66,cs),
(524,66,o),
(531,68,o),
(531,74,cs),
(531,94,o),
(529,154,o),
(529,165,cs),
(529,577,ls),
(529,597,o),
(531,639,o),
(531,652,cs),
(531,667,o),
(503,676,o),
(485,676,cs),
(475,676,o),
(468,674,o),
(468,668,cs),
(468,648,o),
(470,593,o),
(470,577,cs)
);
},
{
closed = 1;
nodes = (
(819,-81,o),
(990,103,o),
(990,367,cs),
(990,632,o),
(819,815,o),
(792,815,cs),
(783,815,o),
(778,809,o),
(778,800,cs),
(778,796,o),
(779,791,o),
(783,787,cs),
(881,670,o),
(923,509,o),
(923,367,cs),
(923,225,o),
(881,64,o),
(783,-53,cs),
(779,-57,o),
(778,-62,o),
(778,-66,cs),
(778,-75,o),
(783,-81,o),
(792,-81,cs)
);
},
{
closed = 1;
nodes = (
(216,-81,o),
(221,-75,o),
(221,-66,cs),
(221,-62,o),
(220,-57,o),
(216,-53,cs),
(118,64,o),
(76,225,o),
(76,367,cs),
(76,509,o),
(118,670,o),
(216,787,cs),
(220,791,o),
(221,796,o),
(221,800,cs),
(221,809,o),
(216,815,o),
(207,815,cs),
(181,815,o),
(9,632,o),
(9,367,cs),
(9,103,o),
(181,-81,o),
(207,-81,cs)
);
}
);
width = 1000;
}
);
note = cid08123;
unicode = 9383;
}
{
glyphname = w.paren;
layers = (
{
hints = (
{
horizontal = 1;
place = (-81,896);
type = Stem;
},
{
place = (9,67);
type = Stem;
},
{
place = (215,68);
type = Stem;
},
{
place = (464,75);
type = Stem;
},
{
place = (923,67);
type = Stem;
}
);
layerId = "481A290F-76EE-4968-957F-52614F4635C1";
shapes = (
{
closed = 1;
nodes = (
(626,242,l),
(545,513,ls),
(542,524,o),
(541,536,o),
(539,549,cs),
(538,559,o),
(508,568,o),
(487,568,cs),
(475,568,o),
(465,565,o),
(464,558,cs),
(462,539,o),
(461,522,o),
(456,505,cs),
(364,242,l),
(291,517,ls),
(287,529,o),
(285,548,o),
(283,559,cs),
(281,571,o),
(262,577,o),
(245,577,cs),
(230,577,o),
(215,572,o),
(215,563,cs),
(215,562,o),
(216,561,o),
(216,560,c),
(223,543,o),
(231,522,o),
(235,510,cs),
(321,210,ls),
(328,188,o),
(327,181,o),
(337,171,cs),
(344,164,o),
(360,155,o),
(374,155,cs),
(385,155,o),
(395,161,o),
(399,175,cs),
(404,193,o),
(407,206,o),
(414,226,cs),
(502,482,l),
(579,210,ls),
(583,194,o),
(583,181,o),
(593,171,cs),
(600,164,o),
(617,155,o),
(632,155,cs),
(653,155,o),
(654,160,o),
(673,226,c),
(769,499,l),
(792,556,l),
(793,557,o),
(793,559,o),
(793,560,cs),
(793,573,o),
(768,583,o),
(750,583,cs),
(740,583,o),
(732,580,o),
(731,573,cs),
(727,553,o),
(722,531,o),
(717,516,cs)
);
},
{
closed = 1;
nodes = (
(819,-81,o),
(990,103,o),
(990,367,cs),
(990,632,o),
(819,815,o),
(792,815,cs),
(783,815,o),
(778,809,o),
(778,800,cs),
(778,796,o),
(779,791,o),
(783,787,cs),
(881,670,o),
(923,509,o),
(923,367,cs),
(923,225,o),
(881,64,o),
(783,-53,cs),
(779,-57,o),
(778,-62,o),
(778,-66,cs),
(778,-75,o),
(783,-81,o),
(792,-81,cs)
);
},
{
closed = 1;
nodes = (
(216,-81,o),
(221,-75,o),
(221,-66,cs),
(221,-62,o),
(220,-57,o),
(216,-53,cs),
(118,64,o),
(76,225,o),
(76,367,cs),
(76,509,o),
(118,670,o),
(216,787,cs),
(220,791,o),
(221,796,o),
(221,800,cs),
(221,809,o),
(216,815,o),
(207,815,cs),
(181,815,o),
(9,632,o),
(9,367,cs),
(9,103,o),
(181,-81,o),
(207,-81,cs)
);
}
);
width = 1000;
}
);
note = cid08134;
unicode = 9394;
}
{
glyphname = y.paren;
layers = (
{
hints = (
{
horizontal = 1;
place = (77,54);
type = Stem;
},
{
place = (9,67);
type = Stem;
},
{
place = (923,67);
type = Stem;
}
);
layerId = "481A290F-76EE-4968-957F-52614F4635C1";
shapes = (
{
closed = 1;
nodes = (
(819,-81,o),
(990,103,o),
(990,367,cs),
(990,632,o),
(819,815,o),
(792,815,cs),
(783,815,o),
(778,809,o),
(778,800,cs),
(778,796,o),
(779,791,o),
(783,787,cs),
(881,670,o),
(923,509,o),
(923,367,cs),
(923,225,o),
(881,64,o),
(783,-53,cs),
(779,-57,o),
(778,-62,o),
(778,-66,cs),
(778,-75,o),
(783,-81,o),
(792,-81,cs)
);
},
{
closed = 1;
nodes = (
(216,-81,o),
(221,-75,o),
(221,-66,cs),
(221,-62,o),
(220,-57,o),
(216,-53,cs),
(118,64,o),
(76,225,o),
(76,367,cs),
(76,509,o),
(118,670,o),
(216,787,cs),
(220,791,o),
(221,796,o),
(221,800,cs),
(221,809,o),
(216,815,o),
(207,815,cs),
(181,815,o),
(9,632,o),
(9,367,cs),
(9,103,o),
(181,-81,o),
(207,-81,cs)
);
},
{
closed = 1;
nodes = (
(386,77,ls),
(430,77,o),
(457,99,o),
(480,147,cs),
(659,523,ls),
(669,544,o),
(683,569,o),
(692,586,cs),
(694,589,o),
(695,593,o),
(695,596,cs),
(695,614,o),
(669,629,o),
(653,629,cs),
(646,629,o),
(641,626,o),
(639,621,cs),
(630,595,o),
(619,565,o),
(608,542,cs),
(503,322,l),
(405,550,ls),
(395,572,o),
(387,593,o),
(379,613,cs),
(376,621,o),
(360,625,o),
(345,625,cs),
(328,625,o),
(312,620,o),
(312,611,cs),
(312,610,o),
(313,608,o),
(314,606,cs),
(324,588,o),
(341,554,o),
(349,537,cs),
(473,255,l),
(435,177,ls),
(419,142,o),
(401,131,o),
(384,131,cs),
(368,131,o),
(350,131,o),
(336,147,cs),
(333,151,o),
(329,153,o),
(325,153,cs),
(311,153,o),
(297,127,o),
(297,111,cs),
(297,106,o),
(298,102,o),
(301,100,cs),
(327,78,o),
(354,77,o),
(376,77,cs)
);
}
);
width = 1000;
}
);
note = cid08136;
unicode = 9396;
}
{
glyphname = z.paren;
layers = (
{
hints = (
{
horizontal = 1;
place = (167,51);
type = Stem;
},
{
horizontal = 1;
place = (515,55);
type = Stem;
},
{
place = (9,67);
type = Stem;
},
{
place = (923,67);
type = Stem;
},
{
horizontal = 1;
place = (505,56);
type = Stem;
}
);
layerId = "481A290F-76EE-4968-957F-52614F4635C1";
shapes = (
{
closed = 1;
nodes = (
(638,219,ls),
(620,218,o),
(598,218,o),
(585,218,cs),
(470,218,ls),
(448,218,o),
(412,216,o),
(389,214,c),
(458,309,o),
(553,426,o),
(623,507,cs),
(630,514,o),
(650,522,o),
(650,531,cs),
(650,547,o),
(627,574,o),
(610,576,cs),
(606,576,ls),
(595,576,o),
(583,571,o),
(576,571,cs),
(443,562,ls),
(431,561,o),
(418,561,o),
(405,561,cs),
(388,561,o),
(371,561,o),
(357,563,cs),
(352,563,o),
(349,559,o),
(349,553,cs),
(349,537,o),
(366,505,o),
(383,505,cs),
(385,505,l),
(444,511,l),
(569,520,l),
(507,451,o),
(415,337,o),
(344,243,cs),
(336,231,o),
(320,224,o),
(316,213,cs),
(314,209,o),
(313,204,o),
(313,199,cs),
(313,180,o),
(325,159,o),
(338,159,cs),
(351,159,o),
(360,161,o),
(373,162,cs),
(389,164,o),
(442,167,o),
(470,167,cs),
(585,167,ls),
(609,166,o),
(631,163,o),
(654,162,cs),
(660,162,o),
(663,167,o),
(663,175,cs),
(663,192,o),
(651,219,o),
(639,219,cs)
);
},
{
closed = 1;
nodes = (
(819,-81,o),
(990,103,o),
(990,367,cs),
(990,632,o),
(819,815,o),
(792,815,cs),
(783,815,o),
(778,809,o),
(778,800,cs),
(778,796,o),
(779,791,o),
(783,787,cs),
(881,670,o),
(923,509,o),
(923,367,cs),
(923,225,o),
(881,64,o),
(783,-53,cs),
(779,-57,o),
(778,-62,o),
(778,-66,cs),
(778,-75,o),
(783,-81,o),
(792,-81,cs)
);
},
{
closed = 1;
nodes = (
(216,-81,o),
(221,-75,o),
(221,-66,cs),
(221,-62,o),
(220,-57,o),
(216,-53,cs),
(118,64,o),
(76,225,o),
(76,367,cs),
(76,509,o),
(118,670,o),
(216,787,cs),
(220,791,o),
(221,796,o),
(221,800,cs),
(221,809,o),
(216,815,o),
(207,815,cs),
(181,815,o),
(9,632,o),
(9,367,cs),
(9,103,o),
(181,-81,o),
(207,-81,cs)
);
}
);
width = 1000;
}
);
note = cid08137;
unicode = 9397;
}
{
glyphname = E.circled;
layers = (
{
hints = (
{
horizontal = 1;
place = (-112,49);
type = Stem;
},
{
horizontal = 1;
place = (80,54);
type = Stem;
},
{
horizontal = 1;
place = (371,43);
type = Stem;
},
{
horizontal = 1;
place = (605,40);
type = Stem;
},
{
horizontal = 1;
place = (798,49);
type = Stem;
},
{
place = (20,49);
type = Stem;
},
{
place = (333,55);
type = Stem;
},
{
place = (931,49);
type = Stem;
}
);
layerId = "481A290F-76EE-4968-957F-52614F4635C1";
shapes = (
{
closed = 1;
nodes = (
(980,632,o),
(765,847,o),
(500,847,cs),
(235,847,o),
(20,632,o),
(20,367,cs),
(20,102,o),
(235,-112,o),
(500,-112,cs),
(765,-112,o),
(980,102,o),
(980,367,cs)
);
},
{
closed = 1;
nodes = (
(931,129,o),
(738,-63,o),
(500,-63,cs),
(262,-63,o),
(69,129,o),
(69,367,cs),
(69,605,o),
(262,798,o),
(500,798,cs),
(738,798,o),
(931,605,o),
(931,367,cs)
);
},
{
closed = 1;
nodes = (
(715,81,ls),
(721,81,o),
(724,86,o),
(724,94,cs),
(724,110,o),
(712,136,o),
(698,136,cs),
(697,136,ls),
(681,136,o),
(653,134,o),
(630,134,cs),
(388,130,l),
(388,361,l),
(560,371,l),
(643,371,ls),
(650,371,o),
(653,377,o),
(653,385,cs),
(653,401,o),
(641,426,o),
(626,426,cs),
(617,426,o),
(583,421,o),
(559,419,cs),
(388,409,l),
(388,590,l),
(604,605,l),
(688,605,ls),
(695,605,o),
(698,611,o),
(698,619,cs),
(698,635,o),
(686,659,o),
(671,659,cs),
(661,659,o),
(628,654,o),
(604,652,cs),
(384,638,l),
(382,639,o),
(356,648,o),
(342,648,cs),
(337,648,o),
(333,647,o),
(332,645,cs),
(331,643,o),
(330,641,o),
(330,637,cs),
(330,633,o),
(331,627,o),
(332,618,cs),
(333,605,o),
(333,588,o),
(333,571,cs),
(333,408,l),
(328,408,o),
(323,409,o),
(319,409,cs),
(317,409,ls),
(313,409,o),
(311,406,o),
(311,401,cs),
(311,389,o),
(321,368,o),
(333,361,c),
(333,150,ls),
(333,137,o),
(327,119,o),
(327,112,cs),
(327,99,o),
(346,74,o),
(361,74,cs),
(378,74,o),
(388,80,o),
(405,80,cs),
(630,83,l),
(644,83,ls),
(672,83,o),
(705,81,o),
(714,81,cs)
);
}
);
width = 1000;
}
);
note = cid10343;
unicode = 9402;
}
{
color = 4;
glyphname = I.circled;
layers = (
{
hints = (
{
horizontal = 1;
place = (-112,49);
type = Stem;
},
{
horizontal = 1;
place = (798,49);
type = Stem;
},
{
place = (20,49);
type = Stem;
},
{
place = (468,60);
type = Stem;
},
{
place = (931,49);
type = Stem;
}
);
layerId = "481A290F-76EE-4968-957F-52614F4635C1";
shapes = (
{
closed = 1;
nodes = (
(980,632,o),
(765,847,o),
(500,847,cs),
(235,847,o),
(20,632,o),
(20,367,cs),
(20,102,o),
(235,-112,o),
(500,-112,cs),
(765,-112,o),
(980,102,o),
(980,367,cs)
);
},
{
closed = 1;
nodes = (
(931,129,o),
(738,-63,o),
(500,-63,cs),
(262,-63,o),
(69,129,o),
(69,367,cs),
(69,605,o),
(262,798,o),
(500,798,cs),
(738,798,o),
(931,605,o),
(931,367,cs)
);
},
{
closed = 1;
nodes = (
(468,169,ls),
(468,140,o),
(467,110,o),
(467,97,cs),
(467,83,o),
(495,74,o),
(514,74,cs),
(524,74,o),
(531,76,o),
(531,82,cs),
(531,101,o),
(528,135,o),
(528,168,cs),
(528,558,ls),
(528,587,o),
(530,618,o),
(530,631,cs),
(530,645,o),
(503,654,o),
(484,654,cs),
(474,654,o),
(466,651,o),
(466,645,cs),
(466,626,o),
(468,592,o),
(468,559,cs)
);
},
{
closed = 1;
nodes = (
(559,663,o),
(534,660,o),
(500,659,cs),
(477,658,o),
(434,657,o),
(417,657,cs),
(407,657,o),
(405,648,o),
(405,637,cs),
(405,622,o),
(424,609,o),
(434,610,cs),
(456,612,o),
(489,612,o),
(512,613,cs),
(534,614,o),
(559,614,o),
(585,615,cs),
(594,615,o),
(597,624,o),
(596,635,cs),
(596,650,o),
(582,663,o),
(573,663,cs)
);
},
{
closed = 1;
nodes = (
(560,120,o),
(534,117,o),
(500,116,cs),
(477,116,o),
(432,115,o),
(415,115,cs),
(405,115,o),
(403,106,o),
(403,95,cs),
(404,80,o),
(422,66,o),
(432,67,cs),
(454,69,o),
(489,69,o),
(512,70,cs),
(534,72,o),
(560,72,o),
(586,73,cs),
(596,73,o),
(599,82,o),
(598,93,cs),
(598,108,o),
(584,120,o),
(575,120,cs)
);
}
);
width = 1000;
}
);
note = cid10347;
unicode = 9406;
}
{
glyphname = P.circled;
layers = (
{
hints = (
{
horizontal = 1;
place = (-112,49);
type = Stem;
},
{
horizontal = 1;
place = (341,38);
type = Stem;
},
{
horizontal = 1;
place = (607,51);
type = Stem;
},
{
horizontal = 1;
place = (798,49);
type = Stem;
},
{
place = (20,49);
type = Stem;
},
{
place = (343,57);
type = Stem;
},
{
place = (664,59);
type = Stem;
},
{
place = (931,49);
type = Stem;
}
);
layerId = "481A290F-76EE-4968-957F-52614F4635C1";
shapes = (
{
closed = 1;
nodes = (
(980,632,o),
(765,847,o),
(500,847,cs),
(235,847,o),
(20,632,o),
(20,367,cs),
(20,102,o),
(235,-112,o),
(500,-112,cs),
(765,-112,o),
(980,102,o),
(980,367,cs)
);
},
{
closed = 1;
nodes = (
(931,129,o),
(738,-63,o),
(500,-63,cs),
(262,-63,o),
(69,129,o),
(69,367,cs),
(69,605,o),
(262,798,o),
(500,798,cs),
(738,798,o),
(931,605,o),
(931,367,cs)
);
},
{
closed = 1;
nodes = (
(343,176,ls),
(343,145,o),
(341,109,o),
(341,96,cs),
(341,82,o),
(367,73,o),
(386,73,cs),
(395,73,o),
(402,75,o),
(402,81,cs),
(402,100,o),
(400,139,o),
(400,175,cs),
(400,345,l),
(408,342,l),
(415,341,o),
(423,341,o),
(432,341,cs),
(494,341,o),
(723,347,o),
(723,525,cs),
(723,608,o),
(658,658,o),
(516,658,cs),
(460,658,o),
(431,653,o),
(313,631,cs),
(308,630,o),
(306,627,o),
(306,622,cs),
(306,608,o),
(326,583,o),
(342,583,cs),
(343,583,l)
);
},
{
closed = 1;
nodes = (
(400,591,l),
(434,601,o),
(476,607,o),
(515,607,cs),
(609,607,o),
(664,580,o),
(664,520,cs),
(664,429,o),
(544,386,o),
(410,379,cs),
(406,379,o),
(403,377,o),
(400,375,c)
);
}
);
width = 1000;
}
);
note = cid10354;
unicode = 9413;
}
{
glyphname = a.circled;
layers = (
{
hints = (
{
horizontal = 1;
place = (-112,49);
type = Stem;
},
{
horizontal = 1;
place = (161,48);
type = Stem;
},
{
horizontal = 1;
place = (522,47);
type = Stem;
},
{
horizontal = 1;
place = (798,49);
type = Stem;
},
{
place = (20,49);
type = Stem;
},
{
place = (318,55);
type = Stem;
},
{
place = (606,52);
type = Stem;
},
{
place = (931,49);
type = Stem;
},
{
place = (607,61);
type = Stem;
}
);
layerId = "481A290F-76EE-4968-957F-52614F4635C1";
shapes = (
{
closed = 1;
nodes = (
(980,632,o),
(765,847,o),
(500,847,cs),
(235,847,o),
(20,632,o),
(20,367,cs),
(20,102,o),
(235,-112,o),
(500,-112,cs),
(765,-112,o),
(980,102,o),
(980,367,cs)
);
},
{
closed = 1;
nodes = (
(931,129,o),
(738,-63,o),
(500,-63,cs),
(262,-63,o),
(69,129,o),
(69,367,cs),
(69,605,o),
(262,798,o),
(500,798,cs),
(738,798,o),
(931,605,o),
(931,367,cs)
);
},
{
closed = 1;
nodes = (
(668,547,ls),
(668,560,o),
(642,568,o),
(624,568,cs),
(615,568,o),
(607,565,o),
(607,560,cs),
(607,515,l),
(588,553,o),
(556,569,o),
(518,569,cs),
(418,569,o),
(318,455,o),
(318,317,cs),
(318,215,o),
(370,161,o),
(448,161,cs),
(509,161,o),
(568,195,o),
(609,271,c),
(612,238,o),
(624,165,o),
(652,165,cs),
(669,165,o),
(687,187,o),
(687,199,cs),
(687,201,o),
(687,203,o),
(686,204,cs),
(662,241,o),
(658,296,o),
(658,334,cs),
(658,404,o),
(666,527,o),
(668,545,cs)
);
},
{
closed = 1;
nodes = (
(605,456,o),
(605,426,o),
(604,411,cs),
(599,291,o),
(524,209,o),
(447,209,cs),
(404,209,o),
(373,239,o),
(373,321,cs),
(373,436,o),
(451,522,o),
(518,522,cs),
(542,522,o),
(568,510,o),
(587,479,c),
(588,478,o),
(588,477,o),
(589,477,c),
(590,476,o),
(592,476,o),
(593,476,cs),
(597,476,o),
(602,479,o),
(606,483,c)
);
}
);
width = 1000;
}
);
note = cid10313;
unicode = 9424;
}
{
glyphname = h.circled;
layers = (
{
hints = (
{
horizontal = 1;
place = (-112,49);
type = Stem;
},
{
horizontal = 1;
place = (427,50);
type = Stem;
},
{
horizontal = 1;
place = (798,49);
type = Stem;
},
{
place = (20,49);
type = Stem;
},
{
place = (337,54);
type = Stem;
},
{
place = (611,53);
type = Stem;
},
{
place = (931,49);
type = Stem;
}
);
layerId = "481A290F-76EE-4968-957F-52614F4635C1";
shapes = (
{
closed = 1;
nodes = (
(980,632,o),
(765,847,o),
(500,847,cs),
(235,847,o),
(20,632,o),
(20,367,cs),
(20,102,o),
(235,-112,o),
(500,-112,cs),
(765,-112,o),
(980,102,o),
(980,367,cs)
);
},
{
closed = 1;
nodes = (
(931,129,o),
(738,-63,o),
(500,-63,cs),
(262,-63,o),
(69,129,o),
(69,367,cs),
(69,605,o),
(262,798,o),
(500,798,cs),
(738,798,o),
(931,605,o),
(931,367,cs)
);
},
{
closed = 1;
nodes = (
(609,97,ls),
(609,85,o),
(633,76,o),
(651,76,cs),
(660,76,o),
(667,78,o),
(667,84,cs),
(667,102,o),
(664,160,o),
(664,170,cs),
(664,325,ls),
(664,392,o),
(649,477,o),
(545,477,cs),
(485,477,o),
(425,446,o),
(391,389,c),
(391,554,ls),
(391,574,o),
(392,622,o),
(392,635,cs),
(392,648,o),
(367,657,o),
(351,657,cs),
(342,657,o),
(335,655,o),
(335,649,cs),
(335,631,o),
(337,578,o),
(337,562,cs),
(337,178,ls),
(337,166,o),
(336,111,o),
(336,98,cs),
(336,85,o),
(361,76,o),
(378,76,cs),
(387,76,o),
(393,78,o),
(393,84,cs),
(392,103,o),
(391,127,o),
(391,152,cs),
(391,170,ls),
(391,208,o),
(391,277,o),
(404,317,cs),
(428,398,o),
(489,427,o),
(545,427,cs),
(598,427,o),
(611,385,o),
(611,322,cs),
(611,178,ls),
(611,159,o),
(610,111,o),
(609,98,cs)
);
}
);
width = 1000;
}
);
note = cid10320;
unicode = 9431;
}
{
glyphname = i.circled;
layers = (
{
hints = (
{
horizontal = 1;
place = (-112,49);
type = Stem;
},
{
horizontal = 1;
place = (798,49);
type = Stem;
},
{
place = (20,49);
type = Stem;
},
{
place = (472,56);
type = Stem;
},
{
place = (931,49);
type = Stem;
},
{
horizontal = 1;
place = (562,88);
type = Stem;
},
{
place = (459,80);
type = Stem;
}
);
layerId = "481A290F-76EE-4968-957F-52614F4635C1";
shapes = (
{
closed = 1;
nodes = (
(980,632,o),
(765,847,o),
(500,847,cs),
(235,847,o),
(20,632,o),
(20,367,cs),
(20,102,o),
(235,-112,o),
(500,-112,cs),
(765,-112,o),
(980,102,o),
(980,367,cs)
);
},
{
closed = 1;
nodes = (
(931,129,o),
(738,-63,o),
(500,-63,cs),
(262,-63,o),
(69,129,o),
(69,367,cs),
(69,605,o),
(262,798,o),
(500,798,cs),
(738,798,o),
(931,605,o),
(931,367,cs)
);
},
{
closed = 1;
nodes = (
(539,623,o),
(519,650,o),
(499,650,cs),
(472,650,o),
(459,632,o),
(459,611,cs),
(459,588,o),
(478,562,o),
(499,562,cs),
(524,562,o),
(539,579,o),
(539,600,cs)
);
},
{
closed = 1;
nodes = (
(472,170,ls),
(472,158,o),
(470,111,o),
(470,98,cs),
(470,85,o),
(496,76,o),
(514,76,cs),
(523,76,o),
(530,79,o),
(530,84,cs),
(530,102,o),
(528,160,o),
(528,170,cs),
(528,383,ls),
(528,402,o),
(529,442,o),
(529,455,cs),
(529,468,o),
(503,477,o),
(485,477,cs),
(476,477,o),
(469,474,o),
(469,469,cs),
(469,451,o),
(472,398,o),
(472,383,cs)
);
}
);
width = 1000;
}
);
note = cid10321;
unicode = 9432;
}
{
glyphname = k.circled;
layers = (
{
hints = (
{
horizontal = 1;
place = (-112,49);
type = Stem;
},
{
horizontal = 1;
place = (798,49);
type = Stem;
},
{
place = (20,49);
type = Stem;
},
{
place = (367,54);
type = Stem;
},
{
place = (931,49);
type = Stem;
}
);
layerId = "481A290F-76EE-4968-957F-52614F4635C1";
shapes = (
{
closed = 1;
nodes = (
(980,632,o),
(765,847,o),
(500,847,cs),
(235,847,o),
(20,632,o),
(20,367,cs),
(20,102,o),
(235,-112,o),
(500,-112,cs),
(765,-112,o),
(980,102,o),
(980,367,cs)
);
},
{
closed = 1;
nodes = (
(931,129,o),
(738,-63,o),
(500,-63,cs),
(262,-63,o),
(69,129,o),
(69,367,cs),
(69,605,o),
(262,798,o),
(500,798,cs),
(738,798,o),
(931,605,o),
(931,367,cs)
);
},
{
closed = 1;
nodes = (
(367,170,ls),
(367,159,o),
(366,112,o),
(366,99,cs),
(366,86,o),
(391,77,o),
(409,77,cs),
(418,77,o),
(425,79,o),
(425,85,cs),
(425,103,o),
(421,161,o),
(421,170,cs),
(421,281,l),
(440,294,l),
(488,246,o),
(566,157,o),
(610,112,cs),
(621,100,o),
(639,86,o),
(652,76,cs),
(654,74,o),
(657,74,o),
(661,74,cs),
(678,74,o),
(706,92,o),
(706,103,cs),
(706,105,o),
(705,107,o),
(702,109,c),
(685,116,o),
(668,129,o),
(656,140,cs),
(604,191,o),
(526,276,o),
(480,322,c),
(603,408,ls),
(617,417,o),
(640,430,o),
(663,445,cs),
(666,447,o),
(667,449,o),
(667,451,cs),
(667,462,o),
(636,477,o),
(618,477,cs),
(612,477,o),
(608,476,o),
(605,473,cs),
(599,466,o),
(587,454,o),
(573,444,cs),
(421,339,l),
(421,562,ls),
(421,582,o),
(424,622,o),
(424,635,cs),
(424,648,o),
(399,657,o),
(381,657,cs),
(372,657,o),
(365,655,o),
(365,649,cs),
(365,631,o),
(367,578,o),
(367,562,cs)
);
}
);
width = 1000;
}
);
note = cid10323;
unicode = 9434;
}
{
glyphname = u.circled;
layers = (
{
hints = (
{
horizontal = 1;
place = (-112,49);
type = Stem;
},
{
horizontal = 1;
place = (161,48);
type = Stem;
},
{
horizontal = 1;
place = (798,49);
type = Stem;
},
{
place = (20,49);
type = Stem;
},
{
place = (339,55);
type = Stem;
},
{
place = (609,51);
type = Stem;
},
{
place = (931,49);
type = Stem;
}
);
layerId = "481A290F-76EE-4968-957F-52614F4635C1";
shapes = (
{
closed = 1;
nodes = (
(980,632,o),
(765,847,o),
(500,847,cs),
(235,847,o),
(20,632,o),
(20,367,cs),
(20,102,o),
(235,-112,o),
(500,-112,cs),
(765,-112,o),
(980,102,o),
(980,367,cs)
);
},
{
closed = 1;
nodes = (
(931,129,o),
(738,-63,o),
(500,-63,cs),
(262,-63,o),
(69,129,o),
(69,367,cs),
(69,605,o),
(262,798,o),
(500,798,cs),
(738,798,o),
(931,605,o),
(931,367,cs)
);
},
{
closed = 1;
nodes = (
(609,419,l),
(602,295,o),
(527,209,o),
(460,209,cs),
(417,209,o),
(394,254,o),
(394,317,cs),
(394,473,ls),
(394,492,o),
(396,532,o),
(396,545,cs),
(396,558,o),
(370,567,o),
(352,567,cs),
(343,567,o),
(336,565,o),
(336,559,cs),
(336,541,o),
(339,483,o),
(339,473,cs),
(339,314,ls),
(339,235,o),
(366,161,o),
(460,161,cs),
(527,161,o),
(585,209,o),
(614,268,c),
(623,173,o),
(644,165,o),
(656,165,cs),
(674,165,o),
(691,187,o),
(691,199,cs),
(691,201,o),
(691,203,o),
(690,204,c),
(663,247,o),
(660,326,o),
(660,365,cs),
(660,474,o),
(668,541,o),
(669,545,cs),
(669,547,ls),
(669,560,o),
(644,568,o),
(626,568,cs),
(616,568,o),
(609,565,o),
(609,560,cs)
);
}
);
width = 1000;
}
);
note = cid10333;
unicode = 9444;
}
{
glyphname = boxLightHorizontal;
layers = (
{
hints = (
{
horizontal = 1;
place = (363,34);
type = Stem;
},
{
place = (0,1000);
type = Stem;
}
);
layerId = "481A290F-76EE-4968-957F-52614F4635C1";
shapes = (
{
closed = 1;
nodes = (
(1000,363,l),
(1000,397,l),
(0,397,l),
(0,363,l)
);
}
);
width = 1000;
}
);
note = cid07479;
unicode = 9472;
}
{
glyphname = boxLightTripleDashVertical;
layers = (
{
hints = (
{
horizontal = 1;
place = (-65,110);
type = Stem;
},
{
horizontal = 1;
place = (102,110);
type = Stem;
},
{
horizontal = 1;
place = (269,110);
type = Stem;
},
{
horizontal = 1;
place = (436,110);
type = Stem;
},
{
horizontal = 1;
place = (603,110);
type = Stem;
},
{
horizontal = 1;
place = (770,110);
type = Stem;
},
{
place = (483,34);
type = Stem;
}
);
layerId = "481A290F-76EE-4968-957F-52614F4635C1";
shapes = (
{
closed = 1;
nodes = (
(517,755,l),
(517,865,l),
(483,865,l),
(483,755,l)
);
},
{
closed = 1;
nodes = (
(517,-80,l),
(517,30,l),
(483,30,l),
(483,-80,l)
);
},
{
closed = 1;
nodes = (
(517,87,l),
(517,197,l),
(483,197,l),
(483,87,l)
);
},
{
closed = 1;
nodes = (
(517,254,l),
(517,364,l),
(483,364,l),
(483,254,l)
);
},
{
closed = 1;
nodes = (
(517,421,l),
(517,531,l),
(483,531,l),
(483,421,l)
);
},
{
closed = 1;
nodes = (
(517,588,l),
(517,698,l),
(483,698,l),
(483,588,l)
);
}
);
width = 1000;
}
);
note = cid07485;
unicode = 9478;
}
{
glyphname = boxDownHeavyAndLeftLight;
layers = (
{
hints = (
{
horizontal = 1;
place = (363,34);
type = Stem;
},
{
place = (455,90);
type = Stem;
}
);
layerId = "481A290F-76EE-4968-957F-52614F4635C1";
shapes = (
{
closed = 1;
nodes = (
(545,-135,l),
(545,382,l),
(0,382,l),
(0,348,l),
(455,348,l),
(455,-135,l)
);
}
);
width = 1000;
}
);
note = cid07497;
unicode = 9490;
}
{
glyphname = boxUpHeavyAndRightLight;
layers = (
{
hints = (
{
horizontal = 1;
place = (363,34);
type = Stem;
},
{
place = (455,90);
type = Stem;
}
);
layerId = "481A290F-76EE-4968-957F-52614F4635C1";
shapes = (
{
closed = 1;
nodes = (
(1000,348,l),
(1000,382,l),
(545,382,l),
(545,865,l),
(455,865,l),
(455,348,l)
);
}
);
width = 1000;
}
);
note = cid07501;
unicode = 9494;
}
{
glyphname = boxUpHeavyAndLeftLight;
layers = (
{
hints = (
{
horizontal = 1;
place = (363,34);
type = Stem;
},
{
place = (455,90);
type = Stem;
}
);
layerId = "481A290F-76EE-4968-957F-52614F4635C1";
shapes = (
{
closed = 1;
nodes = (
(545,348,l),
(545,865,l),
(455,865,l),
(455,382,l),
(0,382,l),
(0,348,l)
);
}
);
width = 1000;
}
);
note = cid07505;
unicode = 9498;
}
{
glyphname = boxUpHeavyAndRightDownLight;
layers = (
{
hints = (
{
horizontal = 1;
place = (363,34);
type = Stem;
},
{
place = (483,34);
type = Stem;
},
{
place = (455,90);
type = Stem;
}
);
layerId = "481A290F-76EE-4968-957F-52614F4635C1";
shapes = (
{
closed = 1;
nodes = (
(1000,348,l),
(1000,382,l),
(545,382,l),
(545,865,l),
(455,865,l),
(455,348,l),
(483,348,l),
(483,-135,l),
(517,-135,l),
(517,348,l)
);
}
);
width = 1000;
}
);
note = cid07509;
unicode = 9502;
}
{
glyphname = boxHeavyVerticalAndLeft;
layers = (
{
hints = (
{
horizontal = 1;
place = (335,90);
type = Stem;
},
{
place = (455,90);
type = Stem;
}
);
layerId = "481A290F-76EE-4968-957F-52614F4635C1";
shapes = (
{
closed = 1;
nodes = (
(545,-135,l),
(545,865,l),
(455,865,l),
(455,410,l),
(0,410,l),
(0,320,l),
(455,320,l),
(455,-135,l)
);
}
);
width = 1000;
}
);
note = cid07522;
unicode = 9515;
}
{
glyphname = boxVerticalSingleAndLeftDouble;
layers = (
{
layerId = "481A290F-76EE-4968-957F-52614F4635C1";
shapes = (
{
closed = 1;
nodes = (
(0,281,l),
(517,281,l),
(517,315,l),
(0,315,l)
);
},
{
closed = 1;
nodes = (
(0,445,l),
(517,445,l),
(517,479,l),
(0,479,l)
);
},
{
closed = 1;
nodes = (
(483,-120,l),
(517,-120,l),
(517,880,l),
(483,880,l)
);
}
);
width = 1000;
}
);
note = cid08254;
unicode = 9569;
}
{
glyphname = boxLightArcDownAndRight;
layers = (
{
layerId = "481A290F-76EE-4968-957F-52614F4635C1";
shapes = (
{
closed = 1;
nodes = (
(517,-120,l),
(517,74,ls),
(517,241,o),
(639,363,o),
(806,363,cs),
(1000,363,l),
(1000,397,l),
(806,397,ls),
(619,397,o),
(483,261,o),
(483,74,cs),
(483,-120,l)
);
}
);
width = 1000;
}
);
note = cid08247;
unicode = 9581;
}
{
glyphname = boxLightArcUpAndRight;
layers = (
{
layerId = "481A290F-76EE-4968-957F-52614F4635C1";
shapes = (
{
closed = 1;
nodes = (
(1000,397,l),
(806,397,ls),
(639,397,o),
(517,519,o),
(517,686,cs),
(517,880,l),
(483,880,l),
(483,686,ls),
(483,499,o),
(619,363,o),
(806,363,cs),
(1000,363,l)
);
}
);
width = 1000;
}
);
note = cid08249;
unicode = 9584;
}
{
glyphname = leftFiveEighthsBlock;
layers = (
{
hints = (
{
horizontal = 1;
place = (-120,1000);
type = Stem;
},
{
place = (0,625);
type = Stem;
}
);
layerId = "481A290F-76EE-4968-957F-52614F4635C1";
shapes = (
{
closed = 1;
nodes = (
(625,-120,l),
(625,880,l),
(0,880,l),
(0,-120,l)
);
}
);
width = 1000;
}
);
note = cid08242;
unicode = 9611;
}
{
glyphname = leftOneQuarterBlock;
layers = (
{
hints = (
{
horizontal = 1;
place = (-120,1000);
type = Stem;
},
{
place = (0,250);
type = Stem;
}
);
layerId = "481A290F-76EE-4968-957F-52614F4635C1";
shapes = (
{
closed = 1;
nodes = (
(250,-120,l),
(250,880,l),
(0,880,l),
(0,-120,l)
);
}
);
width = 1000;
}
);
note = cid08239;
unicode = 9614;
}
{
glyphname = whiteSmallSquare;
layers = (
{
hints = (
{
horizontal = 1;
place = (240,45);
type = Stem;
},
{
horizontal = 1;
place = (471,45);
type = Stem;
},
{
place = (361,45);
type = Stem;
},
{
place = (593,45);
type = Stem;
}
);
layerId = "481A290F-76EE-4968-957F-52614F4635C1";
shapes = (
{
closed = 1;
nodes = (
(638,225,l),
(638,501,l),
(361,501,l),
(361,225,l)
);
},
{
closed = 1;
nodes = (
(593,270,l),
(406,270,l),
(406,456,l),
(593,456,l)
);
}
);
width = 1000;
}
);
note = cid12237;
unicode = 9643;
}
{
glyphname = rightWhiteTriangle;
layers = (
{
hints = (
{
horizontal = 1;
place = (-92,942);
type = Stem;
},
{
place = (178,50);
type = Stem;
}
);
layerId = "481A290F-76EE-4968-957F-52614F4635C1";
shapes = (
{
closed = 1;
nodes = (
(895,364,l),
(178,835,l),
(178,-107,l)
);
},
{
closed = 1;
nodes = (
(795,364,l),
(228,-10,l),
(228,738,l)
);
}
);
width = 1000;
}
);
note = cid08010;
unicode = 9655;
}
{
glyphname = blackDiamond;
layers = (
{
hints = (
{
horizontal = 1;
place = (-93,922);
type = Stem;
},
{
place = (39,922);
type = Stem;
}
);
layerId = "481A290F-76EE-4968-957F-52614F4635C1";
shapes = (
{
closed = 1;
nodes = (
(961,368,l),
(500,829,l),
(39,368,l),
(500,-93,l)
);
}
);
width = 1000;
}
);
note = cid00727;
unicode = 9670;
}
{
glyphname = blackCircle;
layers = (
{
hints = (
{
horizontal = 1;
place = (-66,867);
type = Stem;
},
{
place = (66,868);
type = Stem;
}
);
layerId = "481A290F-76EE-4968-957F-52614F4635C1";
shapes = (
{
closed = 1;
nodes = (
(934,607,o),
(740,801,o),
(500,801,cs),
(260,801,o),
(66,607,o),
(66,368,cs),
(66,128,o),
(260,-66,o),
(500,-66,cs),
(740,-66,o),
(934,128,o),
(934,368,cs)
);
}
);
width = 1000;
}
);
note = cid00724;
unicode = 9679;
}
{
glyphname = largeCircle;
layers = (
{
hints = (
{
horizontal = 1;
place = (-112,49);
type = Stem;
},
{
horizontal = 1;
place = (798,49);
type = Stem;
},
{
place = (20,49);
type = Stem;
},
{
place = (931,49);
type = Stem;
}
);
layerId = "481A290F-76EE-4968-957F-52614F4635C1";
shapes = (
{
closed = 1;
nodes = (
(980,617,o),
(765,832,o),
(500,832,cs),
(235,832,o),
(20,617,o),
(20,352,cs),
(20,87,o),
(235,-127,o),
(500,-127,cs),
(765,-127,o),
(980,87,o),
(980,352,cs)
);
},
{
closed = 1;
nodes = (
(931,114,o),
(738,-78,o),
(500,-78,cs),
(262,-78,o),
(69,114,o),
(69,352,cs),
(69,590,o),
(262,783,o),
(500,783,cs),
(738,783,o),
(931,590,o),
(931,352,cs)
);
}
);
width = 1000;
}
);
note = cid00779;
unicode = 9711;
}
{
glyphname = telephoneblack;
layers = (
{
hints = (
{
horizontal = 1;
place = (24,139);
type = Stem;
},
{
horizontal = 1;
place = (499,63);
type = Stem;
},
{
horizontal = 1;
place = (619,107);
type = Stem;
},
{
place = (323,83);
type = Stem;
},
{
place = (594,83);
type = Stem;
},
{
place = (687,195);
type = Stem;
},
{
place = (118,195);
type = Stem;
}
);
layerId = "481A290F-76EE-4968-957F-52614F4635C1";
shapes = (
{
closed = 1;
nodes = (
(780,9,ls),
(850,9,o),
(882,33,o),
(882,127,cs),
(882,251,o),
(730,349,o),
(682,509,cs),
(679,520,o),
(677,532,o),
(677,544,cs),
(677,557,o),
(679,571,o),
(681,586,c),
(724,570,o),
(739,544,o),
(739,514,cs),
(739,511,o),
(738,507,o),
(738,503,cs),
(737,494,o),
(736,487,o),
(736,480,cs),
(736,453,o),
(747,441,o),
(774,433,cs),
(815,421,o),
(918,399,o),
(929,399,cs),
(950,399,o),
(961,412,o),
(962,437,cs),
(962,445,ls),
(962,506,o),
(931,580,o),
(878,613,cs),
(814,653,o),
(672,711,o),
(500,711,cs),
(328,711,o),
(186,653,o),
(122,613,cs),
(69,580,o),
(38,506,o),
(38,445,cs),
(38,433,ls),
(40,411,o),
(51,399,o),
(71,399,cs),
(82,399,o),
(185,421,o),
(226,433,cs),
(253,441,o),
(264,453,o),
(264,480,cs),
(264,487,o),
(263,494,o),
(262,503,cs),
(262,507,o),
(261,511,o),
(261,514,cs),
(261,544,o),
(276,570,o),
(319,586,c),
(321,571,o),
(323,558,o),
(323,544,cs),
(323,532,o),
(321,520,o),
(318,509,cs),
(270,349,o),
(118,249,o),
(118,127,cs),
(118,30,o),
(160,9,o),
(220,9,cs)
);
},
{
closed = 1;
nodes = (
(594,547,o),
(514,547,o),
(500,547,cs),
(486,547,o),
(406,547,o),
(406,604,c),
(432,607,o),
(463,609,o),
(500,609,cs),
(537,609,o),
(568,607,o),
(594,604,c)
);
},
{
closed = 1;
nodes = (
(687,223,o),
(603,148,o),
(500,148,cs),
(397,148,o),
(313,223,o),
(313,316,cs),
(313,409,o),
(397,484,o),
(500,484,cs),
(603,484,o),
(687,409,o),
(687,316,cs)
);
}
);
width = 1000;
}
);
note = cid08056;
unicode = 9742;
}
{
glyphname = leftWhiteIndex;
layers = (
{
hints = (
{
horizontal = 1;
place = (175,27);
type = Stem;
},
{
horizontal = 1;
place = (328,20);
type = Stem;
},
{
horizontal = 1;
place = (426,27);
type = Stem;
},
{
horizontal = 1;
place = (537,27);
type = Stem;
},
{
horizontal = 1;
place = (629,27);
type = Stem;
},
{
place = (19,28);
type = Stem;
},
{
place = (269,25);
type = Stem;
},
{
place = (382,26);
type = Stem;
},
{
place = (555,25);
type = Stem;
},
{
place = (625,26);
type = Stem;
},
{
place = (782,23);
type = Stem;
},
{
place = (931,45);
type = Stem;
},
{
horizontal = 1;
place = (128,27);
type = Stem;
},
{
horizontal = 1;
place = (218,24);
type = Stem;
},
{
place = (307,28);
type = Stem;
},
{
horizontal = 1;
place = (429,28);
type = Stem;
},
{
place = (302,30);
type = Stem;
},
{
horizontal = 1;
place = (496,26);
type = Stem;
},
{
horizontal = 1;
place = (452,27);
type = Stem;
},
{
horizontal = 1;
place = (275,27);
type = Stem;
}
);
layerId = "481A290F-76EE-4968-957F-52614F4635C1";
shapes = (
{
closed = 1;
nodes = (
(942,160,ls),
(948,160,o),
(953,163,o),
(955,170,cs),
(968,214,o),
(976,279,o),
(976,348,cs),
(976,425,o),
(966,491,o),
(955,538,cs),
(954,545,o),
(948,549,o),
(942,549,cs),
(788,549,ls),
(778,549,o),
(773,545,o),
(773,538,cs),
(773,536,o),
(773,534,o),
(774,532,c),
(761,532,o),
(746,537,o),
(736,545,cs),
(660,603,o),
(585,635,o),
(518,640,cs),
(512,640,o),
(506,641,o),
(500,641,cs),
(430,641,o),
(389,608,o),
(351,565,c),
(239,556,o),
(153,550,o),
(89,540,cs),
(41,532,o),
(19,501,o),
(19,472,cs),
(19,441,o),
(43,411,o),
(84,411,cs),
(85,411,ls),
(147,413,o),
(216,414,o),
(277,415,c),
(272,407,o),
(269,397,o),
(269,386,cs),
(269,357,o),
(289,324,o),
(321,313,c),
(312,303,o),
(307,290,o),
(307,277,cs),
(307,242,o),
(339,203,o),
(384,203,cs),
(386,203,l),
(383,196,o),
(382,188,o),
(382,180,cs),
(382,147,o),
(407,113,o),
(455,113,cs),
(461,113,ls),
(586,120,o),
(683,145,o),
(774,175,c),
(774,173,ls),
(774,165,o),
(779,160,o),
(788,160,cs)
);
},
{
closed = 1;
nodes = (
(84,438,ls),
(61,438,o),
(47,454,o),
(47,471,cs),
(47,489,o),
(61,508,o),
(93,513,cs),
(154,521,o),
(231,525,o),
(324,533,c),
(309,516,o),
(302,496,o),
(302,477,cs),
(302,464,o),
(305,452,o),
(311,442,c),
(231,441,o),
(160,440,o),
(85,438,cs)
);
},
{
closed = 1;
nodes = (
(486,460,o),
(459,455,o),
(432,450,c),
(457,471,o),
(470,481,o),
(484,481,cs),
(500,481,o),
(511,470,o),
(515,464,c)
);
},
{
closed = 1;
nodes = (
(523,437,ls),
(541,437,o),
(555,420,o),
(555,402,cs),
(555,388,o),
(546,374,o),
(523,369,cs),
(474,356,o),
(417,341,o),
(352,333,c),
(346,333,ls),
(314,333,o),
(294,359,o),
(294,382,cs),
(294,398,o),
(305,413,o),
(330,414,cs),
(404,417,o),
(456,425,o),
(518,437,c)
);
},
{
closed = 1;
nodes = (
(792,461,o),
(797,410,o),
(797,350,cs),
(797,294,o),
(793,255,o),
(782,206,c),
(719,184,o),
(636,160,o),
(561,147,c),
(633,179,o),
(651,188,o),
(651,223,cs),
(651,253,o),
(629,283,o),
(601,287,c),
(605,294,o),
(607,302,o),
(607,309,cs),
(607,333,o),
(590,357,o),
(569,367,c),
(574,373,o),
(580,378,o),
(580,389,cs),
(580,391,o),
(579,393,o),
(579,396,c),
(600,374,o),
(632,355,o),
(673,341,c),
(674,341,o),
(676,340,o),
(677,340,cs),
(684,340,o),
(690,347,o),
(690,355,cs),
(690,360,o),
(687,365,o),
(680,367,cs),
(572,404,o),
(555,474,o),
(521,495,cs),
(508,503,o),
(497,507,o),
(486,507,cs),
(464,507,o),
(439,491,o),
(394,454,cs),
(383,445,o),
(373,441,o),
(364,441,cs),
(345,441,o),
(332,458,o),
(332,479,cs),
(332,491,o),
(336,504,o),
(345,515,cs),
(385,561,o),
(422,614,o),
(501,614,cs),
(506,614,o),
(511,613,o),
(516,613,cs),
(580,608,o),
(647,578,o),
(720,524,cs),
(751,501,o),
(761,507,o),
(782,504,c)
);
},
{
closed = 1;
nodes = (
(805,187,l),
(817,237,o),
(824,294,o),
(824,351,cs),
(824,416,o),
(817,472,o),
(805,522,c),
(931,522,l),
(940,476,o),
(949,418,o),
(949,348,cs),
(949,286,o),
(941,230,o),
(931,187,c)
);
},
{
closed = 1;
nodes = (
(504,259,o),
(457,241,o),
(394,228,cs),
(391,227,o),
(387,227,o),
(384,227,cs),
(356,227,o),
(335,252,o),
(335,274,cs),
(335,289,o),
(344,302,o),
(367,306,cs),
(427,315,o),
(479,326,o),
(546,344,cs),
(549,345,o),
(551,345,o),
(554,345,cs),
(569,345,o),
(580,331,o),
(580,315,cs),
(580,300,o),
(571,283,o),
(548,275,cs)
);
},
{
closed = 1;
nodes = (
(565,180,o),
(524,158,o),
(466,142,cs),
(461,140,o),
(456,140,o),
(451,140,cs),
(427,140,o),
(408,160,o),
(408,179,cs),
(408,191,o),
(415,203,o),
(434,208,cs),
(489,224,o),
(529,234,o),
(590,259,cs),
(593,260,o),
(596,260,o),
(598,260,cs),
(614,260,o),
(625,244,o),
(625,228,cs),
(625,217,o),
(620,205,o),
(605,199,cs)
);
}
);
width = 1000;
}
);
note = cid08220;
unicode = 9756;
}
{
glyphname = downWhiteIndex;
layers = (
{
hints = (
{
horizontal = 1;
place = (-114,28);
type = Stem;
},
{
horizontal = 1;
place = (136,25);
type = Stem;
},
{
horizontal = 1;
place = (249,26);
type = Stem;
},
{
horizontal = 1;
place = (422,25);
type = Stem;
},
{
horizontal = 1;
place = (493,25);
type = Stem;
},
{
horizontal = 1;
place = (649,23);
type = Stem;
},
{
horizontal = 1;
place = (798,45);
type = Stem;
},
{
place = (207,27);
type = Stem;
},
{
place = (299,27);
type = Stem;
},
{
place = (410,27);
type = Stem;
},
{
place = (515,20);
type = Stem;
},
{
place = (661,27);
type = Stem;
},
{
horizontal = 1;
place = (174,28);
type = Stem;
},
{
place = (621,24);
type = Stem;
},
{
place = (708,27);
type = Stem;
},
{
place = (561,27);
type = Stem;
},
{
horizontal = 1;
place = (447,27);
type = Stem;
},
{
horizontal = 1;
place = (169,30);
type = Stem;
},
{
place = (341,26);
type = Stem;
}
);
layerId = "481A290F-76EE-4968-957F-52614F4635C1";
shapes = (
{
closed = 1;
nodes = (
(437,-63,ls),
(435,-1,o),
(434,68,o),
(433,129,c),
(441,124,o),
(451,121,o),
(462,121,cs),
(491,121,o),
(524,141,o),
(535,173,c),
(545,164,o),
(557,159,o),
(570,159,cs),
(606,159,o),
(645,191,o),
(645,236,cs),
(645,238,l),
(652,235,o),
(660,234,o),
(668,234,cs),
(701,234,o),
(735,260,o),
(735,307,cs),
(735,313,ls),
(728,438,o),
(703,535,o),
(673,626,c),
(675,626,ls),
(683,626,o),
(688,631,o),
(688,640,cs),
(688,794,ls),
(688,800,o),
(685,805,o),
(678,807,cs),
(634,820,o),
(569,828,o),
(500,828,cs),
(423,828,o),
(357,818,o),
(310,807,cs),
(303,806,o),
(299,800,o),
(299,794,cs),
(299,640,ls),
(299,630,o),
(303,625,o),
(310,625,cs),
(312,625,o),
(314,625,o),
(316,626,c),
(316,613,o),
(311,598,o),
(303,588,cs),
(245,512,o),
(213,437,o),
(208,370,cs),
(208,364,o),
(207,358,o),
(207,352,cs),
(207,282,o),
(240,241,o),
(283,203,c),
(292,91,o),
(298,5,o),
(308,-59,cs),
(316,-107,o),
(347,-129,o),
(376,-129,cs),
(407,-129,o),
(437,-106,o),
(437,-65,cs)
);
},
{
closed = 1;
nodes = (
(669,485,o),
(660,503,o),
(625,503,cs),
(595,503,o),
(565,481,o),
(561,453,c),
(554,457,o),
(546,459,o),
(539,459,cs),
(515,459,o),
(491,442,o),
(481,421,c),
(475,426,o),
(470,432,o),
(459,432,cs),
(457,432,o),
(455,431,o),
(452,431,c),
(474,452,o),
(493,484,o),
(507,525,c),
(507,526,o),
(508,528,o),
(508,529,cs),
(508,536,o),
(501,542,o),
(493,542,cs),
(488,542,o),
(484,539,o),
(481,532,cs),
(444,424,o),
(374,407,o),
(353,373,cs),
(345,360,o),
(341,349,o),
(341,338,cs),
(341,316,o),
(357,291,o),
(394,246,cs),
(403,235,o),
(407,225,o),
(407,216,cs),
(407,197,o),
(390,184,o),
(369,184,cs),
(357,184,o),
(345,188,o),
(333,197,cs),
(287,237,o),
(234,274,o),
(234,353,cs),
(234,358,o),
(235,363,o),
(235,368,cs),
(240,432,o),
(270,499,o),
(324,572,cs),
(347,603,o),
(341,613,o),
(344,634,c),
(387,644,o),
(438,649,o),
(498,649,cs),
(554,649,o),
(593,645,o),
(642,634,c),
(664,571,o),
(688,488,o),
(701,413,c)
);
},
{
closed = 1;
nodes = (
(661,657,l),
(611,669,o),
(554,676,o),
(497,676,cs),
(432,676,o),
(376,669,o),
(326,657,c),
(326,783,l),
(372,792,o),
(430,801,o),
(500,801,cs),
(562,801,o),
(618,793,o),
(661,783,c)
);
},
{
closed = 1;
nodes = (
(410,-65,ls),
(410,-88,o),
(394,-101,o),
(377,-101,cs),
(359,-101,o),
(340,-87,o),
(335,-55,cs),
(327,6,o),
(323,83,o),
(315,176,c),
(332,161,o),
(352,154,o),
(371,154,cs),
(384,154,o),
(396,157,o),
(406,163,c),
(407,83,o),
(408,12,o),
(410,-63,cs)
);
},
{
closed = 1;
nodes = (
(515,198,ls),
(515,166,o),
(488,146,o),
(466,146,cs),
(450,146,o),
(435,157,o),
(434,182,cs),
(431,256,o),
(423,308,o),
(411,370,c),
(411,374,ls),
(411,393,o),
(428,407,o),
(446,407,cs),
(460,407,o),
(474,398,o),
(479,375,cs),
(492,326,o),
(507,269,o),
(515,204,c)
);
},
{
closed = 1;
nodes = (
(559,187,o),
(546,196,o),
(542,219,cs),
(533,279,o),
(522,331,o),
(504,398,cs),
(503,401,o),
(503,403,o),
(503,406,cs),
(503,421,o),
(518,432,o),
(534,432,cs),
(549,432,o),
(565,423,o),
(573,400,cs),
(604,316,o),
(621,256,o),
(621,236,cs),
(621,208,o),
(596,187,o),
(574,187,cs)
);
},
{
closed = 1;
nodes = (
(668,417,o),
(690,376,o),
(706,318,cs),
(708,313,o),
(708,308,o),
(708,303,cs),
(708,279,o),
(688,260,o),
(669,260,cs),
(657,260,o),
(646,267,o),
(640,286,cs),
(624,341,o),
(614,381,o),
(589,442,cs),
(588,445,o),
(588,447,o),
(588,450,cs),
(588,466,o),
(604,478,o),
(620,478,cs),
(631,478,o),
(643,472,o),
(649,457,cs)
);
},
{
closed = 1;
nodes = (
(377,309,o),
(367,322,o),
(367,336,cs),
(367,352,o),
(378,363,o),
(384,367,c),
(388,338,o),
(393,311,o),
(398,284,c)
);
}
);
width = 1000;
}
);
note = cid08222;
unicode = 9759;
}
{
glyphname = venus;
layers = (
{
hints = (
{
horizontal = 1;
place = (203,62);
type = Stem;
},
{
horizontal = 1;
place = (670,60);
type = Stem;
},
{
place = (309,61);
type = Stem;
},
{
place = (468,64);
type = Stem;
},
{
place = (629,61);
type = Stem;
},
{
horizontal = 1;
place = (197,62);
type = Stem;
}
);
layerId = "481A290F-76EE-4968-957F-52614F4635C1";
shapes = (
{
closed = 1;
nodes = (
(811,268,ls),
(783,266,o),
(765,266,o),
(735,265,cs),
(656,262,o),
(572,262,o),
(532,260,c),
(532,348,l),
(619,361,o),
(690,433,o),
(690,538,cs),
(690,655,o),
(598,730,o),
(501,730,cs),
(400,730,o),
(309,652,o),
(309,538,cs),
(309,437,o),
(382,363,o),
(468,349,c),
(468,262,l),
(268,259,ls),
(236,259,o),
(201,260,o),
(181,261,cs),
(167,261,o),
(162,249,o),
(162,235,cs),
(162,216,o),
(171,194,o),
(185,194,cs),
(187,194,ls),
(202,196,o),
(242,197,o),
(267,197,cs),
(468,200,l),
(468,83,ls),
(468,49,o),
(466,11,o),
(466,-5,cs),
(466,-22,o),
(495,-34,o),
(515,-34,cs),
(526,-34,o),
(535,-30,o),
(535,-23,cs),
(535,0,o),
(532,42,o),
(532,83,cs),
(532,200,l),
(734,203,ls),
(750,203,o),
(786,202,o),
(817,202,cs),
(831,202,o),
(837,215,o),
(837,230,cs),
(837,248,o),
(828,268,o),
(812,268,cs)
);
},
{
closed = 1;
nodes = (
(431,406,o),
(370,462,o),
(370,538,cs),
(370,614,o),
(431,670,o),
(501,670,cs),
(570,670,o),
(629,613,o),
(629,538,cs),
(629,460,o),
(570,406,o),
(501,406,cs)
);
}
);
width = 1000;
}
);
note = cid00706;
unicode = 9792;
}
{
glyphname = clubWhiteSuit;
layers = (
{
hints = (
{
horizontal = 1;
place = (-60,43);
type = Stem;
},
{
horizontal = 1;
place = (66,45);
type = Stem;
},
{
horizontal = 1;
place = (405,43);
type = Stem;
},
{
horizontal = 1;
place = (747,45);
type = Stem;
},
{
place = (78,45);
type = Stem;
},
{
place = (288,45);
type = Stem;
},
{
place = (418,58);
type = Stem;
},
{
place = (525,40);
type = Stem;
},
{
place = (657,45);
type = Stem;
},
{
place = (877,45);
type = Stem;
}
);
layerId = "481A290F-76EE-4968-957F-52614F4635C1";
shapes = (
{
closed = 1;
nodes = (
(602,-75,l),
(602,-75,o),
(565,24,o),
(565,138,c),
(593,85,o),
(658,51,o),
(726,51,cs),
(839,51,o),
(922,124,o),
(922,247,cs),
(922,350,o),
(839,433,o),
(726,433,cs),
(694,433,o),
(656,417,o),
(625,399,c),
(688,439,o),
(702,509,o),
(702,576,cs),
(702,695,o),
(608,777,o),
(500,777,cs),
(392,777,o),
(288,695,o),
(288,576,cs),
(288,509,o),
(311,444,o),
(374,399,c),
(342,418,o),
(306,433,o),
(274,433,cs),
(161,433,o),
(78,350,o),
(78,247,cs),
(78,130,o),
(161,51,o),
(274,51,cs),
(342,51,o),
(401,83,o),
(434,137,c),
(429,26,o),
(398,-75,o),
(398,-75,c)
);
},
{
closed = 1;
nodes = (
(458,-32,l),
(466,3,o),
(471,54,o),
(476,199,c),
(418,199,l),
(398,129,o),
(327,96,o),
(274,96,cs),
(187,96,o),
(123,157,o),
(123,247,cs),
(123,325,o),
(187,390,o),
(274,390,cs),
(299,390,o),
(349,374,o),
(394,347,c),
(433,405,l),
(351,457,o),
(333,523,o),
(333,576,cs),
(333,668,o),
(416,732,o),
(500,732,cs),
(584,732,o),
(657,668,o),
(657,576,cs),
(657,524,o),
(648,459,o),
(566,409,c),
(606,346,l),
(651,373,o),
(701,388,o),
(726,388,cs),
(813,388,o),
(877,325,o),
(877,247,cs),
(877,152,o),
(813,96,o),
(726,96,cs),
(673,96,o),
(604,127,o),
(583,200,c),
(525,200,l),
(525,60,o),
(531,5,o),
(540,-32,c)
);
}
);
width = 1000;
}
);
note = cid08016;
unicode = 9831;
}
{
glyphname = "beamedsixteenthnotes-musical";
layers = (
{
hints = (
{
horizontal = 1;
place = (52,208);
type = Stem;
},
{
place = (298,52);
type = Stem;
},
{
place = (759,52);
type = Stem;
},
{
horizontal = 1;
place = (-67,208);
type = Stem;
}
);
layerId = "481A290F-76EE-4968-957F-52614F4635C1";
shapes = (
{
closed = 1;
nodes = (
(759,244,l),
(755,244,o),
(745,245,o),
(732,245,cs),
(621,245,o),
(553,182,o),
(553,116,cs),
(553,71,o),
(588,37,o),
(640,37,cs),
(700,37,o),
(811,95,o),
(811,219,cs),
(811,776,l),
(298,670,l),
(298,125,l),
(294,125,o),
(284,126,o),
(271,126,cs),
(160,126,o),
(92,63,o),
(92,-3,cs),
(92,-48,o),
(127,-82,o),
(179,-82,cs),
(239,-82,o),
(350,-25,o),
(350,100,cs),
(350,386,l),
(759,471,l)
);
},
{
closed = 1;
nodes = (
(759,587,l),
(350,502,l),
(350,564,l),
(759,649,l)
);
}
);
width = 1000;
}
);
note = cid12100;
unicode = 9836;
}
{
glyphname = warningSign;
layers = (
{
hints = (
{
horizontal = 1;
place = (-44,44);
type = Stem;
},
{
place = (471,49);
type = Stem;
},
{
horizontal = 1;
place = (37,85);
type = Stem;
},
{
place = (457,82);
type = Stem;
}
);
layerId = "481A290F-76EE-4968-957F-52614F4635C1";
shapes = (
{
closed = 1;
nodes = (
(978,-59,l),
(499,773,l),
(19,-59,l)
);
},
{
closed = 1;
nodes = (
(904,-15,l),
(94,-15,l),
(499,687,l)
);
},
{
closed = 1;
nodes = (
(520,199,l),
(529,492,ls),
(530,514,o),
(532,531,o),
(534,547,cs),
(534,548,ls),
(534,560,o),
(508,572,o),
(488,572,cs),
(477,572,o),
(468,568,o),
(468,559,cs),
(468,557,ls),
(468,551,o),
(471,517,o),
(471,495,cs),
(476,202,ls),
(476,191,o),
(475,179,o),
(475,171,cs),
(475,170,ls),
(475,161,o),
(494,154,o),
(507,154,cs),
(515,154,o),
(520,155,o),
(520,160,cs)
);
},
{
closed = 1;
nodes = (
(539,82,o),
(517,107,o),
(498,107,cs),
(470,107,o),
(457,90,o),
(457,68,cs),
(457,46,o),
(476,22,o),
(498,22,cs),
(526,22,o),
(539,36,o),
(539,57,cs)
);
}
);
width = 1000;
}
);
note = cid12192;
unicode = 9888;
}
{
glyphname = one_zero.blackCircled;
layers = (
{
hints = (
{
horizontal = 1;
place = (-110,171);
type = Stem;
},
{
horizontal = 1;
place = (671,174);
type = Stem;
},
{
place = (22,231);
type = Stem;
},
{
place = (336,113);
type = Stem;
},
{
place = (532,205);
type = Stem;
},
{
place = (821,157);
type = Stem;
}
);
layerId = "481A290F-76EE-4968-957F-52614F4635C1";
shapes = (
{
closed = 1;
nodes = (
(978,616,o),
(764,830,o),
(500,830,cs),
(236,830,o),
(22,616,o),
(22,352,cs),
(22,88,o),
(236,-125,o),
(500,-125,cs),
(764,-125,o),
(978,88,o),
(978,352,cs)
);
},
{
closed = 1;
nodes = (
(577,637,o),
(608,656,o),
(644,656,cs),
(768,656,o),
(821,518,o),
(821,356,cs),
(821,201,o),
(764,46,o),
(634,46,cs),
(493,46,o),
(449,191,o),
(449,342,cs),
(449,483,o),
(497,613,o),
(538,613,cs),
(543,613,o),
(548,611,o),
(552,609,c)
);
},
{
closed = 1;
nodes = (
(701,126,o),
(737,217,o),
(737,361,cs),
(737,483,o),
(709,576,o),
(641,576,cs),
(606,576,o),
(532,504,o),
(532,344,cs),
(532,215,o),
(552,126,o),
(632,126,cs)
);
},
{
closed = 1;
nodes = (
(337,70,ls),
(337,59,o),
(326,48,o),
(307,48,cs),
(284,48,o),
(252,66,o),
(252,85,cs),
(252,98,o),
(253,139,o),
(253,156,cs),
(253,529,l),
(235,522,o),
(216,516,o),
(197,512,c),
(195,511,o),
(193,511,o),
(191,511,cs),
(175,511,o),
(143,522,o),
(143,545,cs),
(143,555,o),
(150,563,o),
(161,568,cs),
(195,581,o),
(227,602,o),
(248,619,c),
(252,624,l),
(261,634,ls),
(271,644,o),
(282,651,o),
(291,651,cs),
(309,651,o),
(340,631,o),
(340,605,cs),
(340,592,o),
(336,572,o),
(336,549,cs),
(336,160,ls),
(336,139,o),
(337,94,o),
(337,72,cs)
);
}
);
width = 1000;
}
);
note = cid10514;
unicode = 10111;
}
{
glyphname = leftBlackArrow;
layers = (
{
hints = (
{
horizontal = 1;
place = (249,261);
type = Stem;
},
{
place = (46,848);
type = Stem;
}
);
layerId = "481A290F-76EE-4968-957F-52614F4635C1";
shapes = (
{
closed = 1;
nodes = (
(894,234,l),
(894,495,l),
(410,495,l),
(410,673,l),
(46,365,l),
(410,56,l),
(410,234,l)
);
}
);
width = 1000;
}
);
note = cid08207;
unicode = 11013;
}
{
glyphname = upBlackArrow;
layers = (
{
hints = (
{
horizontal = 1;
place = (-15,848);
type = Stem;
},
{
place = (368,261);
type = Stem;
}
);
layerId = "481A290F-76EE-4968-957F-52614F4635C1";
shapes = (
{
closed = 1;
nodes = (
(629,-30,l),
(629,454,l),
(807,454,l),
(499,818,l),
(190,454,l),
(368,454,l),
(368,-30,l)
);
}
);
width = 1000;
}
);
note = cid08208;
unicode = 11014;
}
{
color = 6;
glyphname = uni5202;
layers = (
{
hints = (
{
horizontal = 1;
place = (-95,908);
type = Stem;
},
{
place = (366,61);
type = Stem;
},
{
place = (572,68);
type = Stem;
}
);
layerId = "481A290F-76EE-4968-957F-52614F4635C1";
shapes = (
{
closed = 1;
nodes = (
(570,-13,l),
(529,1,o),
(479,22,o),
(435,46,cs),
(424,52,o),
(415,55,o),
(409,55,cs),
(403,55,o),
(400,52,o),
(400,48,cs),
(400,21,o),
(555,-95,o),
(593,-95,cs),
(615,-95,o),
(639,-74,o),
(639,-40,cs),
(639,-32,o),
(638,-22,o),
(638,-11,cs),
(640,772,ls),
(640,805,o),
(575,813,o),
(566,813,cs),
(556,813,o),
(553,810,o),
(553,805,cs),
(553,802,o),
(555,798,o),
(557,794,cs),
(566,780,o),
(572,764,o),
(572,749,cs)
);
},
{
closed = 1;
nodes = (
(366,245,ls),
(366,226,o),
(364,208,o),
(361,192,cs),
(360,187,o),
(359,182,o),
(359,178,cs),
(359,150,o),
(401,136,o),
(415,136,cs),
(427,136,o),
(432,145,o),
(432,161,cs),
(427,607,ls),
(427,623,o),
(422,629,o),
(394,639,cs),
(379,645,o),
(368,647,o),
(360,647,cs),
(353,647,o),
(349,645,o),
(349,640,cs),
(349,637,o),
(350,633,o),
(353,628,cs),
(361,615,o),
(365,601,o),
(365,585,cs)
);
}
);
width = 1000;
}
);
note = "cid14356
%JIS-2
";
unicode = (11913,20994);
}
{
color = 4;
glyphname = uni6C11;
layers = (
{
background = {
hints = (
{
horizontal = 1;
place = (324,54);
type = Stem;
},
{
horizontal = 1;
place = (505,59);
type = Stem;
},
{
place = (208,64);
type = Stem;
},
{
horizontal = 1;
place = (-80,76);
type = Stem;
},
{
horizontal = 1;
place = (306,55);
type = Stem;
},
{
name = _corner.rHook;
options = 2;
origin = (0,45);
type = Corner;
}
);
shapes = (
{
closed = 1;
nodes = (
(857,331,ls),
(870,332,o),
(880,336,o),
(880,345,cs),
(880,363,o),
(841,392,o),
(827,392,cs),
(824,392,o),
(821,391,o),
(818,390,cs),
(804,385,o),
(791,384,o),
(775,383,cs),
(594,373,l),
(581,415,o),
(569,464,o),
(561,515,c),
(763,525,ls),
(780,526,o),
(793,527,o),
(793,538,cs),
(793,545,o),
(786,558,o),
(771,578,c),
(799,707,ls),
(801,714,o),
(807,720,o),
(807,729,cs),
(807,745,o),
(785,765,o),
(761,765,cs),
(750,765,l),
(252,734,l),
(217,751,o),
(197,758,o),
(186,758,cs),
(177,758,o),
(174,754,o),
(174,747,cs),
(174,742,o),
(175,737,o),
(177,731,cs),
(182,716,o),
(183,697,o),
(183,676,cs),
(179,-54,l),
(219,-54,o),
(341,-3,o),
(515,80,cs),
(532,88,o),
(539,96,o),
(539,102,cs),
(539,107,o),
(534,110,o),
(525,110,cs),
(519,110,o),
(512,109,o),
(503,106,cs),
(426,81,o),
(322,58,o),
(246,37,c),
(248,299,l),
(544,314,l),
(613,94,o),
(797,-62,o),
(862,-77,cs),
(870,-79,o),
(877,-80,o),
(883,-80,cs),
(913,-80,o),
(933,-80,o),
(955,167,cs),
(956,174,o),
(956,181,o),
(956,186,cs),
(956,204,o),
(953,213,o),
(948,213,cs),
(942,213,o),
(934,200,o),
(926,172,cs),
(876,2,o),
(870,-4,o),
(862,-4,cs),
(851,-4,o),
(689,107,o),
(611,317,c)
);
},
{
closed = 1;
nodes = (
(709,577,l),
(249,553,l),
(250,681,l),
(734,710,l)
);
},
{
closed = 1;
nodes = (
(497,511,l),
(505,461,o),
(516,413,o),
(528,369,c),
(248,355,l),
(249,501,l)
);
}
);
};
hints = (
{
horizontal = 1;
place = (324,54);
type = Stem;
},
{
horizontal = 1;
place = (505,59);
type = Stem;
},
{
place = (208,64);
type = Stem;
},
{
horizontal = 1;
place = (-80,76);
type = Stem;
},
{
horizontal = 1;
place = (306,55);
type = Stem;
}
);
layerId = "481A290F-76EE-4968-957F-52614F4635C1";
shapes = (
{
closed = 1;
nodes = (
(857,331,ls),
(870,332,o),
(880,336,o),
(880,345,cs),
(880,363,o),
(841,392,o),
(827,392,cs),
(824,392,o),
(821,391,o),
(818,390,cs),
(804,385,o),
(791,384,o),
(775,383,cs),
(594,373,l),
(581,415,o),
(569,464,o),
(561,515,c),
(763,525,ls),
(780,526,o),
(793,527,o),
(793,538,cs),
(793,545,o),
(786,558,o),
(771,578,c),
(799,707,ls),
(801,714,o),
(807,720,o),
(807,729,cs),
(807,745,o),
(785,765,o),
(761,765,cs),
(750,765,l),
(252,734,l),
(217,751,o),
(197,758,o),
(186,758,cs),
(177,758,o),
(174,754,o),
(174,747,cs),
(174,742,o),
(175,737,o),
(177,731,cs),
(182,716,o),
(183,697,o),
(183,676,cs),
(180,74,l),
(180,64,o),
(181,-3,o),
(174,-14,c),
(166,-27,o),
(189,-57,o),
(202,-57,c),
(217,-57,o),
(251,-36,o),
(312,-12,c),
(366,11,o),
(435,42,o),
(515,80,cs),
(532,88,o),
(539,96,o),
(539,102,cs),
(539,107,o),
(534,110,o),
(525,110,cs),
(519,110,o),
(512,109,o),
(503,106,cs),
(426,81,o),
(322,58,o),
(246,37,c),
(248,299,l),
(544,314,l),
(613,94,o),
(797,-62,o),
(862,-77,cs),
(870,-79,o),
(877,-80,o),
(883,-80,cs),
(913,-80,o),
(933,-80,o),
(955,167,cs),
(956,174,o),
(956,181,o),
(956,186,cs),
(956,204,o),
(953,213,o),
(948,213,cs),
(942,213,o),
(934,200,o),
(926,172,cs),
(876,2,o),
(870,-4,o),
(862,-4,cs),
(851,-4,o),
(689,107,o),
(611,317,c)
);
},
{
closed = 1;
nodes = (
(709,577,l),
(249,553,l),
(250,681,l),
(734,710,l)
);
},
{
closed = 1;
nodes = (
(497,511,l),
(505,461,o),
(516,413,o),
(528,369,c),
(248,355,l),
(249,501,l)
);
}
);
width = 1000;
}
);
note = "cid03773
%Big5-1,TEdu-1,TTaiKe,JJoyo,JIS-1
";
unicode = (11936,27665);
}
{
color = 6;
glyphname = uni6C35;
layers = (
{
hints = (
{
horizontal = 1;
place = (-27,797);
type = Stem;
},
{
place = (312,340);
type = Stem;
}
);
layerId = "481A290F-76EE-4968-957F-52614F4635C1";
shapes = (
{
closed = 1;
nodes = (
(395,747,o),
(391,739,o),
(391,733,cs),
(391,725,o),
(396,719,o),
(405,713,cs),
(452,681,o),
(518,630,o),
(560,593,cs),
(568,585,o),
(575,581,o),
(581,581,cs),
(591,581,o),
(617,607,o),
(617,624,cs),
(617,631,o),
(612,638,o),
(603,646,cs),
(540,696,o),
(441,770,o),
(421,770,cs),
(414,770,o),
(408,766,o),
(402,756,cs)
);
},
{
closed = 1;
nodes = (
(527,381,o),
(546,410,o),
(546,425,cs),
(546,434,o),
(540,442,o),
(528,451,cs),
(464,497,o),
(366,559,o),
(350,559,cs),
(343,559,o),
(323,541,o),
(323,522,cs),
(323,514,o),
(327,507,o),
(338,500,cs),
(384,473,o),
(444,431,o),
(489,393,cs),
(498,385,o),
(505,381,o),
(511,381,cs)
);
},
{
closed = 1;
nodes = (
(385,-27,ls),
(400,-27,o),
(412,-11,o),
(433,16,cs),
(518,128,o),
(652,336,o),
(652,362,cs),
(652,369,o),
(648,373,o),
(643,373,cs),
(636,373,o),
(627,368,o),
(618,355,cs),
(541,251,o),
(443,133,o),
(364,52,cs),
(353,41,o),
(338,36,o),
(322,31,cs),
(315,29,o),
(312,25,o),
(312,20,cs),
(312,9,o),
(353,-23,o),
(382,-27,cs)
);
}
);
width = 1000;
}
);
note = "cid14689
%JIS-2
";
unicode = (11937,27701);
}
{
color = 6;
glyphname = uni2EA9;
layers = (
{
hints = (
{
horizontal = 1;
place = (367,50);
type = Stem;
},
{
horizontal = 1;
place = (593,50);
type = Stem;
},
{
place = (468,62);
type = Stem;
},
{
horizontal = 1;
place = (377,50);
type = Stem;
}
);
layerId = "481A290F-76EE-4968-957F-52614F4635C1";
shapes = (
{
closed = 1;
nodes = (
(467,147,l),
(405,128,o),
(313,105,o),
(282,103,cs),
(272,102,o),
(268,100,o),
(268,95,cs),
(268,87,o),
(292,38,o),
(320,38,cs),
(358,38,o),
(576,128,o),
(692,186,cs),
(712,196,o),
(721,206,o),
(721,212,cs),
(721,217,o),
(716,220,o),
(707,220,cs),
(700,220,o),
(691,219,o),
(681,215,cs),
(634,197,o),
(581,180,o),
(529,165,c),
(531,373,l),
(650,381,ls),
(664,382,o),
(675,386,o),
(675,395,cs),
(675,404,o),
(645,440,o),
(624,440,cs),
(620,440,o),
(617,439,o),
(614,438,cs),
(601,433,o),
(588,430,o),
(574,429,cs),
(531,426,l),
(533,600,l),
(674,609,ls),
(687,610,o),
(697,614,o),
(697,623,cs),
(697,639,o),
(662,667,o),
(647,667,cs),
(644,667,o),
(641,666,o),
(638,665,cs),
(625,660,o),
(612,658,o),
(600,657,cs),
(367,644,ls),
(362,644,o),
(356,643,o),
(351,643,cs),
(341,643,o),
(331,644,o),
(321,646,cs),
(318,647,o),
(316,647,o),
(314,647,cs),
(309,647,o),
(307,645,o),
(307,641,cs),
(307,639,o),
(308,636,o),
(309,632,cs),
(313,620,o),
(330,589,o),
(361,589,cs),
(369,589,o),
(378,590,o),
(389,591,cs),
(471,596,l),
(469,422,l),
(385,417,l),
(372,417,ls),
(359,417,o),
(347,418,o),
(337,420,c),
(335,421,o),
(332,421,o),
(331,421,cs),
(326,421,o),
(323,419,o),
(323,414,cs),
(323,409,o),
(337,363,o),
(372,363,cs),
(381,363,o),
(391,364,o),
(403,365,cs),
(469,369,l)
);
}
);
width = 1000;
}
);
note = "cid13729
";
unicode = 11945;
}
{
color = 6;
glyphname = u2626A;
layers = (
{
hints = (
{
horizontal = 1;
place = (261,57);
type = Stem;
},
{
horizontal = 1;
place = (442,75);
type = Stem;
},
{
place = (163,70);
type = Stem;
},
{
place = (527,63);
type = Stem;
}
);
layerId = "481A290F-76EE-4968-957F-52614F4635C1";
shapes = (
{
closed = 1;
nodes = (
(779,298,ls),
(777,283,o),
(772,262,o),
(766,245,cs),
(765,241,o),
(764,238,o),
(764,234,cs),
(764,223,o),
(773,215,o),
(796,206,cs),
(806,202,o),
(814,200,o),
(820,200,cs),
(833,200,o),
(838,208,o),
(839,221,cs),
(864,456,ls),
(865,468,o),
(874,475,o),
(874,485,cs),
(874,501,o),
(847,519,o),
(829,519,cs),
(824,519,o),
(818,518,o),
(811,518,cs),
(202,489,l),
(165,501,o),
(144,506,o),
(132,506,cs),
(125,506,o),
(122,504,o),
(122,500,cs),
(122,496,o),
(125,490,o),
(130,483,cs),
(140,468,o),
(147,452,o),
(149,426,cs),
(162,286,ls),
(163,280,o),
(163,273,o),
(163,267,cs),
(163,256,o),
(162,245,o),
(160,235,cs),
(159,232,o),
(159,230,o),
(159,228,cs),
(159,204,o),
(201,196,o),
(211,196,cs),
(225,196,o),
(233,204,o),
(233,216,cs),
(233,220,l),
(215,430,l),
(406,439,l),
(406,437,o),
(405,436,o),
(405,434,cs),
(394,370,o),
(288,282,o),
(267,264,cs),
(257,256,o),
(253,249,o),
(253,244,cs),
(253,240,o),
(255,238,o),
(261,238,cs),
(266,238,o),
(273,240,o),
(282,244,cs),
(368,279,o),
(474,382,o),
(474,399,cs),
(474,410,o),
(463,419,o),
(435,440,c),
(528,445,l),
(527,348,l),
(527,344,ls),
(527,277,o),
(549,261,o),
(623,261,cs),
(750,261,o),
(753,286,o),
(753,293,cs),
(753,307,o),
(719,335,o),
(703,335,cs),
(699,335,o),
(696,334,o),
(692,332,cs),
(674,324,o),
(656,318,o),
(633,318,cs),
(626,318,o),
(620,319,o),
(615,319,cs),
(595,321,o),
(590,327,o),
(590,352,cs),
(592,448,l),
(796,457,l)
);
}
);
width = 1000;
}
);
note = "cid14189
";
unicode = (11955,156266);
}
{
color = 6;
glyphname = uni897F;
layers = (
{
hints = (
{
horizontal = 1;
place = (25,52);
type = Stem;
},
{
horizontal = 1;
place = (201,57);
type = Stem;
},
{
horizontal = 1;
place = (433,56);
type = Stem;
},
{
horizontal = 1;
place = (631,57);
type = Stem;
},
{
place = (171,72);
type = Stem;
},
{
place = (373,64);
type = Stem;
},
{
place = (546,64);
type = Stem;
},
{
horizontal = 1;
place = (454,64);
type = Stem;
},
{
horizontal = 1;
place = (662,70);
type = Stem;
},
{
place = (551,64);
type = Stem;
}
);
layerId = "481A290F-76EE-4968-957F-52614F4635C1";
shapes = (
{
closed = 1;
nodes = (
(852,25,ls),
(872,25,o),
(883,30,o),
(883,40,cs),
(883,50,o),
(870,67,o),
(843,90,c),
(878,450,ls),
(879,457,o),
(885,464,o),
(885,473,cs),
(885,497,o),
(849,519,o),
(833,519,cs),
(829,519,o),
(826,518,o),
(823,518,cs),
(614,507,l),
(617,656,l),
(843,669,ls),
(859,670,o),
(869,677,o),
(869,686,cs),
(869,706,o),
(826,733,o),
(814,733,cs),
(810,733,o),
(806,732,o),
(801,730,cs),
(788,725,o),
(775,722,o),
(754,721,cs),
(193,688,l),
(187,688,ls),
(170,688,o),
(151,691,o),
(134,695,c),
(130,695,ls),
(124,695,o),
(122,693,o),
(122,689,cs),
(122,683,o),
(133,656,o),
(151,639,cs),
(158,633,o),
(167,631,o),
(180,631,cs),
(188,631,o),
(197,631,o),
(208,632,cs),
(371,642,l),
(372,610,o),
(373,579,o),
(373,551,cs),
(373,531,o),
(372,511,o),
(372,494,c),
(210,485,l),
(165,506,o),
(142,514,o),
(131,514,cs),
(125,514,o),
(122,511,o),
(122,507,cs),
(122,504,o),
(124,499,o),
(126,493,cs),
(136,462,o),
(141,430,o),
(145,388,cs),
(171,83,ls),
(173,64,o),
(174,45,o),
(174,28,cs),
(174,13,o),
(173,-1,o),
(171,-13,cs),
(170,-19,o),
(169,-24,o),
(169,-29,cs),
(169,-55,o),
(210,-72,o),
(226,-72,cs),
(239,-72,o),
(243,-63,o),
(243,-50,cs),
(243,-46,l),
(239,13,l)
);
},
{
closed = 1;
nodes = (
(780,85,l),
(234,70,l),
(208,429,l),
(370,437,l),
(362,329,o),
(333,241,o),
(271,164,cs),
(261,151,o),
(256,141,o),
(256,135,cs),
(256,130,o),
(258,128,o),
(263,128,cs),
(269,128,o),
(278,133,o),
(291,143,cs),
(385,219,o),
(422,311,o),
(432,440,c),
(549,446,l),
(546,303,l),
(546,296,ls),
(546,211,o),
(590,201,o),
(662,201,cs),
(690,201,o),
(721,204,o),
(761,210,cs),
(778,213,o),
(783,221,o),
(783,229,cs),
(783,248,o),
(747,275,o),
(732,275,cs),
(729,275,o),
(727,274,o),
(725,273,cs),
(705,262,o),
(684,258,o),
(664,258,cs),
(614,258,o),
(610,271,o),
(610,299,cs),
(610,308,l),
(613,449,l),
(812,459,l)
);
},
{
closed = 1;
nodes = (
(550,503,l),
(435,497,l),
(436,541,o),
(437,593,o),
(437,645,c),
(553,652,l)
);
}
);
width = 1000;
}
);
note = "cid02658
%Big5-1,TEdu-1,TTaiKe,JJoyo,JIS-1
";
unicode = (11972,35199);
}
{
color = 7;
glyphname = uni2EC6;
layers = (
{
hints = (
{
horizontal = 1;
place = (182,54);
type = Stem;
},
{
horizontal = 1;
place = (360,54);
type = Stem;
},
{
horizontal = 1;
place = (503,54);
type = Stem;
},
{
horizontal = 1;
place = (668,59);
type = Stem;
},
{
place = (219,57);
type = Stem;
},
{
place = (471,60);
type = Stem;
},
{
place = (758,65);
type = Stem;
},
{
horizontal = 1;
place = (517,61);
type = Stem;
},
{
place = (218,62);
type = Stem;
},
{
place = (402,77);
type = Stem;
},
{
horizontal = 1;
place = (172,55);
type = Stem;
},
{
place = (473,60);
type = Stem;
},
{
horizontal = 1;
place = (349,54);
type = Stem;
}
);
layerId = "481A290F-76EE-4968-957F-52614F4635C1";
shapes = (
{
closed = 1;
nodes = (
(758,-21,l),
(721,-9,o),
(679,10,o),
(642,30,cs),
(630,37,o),
(620,40,o),
(614,40,cs),
(609,40,o),
(606,38,o),
(606,33,cs),
(606,6,o),
(747,-99,o),
(778,-99,cs),
(805,-99,o),
(824,-70,o),
(824,-49,cs),
(824,-41,o),
(823,-32,o),
(823,-21,cs),
(822,524,ls),
(822,533,o),
(825,539,o),
(825,545,cs),
(825,563,o),
(801,578,o),
(785,578,cs),
(777,578,l),
(583,567,l),
(637,613,o),
(707,677,o),
(707,691,cs),
(707,703,o),
(687,728,o),
(652,728,cs),
(648,728,o),
(643,727,o),
(639,727,cs),
(421,712,l),
(439,734,o),
(457,757,o),
(475,783,c),
(478,786,o),
(479,790,o),
(479,793,cs),
(479,807,o),
(427,845,o),
(410,845,cs),
(404,845,o),
(402,841,o),
(402,832,cs),
(402,826,ls),
(402,809,o),
(398,794,o),
(392,784,cs),
(327,686,o),
(248,594,o),
(130,492,cs),
(122,486,o),
(119,479,o),
(119,474,cs),
(119,469,o),
(122,466,o),
(128,466,cs),
(138,466,o),
(158,479,o),
(216,520,c),
(217,512,o),
(218,503,o),
(218,493,cs),
(218,459,o),
(219,426,o),
(219,393,cs),
(219,217,o),
(215,94,o),
(84,-60,cs),
(75,-71,o),
(70,-80,o),
(70,-85,cs),
(70,-90,o),
(73,-93,o),
(78,-93,cs),
(101,-93,o),
(224,8,o),
(265,169,c),
(472,176,l),
(471,33,ls),
(471,13,o),
(470,-4,o),
(466,-23,cs),
(465,-28,o),
(464,-33,o),
(464,-37,cs),
(464,-64,o),
(504,-75,o),
(515,-75,cs),
(526,-75,o),
(531,-67,o),
(531,-50,cs),
(533,178,l),
(758,186,l)
);
},
{
closed = 1;
nodes = (
(758,240,l),
(533,233,l),
(534,356,l),
(757,364,l)
);
},
{
closed = 1;
nodes = (
(616,676,l),
(584,638,o),
(548,605,o),
(499,563,c),
(279,551,l),
(265,557,l),
(306,589,o),
(342,622,o),
(377,660,c)
);
},
{
closed = 1;
nodes = (
(473,231,l),
(275,224,l),
(275,228,o),
(276,233,o),
(276,238,cs),
(279,274,o),
(280,309,o),
(281,346,c),
(474,353,l)
);
},
{
closed = 1;
nodes = (
(757,418,l),
(535,410,l),
(536,511,l),
(757,523,l)
);
},
{
closed = 1;
nodes = (
(475,407,l),
(281,400,l),
(281,431,o),
(280,464,o),
(280,498,c),
(476,508,l)
);
}
);
width = 1000;
}
);
note = "cid13682
";
unicode = 11974;
}
{
color = 4;
glyphname = uni9752;
layers = (
{
background = {
shapes = (
{
closed = 1;
nodes = (
(298,78,l),
(693,95,l),
(694,-29,l),
(661,-20,o),
(618,-5,o),
(581,13,cs),
(568,19,o),
(558,22,o),
(552,22,cs),
(547,22,o),
(544,20,o),
(544,16,cs),
(544,-11,o),
(685,-103,o),
(715,-103,cs),
(736,-103,o),
(755,-82,o),
(755,-58,cs),
(755,-51,o),
(754,-43,o),
(754,-33,cs),
(750,329,ls),
(750,333,o),
(753,340,o),
(753,347,cs),
(753,365,o),
(734,384,o),
(708,384,cs),
(699,384,l),
(303,363,l),
(302,311,l),
(691,330,l),
(692,267,l),
(301,248,l),
(300,197,l),
(692,215,l),
(693,146,l),
(299,129,l)
);
},
{
closed = 1;
nodes = (
(944,458,ls),
(956,459,o),
(964,464,o),
(964,472,cs),
(964,491,o),
(929,515,o),
(917,515,cs),
(916,515,o),
(914,514,o),
(912,514,c),
(900,511,o),
(887,508,o),
(874,507,cs),
(523,490,l),
(523,553,l),
(747,565,ls),
(758,566,o),
(767,569,o),
(767,577,cs),
(767,586,o),
(739,619,o),
(719,619,cs),
(717,619,o),
(715,618,o),
(713,618,c),
(701,615,o),
(689,613,o),
(677,612,cs),
(523,603,l),
(524,660,l),
(789,674,ls),
(800,675,o),
(808,680,o),
(808,688,cs),
(808,708,o),
(773,730,o),
(762,730,cs),
(759,730,o),
(758,730,o),
(756,729,cs),
(745,725,o),
(732,723,o),
(719,722,cs),
(524,712,l),
(524,787,ls),
(524,804,o),
(519,811,o),
(491,817,cs),
(479,820,o),
(470,821,o),
(464,821,cs),
(454,821,o),
(450,819,o),
(450,814,cs),
(450,812,o),
(451,810,o),
(452,807,c),
(459,795,o),
(463,779,o),
(463,767,cs),
(464,708,l),
(249,697,l),
(237,697,ls),
(225,697,o),
(212,698,o),
(201,701,cs),
(199,702,o),
(197,702,o),
(195,702,cs),
(191,702,o),
(188,699,o),
(188,695,cs),
(188,682,o),
(205,658,o),
(216,650,cs),
(221,647,o),
(228,646,o),
(237,646,cs),
(246,646,o),
(255,646,o),
(267,647,cs),
(464,657,l),
(465,600,l),
(305,591,l),
(293,591,ls),
(280,591,o),
(266,592,o),
(254,594,c),
(249,594,ls),
(244,594,o),
(242,592,o),
(242,589,cs),
(242,583,o),
(252,561,o),
(272,546,cs),
(277,542,o),
(285,541,o),
(297,541,cs),
(304,541,o),
(312,541,o),
(322,542,cs),
(465,550,l),
(466,487,l),
(100,470,l),
(89,470,ls),
(77,470,o),
(64,471,o),
(53,474,cs),
(51,475,o),
(49,475,o),
(48,475,cs),
(44,475,o),
(42,473,o),
(42,468,cs),
(42,464,o),
(51,418,o),
(92,418,cs),
(99,418,o),
(107,419,o),
(117,419,cs)
);
},
{
alignment = -1;
piece = {
Height = 482.07611;
Width = 180.00487;
};
pos = (160,26);
ref = _part.moon;
}
);
};
hints = (
{
horizontal = 1;
place = (87,51);
type = Stem;
},
{
horizontal = 1;
place = (206,51);
type = Stem;
},
{
horizontal = 1;
place = (321,63);
type = Stem;
},
{
horizontal = 1;
place = (418,52);
type = Stem;
},
{
horizontal = 1;
place = (542,49);
type = Stem;
},
{
horizontal = 1;
place = (647,50);
type = Stem;
},
{
place = (256,53);
type = Stem;
},
{
place = (463,61);
type = Stem;
},
{
place = (693,60);
type = Stem;
},
{
horizontal = 1;
place = (559,48);
type = Stem;
},
{
place = (465,57);
type = Stem;
},
{
horizontal = 1;
place = (667,50);
type = Stem;
}
);
layerId = "481A290F-76EE-4968-957F-52614F4635C1";
shapes = (
{
closed = 1;
nodes = (
(298,78,l),
(693,95,l),
(694,-29,l),
(661,-20,o),
(618,-5,o),
(581,13,cs),
(568,19,o),
(558,22,o),
(552,22,cs),
(547,22,o),
(544,20,o),
(544,16,cs),
(544,-11,o),
(685,-103,o),
(715,-103,cs),
(736,-103,o),
(755,-82,o),
(755,-58,cs),
(755,-51,o),
(754,-43,o),
(754,-33,cs),
(750,329,ls),
(750,333,o),
(753,340,o),
(753,347,cs),
(753,365,o),
(734,384,o),
(708,384,cs),
(699,384,l),
(303,363,l),
(302,311,l),
(691,330,l),
(692,267,l),
(301,248,l),
(300,197,l),
(692,215,l),
(693,146,l),
(299,129,l)
);
},
{
closed = 1;
nodes = (
(944,458,ls),
(956,459,o),
(964,464,o),
(964,472,cs),
(964,491,o),
(929,515,o),
(917,515,cs),
(916,515,o),
(914,514,o),
(912,514,c),
(900,511,o),
(887,508,o),
(874,507,cs),
(523,490,l),
(523,553,l),
(747,565,ls),
(758,566,o),
(767,569,o),
(767,577,cs),
(767,586,o),
(739,619,o),
(719,619,cs),
(717,619,o),
(715,618,o),
(713,618,c),
(701,615,o),
(689,613,o),
(677,612,cs),
(523,603,l),
(524,660,l),
(789,674,ls),
(800,675,o),
(808,680,o),
(808,688,cs),
(808,708,o),
(773,730,o),
(762,730,cs),
(759,730,o),
(758,730,o),
(756,729,cs),
(745,725,o),
(732,723,o),
(719,722,cs),
(524,712,l),
(524,787,ls),
(524,804,o),
(519,811,o),
(491,817,cs),
(479,820,o),
(470,821,o),
(464,821,cs),
(454,821,o),
(450,819,o),
(450,814,cs),
(450,812,o),
(451,810,o),
(452,807,c),
(459,795,o),
(463,779,o),
(463,767,cs),
(464,708,l),
(249,697,l),
(237,697,ls),
(225,697,o),
(212,698,o),
(201,701,cs),
(199,702,o),
(197,702,o),
(195,702,cs),
(191,702,o),
(188,699,o),
(188,695,cs),
(188,682,o),
(205,658,o),
(216,650,cs),
(221,647,o),
(228,646,o),
(237,646,cs),
(246,646,o),
(255,646,o),
(267,647,cs),
(464,657,l),
(465,600,l),
(305,591,l),
(293,591,ls),
(280,591,o),
(266,592,o),
(254,594,c),
(249,594,ls),
(244,594,o),
(242,592,o),
(242,589,cs),
(242,583,o),
(252,561,o),
(272,546,cs),
(277,542,o),
(285,541,o),
(297,541,cs),
(304,541,o),
(312,541,o),
(322,542,cs),
(465,550,l),
(466,487,l),
(100,470,l),
(89,470,ls),
(77,470,o),
(64,471,o),
(53,474,cs),
(51,475,o),
(49,475,o),
(48,475,cs),
(44,475,o),
(42,473,o),
(42,468,cs),
(42,464,o),
(51,418,o),
(92,418,cs),
(99,418,o),
(107,419,o),
(117,419,cs)
);
},
{
closed = 1;
nodes = (
(343,180,o),
(344,283,o),
(345,347,c),
(349,358,l),
(321,372,o),
(295,378,o),
(279,378,cs),
(274,378,o),
(271,376,o),
(271,372,cs),
(271,368,o),
(273,363,o),
(277,358,cs),
(284,344,o),
(285,327,o),
(285,278,cs),
(285,95,o),
(249,17,o),
(179,-74,cs),
(171,-84,o),
(170,-92,o),
(170,-97,cs),
(170,-100,o),
(172,-104,o),
(177,-104,cs),
(216,-101,o),
(304,-11,o),
(329,112,cs)
);
}
);
width = 1000;
}
);
note = "cid02664
%Big5-1,TEdu-1,TTaiKe,JJoyo,JIS-1
";
unicode = (11992,38738);
}
{
color = 4;
glyphname = uni4EA0;
layers = (
{
hints = (
{
horizontal = 1;
place = (329,64);
type = Stem;
},
{
place = (462,76);
type = Stem;
}
);
layerId = "481A290F-76EE-4968-957F-52614F4635C1";
shapes = (
{
closed = 1;
nodes = (
(921,369,ls),
(936,370,o),
(948,376,o),
(948,388,cs),
(948,408,o),
(913,441,o),
(890,441,cs),
(887,441,o),
(884,440,o),
(881,439,cs),
(868,434,o),
(856,432,o),
(841,431,c),
(115,393,l),
(102,393,ls),
(90,393,o),
(78,394,o),
(67,396,cs),
(64,397,o),
(62,397,o),
(61,397,cs),
(56,397,o),
(54,395,o),
(54,391,cs),
(54,388,o),
(60,356,o),
(86,334,cs),
(91,330,o),
(100,329,o),
(112,329,cs),
(120,329,o),
(128,330,o),
(137,330,cs)
);
},
{
closed = 1;
nodes = (
(586,469,o),
(431,627,o),
(406,627,cs),
(390,627,o),
(369,600,o),
(369,593,cs),
(369,586,o),
(373,579,o),
(382,572,cs),
(426,531,o),
(475,474,o),
(518,418,cs),
(524,409,o),
(530,404,o),
(537,404,cs),
(557,404,o),
(586,433,o),
(586,444,cs)
);
}
);
width = 1000;
}
);
note = "cid04110
%JIS-1
";
unicode = (12039,20128);
}
{
color = 6;
glyphname = uni516B;
layers = (
{
hints = (
{
horizontal = 1;
place = (-35,770);
type = Stem;
},
{
place = (327,76);
type = Stem;
}
);
layerId = "481A290F-76EE-4968-957F-52614F4635C1";
shapes = (
{
closed = 1;
nodes = (
(987,18,o),
(983,23,o),
(975,28,cs),
(775,167,o),
(660,422,o),
(605,606,cs),
(595,640,o),
(587,672,o),
(580,695,cs),
(573,718,o),
(565,735,o),
(496,735,cs),
(478,735,o),
(468,732,o),
(468,726,cs),
(468,722,o),
(473,716,o),
(485,708,cs),
(510,690,o),
(515,684,o),
(542,590,cs),
(670,140,o),
(914,-35,o),
(930,-35,cs),
(946,-35,o),
(987,8,o),
(987,14,cs)
);
},
{
closed = 1;
nodes = (
(254,104,o),
(350,301,o),
(401,536,cs),
(402,541,o),
(403,546,o),
(403,550,cs),
(403,576,o),
(352,602,o),
(333,602,cs),
(327,602,o),
(323,598,o),
(323,590,cs),
(323,589,o),
(324,586,o),
(324,584,cs),
(326,574,o),
(327,567,o),
(327,559,cs),
(327,546,o),
(288,226,o),
(60,6,cs),
(46,-8,o),
(40,-19,o),
(40,-26,cs),
(40,-30,o),
(42,-32,o),
(47,-32,cs),
(54,-32,o),
(65,-28,o),
(79,-18,cs)
);
}
);
width = 1000;
}
);
note = "cid03392
%Big5-1,TEdu-1,TTaiKe,JJoyo,JIS-1
";
unicode = (12043,20843);
}
{
color = 6;
glyphname = uni52F9;
layers = (
{
hints = (
{
horizontal = 1;
place = (-91,891);
type = Stem;
},
{
place = (355,81);
type = Stem;
},
{
place = (797,74);
type = Stem;
}
);
layerId = "481A290F-76EE-4968-957F-52614F4635C1";
shapes = (
{
closed = 1;
nodes = (
(797,562,l),
(791,356,o),
(771,143,o),
(727,0,cs),
(726,-5,o),
(724,-6,o),
(720,-6,cs),
(719,-6,o),
(716,-6,o),
(714,-5,cs),
(663,14,o),
(592,45,o),
(536,76,cs),
(525,82,o),
(516,85,o),
(510,85,cs),
(502,85,o),
(498,82,o),
(498,76,cs),
(498,48,o),
(673,-67,o),
(696,-81,cs),
(707,-87,o),
(718,-91,o),
(728,-91,cs),
(742,-91,o),
(756,-84,o),
(770,-69,cs),
(821,-11,o),
(857,279,o),
(866,565,cs),
(867,575,o),
(871,584,o),
(871,592,cs),
(871,611,o),
(844,624,o),
(827,624,cs),
(816,624,l),
(359,597,l),
(417,701,o),
(436,737,o),
(436,753,cs),
(436,774,o),
(379,800,o),
(363,800,cs),
(356,800,o),
(353,797,o),
(353,791,cs),
(353,789,o),
(353,786,o),
(354,783,cs),
(355,779,o),
(355,775,o),
(355,772,cs),
(355,727,o),
(273,537,o),
(107,322,cs),
(97,309,o),
(92,298,o),
(92,291,cs),
(92,287,o),
(94,284,o),
(99,284,cs),
(127,284,o),
(232,394,o),
(322,536,c)
);
}
);
width = 1000;
}
);
note = "cid04294
%JIS-1
";
unicode = (12051,21241);
}
{
color = 4;
glyphname = uni53B6;
layers = (
{
background = {
hints = (
{
horizontal = 1;
place = (0,78);
type = Stem;
},
{
place = (464,81);
type = Stem;
},
{
name = _corner.sTurn;
origin = (0,56);
scale = (1.2,1.2);
type = Corner;
}
);
shapes = (
{
closed = 1;
nodes = (
(144,3,o),
(502,49,o),
(775,102,c),
(798,64,o),
(820,14,o),
(842,-28,cs),
(847,-38,o),
(855,-44,o),
(864,-44,cs),
(880,-44,o),
(915,-26,o),
(915,-1,cs),
(915,4,o),
(914,10,o),
(910,16,cs),
(835,145,o),
(746,284,o),
(672,386,cs),
(665,396,o),
(657,401,o),
(647,401,cs),
(640,401,o),
(632,398,o),
(623,392,cs),
(610,383,o),
(605,377,o),
(605,370,cs),
(605,364,o),
(609,359,o),
(615,351,cs),
(661,290,o),
(704,219,o),
(744,153,c),
(585,127,o),
(407,104,o),
(268,90,c),
(378,298,o),
(484,511,o),
(544,695,c),
(544,696,o),
(545,698,o),
(545,699,cs),
(545,725,o),
(490,761,o),
(471,761,cs),
(464,761,o),
(462,758,o),
(462,752,cs),
(462,750,o),
(462,747,o),
(463,744,cs),
(464,739,o),
(464,733,o),
(464,727,cs),
(464,652,o),
(288,274,o),
(154,3,c)
);
}
);
};
hints = (
{
horizontal = 1;
place = (0,78);
type = Stem;
},
{
place = (464,81);
type = Stem;
}
);
layerId = "481A290F-76EE-4968-957F-52614F4635C1";
shapes = (
{
closed = 1;
nodes = (
(434,44,o),
(619,72,o),
(775,102,c),
(798,64,o),
(820,14,o),
(842,-28,cs),
(847,-38,o),
(855,-44,o),
(864,-44,cs),
(880,-44,o),
(915,-26,o),
(915,-1,cs),
(915,4,o),
(914,10,o),
(910,16,cs),
(835,145,o),
(746,284,o),
(672,386,cs),
(665,396,o),
(657,401,o),
(647,401,cs),
(640,401,o),
(632,398,o),
(623,392,cs),
(610,383,o),
(605,377,o),
(605,370,cs),
(605,364,o),
(609,359,o),
(615,351,cs),
(661,290,o),
(704,219,o),
(744,153,c),
(585,127,o),
(407,104,o),
(268,90,c),
(378,298,o),
(484,511,o),
(544,695,c),
(544,696,o),
(545,698,o),
(545,699,cs),
(545,725,o),
(490,761,o),
(471,761,cs),
(464,761,o),
(462,758,o),
(462,752,cs),
(462,750,o),
(462,747,o),
(463,744,cs),
(464,739,o),
(464,733,o),
(464,727,cs),
(464,664,o),
(339,386,o),
(219,137,c),
(197,96,o),
(190,87,o),
(173,76,c),
(166,70,o),
(163,66,o),
(162,59,c),
(161,42,o),
(197,6,o),
(218,3,c),
(231,2,o),
(259,13,o),
(307,25,c)
);
}
);
width = 1000;
}
);
note = "cid04328
%TTaiKe
";
unicode = (12059,21430);
}
{
color = 6;
glyphname = uni571F;
layers = (
{
hints = (
{
horizontal = 1;
place = (9,68);
type = Stem;
},
{
horizontal = 1;
place = (378,57);
type = Stem;
},
{
place = (457,70);
type = Stem;
},
{
horizontal = 1;
place = (396,57);
type = Stem;
}
);
layerId = "481A290F-76EE-4968-957F-52614F4635C1";
shapes = (
{
closed = 1;
nodes = (
(932,24,ls),
(945,25,o),
(956,29,o),
(956,39,cs),
(956,57,o),
(912,93,o),
(896,93,cs),
(894,93,o),
(892,93,o),
(890,92,cs),
(876,87,o),
(860,84,o),
(844,83,cs),
(527,71,l),
(528,390,l),
(790,403,ls),
(804,404,o),
(815,408,o),
(815,417,cs),
(815,435,o),
(773,468,o),
(759,468,cs),
(756,468,o),
(754,468,o),
(752,467,cs),
(738,462,o),
(721,459,o),
(707,458,cs),
(528,449,l),
(529,747,ls),
(529,772,o),
(463,787,o),
(451,787,cs),
(444,787,o),
(440,785,o),
(440,780,cs),
(440,777,o),
(441,774,o),
(444,769,cs),
(454,754,o),
(459,739,o),
(459,718,cs),
(458,445,l),
(252,435,l),
(239,435,ls),
(224,435,o),
(209,436,o),
(195,440,cs),
(192,441,o),
(190,441,o),
(188,441,cs),
(184,441,o),
(182,439,o),
(182,434,cs),
(182,416,o),
(197,395,o),
(214,382,cs),
(219,378,o),
(230,377,o),
(244,377,cs),
(252,377,o),
(262,378,o),
(272,378,cs),
(458,387,l),
(457,69,l),
(117,56,l),
(109,56,ls),
(95,56,o),
(78,58,o),
(61,62,cs),
(58,63,o),
(56,63,o),
(54,63,cs),
(49,63,o),
(47,61,o),
(47,57,cs),
(47,56,o),
(53,24,o),
(73,4,cs),
(83,-5,o),
(92,-7,o),
(109,-7,cs),
(118,-7,o),
(129,-7,o),
(143,-6,cs)
);
}
);
width = 1000;
}
);
note = "cid03156
%Big5-1,TEdu-1,TTaiKe,JJoyo,JIS-1
";
unicode = (12063,22303);
}
